<svg xmlns="http://www.w3.org/2000/svg" xmlns:xlink="http://www.w3.org/1999/xlink" width="500" zoomAndPan="magnify" viewBox="0 0 375 374.999991" height="500" preserveAspectRatio="xMidYMid meet" version="1.0"><path fill="#a6a6a6" d="M 234.21875 375.023438 L 229.554688 375.023438 C 219.585938 370.394531 207.992188 367.441406 198.339844 367.441406 C 190.839844 367.441406 184.511719 369.222656 181.027344 373.382812 C 180.75 373.914062 180.527344 374.464844 180.347656 375.023438 L 177.851562 375.023438 C 180.070312 368.128906 189.75 365.722656 195.984375 365.355469 C 207.148438 366.054688 222.164062 369.160156 234.21875 375.023438 " fill-opacity="1" fill-rule="nonzero"/><path fill="#a6a6a6" d="M 375 355.871094 C 372.390625 353.402344 370.183594 350.707031 368.523438 347.800781 C 365.503906 341.546875 370.082031 335.179688 375 330.933594 L 375 333.695312 C 372.183594 336.359375 370.292969 339.320312 369.703125 342.515625 C 369.832031 346.378906 372.148438 349.777344 375 352.667969 L 375 355.871094 " fill-opacity="1" fill-rule="nonzero"/><path fill="#a6a6a6" d="M 375 78.507812 C 367.125 75.53125 358.910156 70.707031 357.605469 61.671875 C 351.371094 50.230469 360.609375 29.46875 375 15.382812 L 375 18.070312 C 360.554688 32.878906 350.046875 58.171875 365.011719 70.378906 C 367.933594 72.976562 371.339844 74.964844 375 76.300781 L 375 78.507812 " fill-opacity="1" fill-rule="nonzero"/><path fill="#a6a6a6" d="M 372.390625 61.535156 C 371.226562 62.769531 371.253906 64.683594 372.445312 65.808594 C 373.148438 66.46875 374.097656 66.695312 375 66.527344 L 375 60.5625 C 374.070312 60.460938 373.09375 60.78125 372.390625 61.535156 " fill-opacity="1" fill-rule="nonzero"/><path fill="#a6a6a6" d="M 373.832031 36.761719 C 374.992188 35.523438 374.96875 33.609375 373.773438 32.488281 C 372.582031 31.363281 370.667969 31.460938 369.503906 32.699219 C 368.34375 33.941406 368.367188 35.855469 369.558594 36.976562 C 370.753906 38.097656 372.667969 38 373.832031 36.761719 " fill-opacity="1" fill-rule="nonzero"/><path fill="#a6a6a6" d="M 55.160156 102.054688 C 53.53125 102.054688 51.980469 102.300781 50.53125 102.828125 C 44.644531 106.554688 43.640625 115.648438 42.894531 121.605469 C 39.835938 141.371094 52.941406 175.707031 73.785156 175.707031 C 75.238281 175.707031 76.730469 175.539062 78.257812 175.1875 C 87.042969 173.558594 94.890625 168 99.675781 160.402344 C 110.273438 143.917969 76.296875 102.054688 55.160156 102.054688 M 74.84375 177.792969 C 72.125 177.792969 69.414062 177.183594 66.804688 175.707031 C 47.039062 172.519531 32.3125 127.261719 45.375 104.488281 C 47.59375 101.171875 51.117188 100.003906 54.875 100.003906 C 59.359375 100.003906 64.179688 101.664062 67.546875 103.34375 C 88.457031 117.160156 120.109375 151 93.972656 170.269531 C 88.507812 173.957031 81.652344 177.792969 74.84375 177.792969 " fill-opacity="1" fill-rule="nonzero"/><path fill="#a6a6a6" d="M 122.769531 283.84375 C 121.679688 283.84375 120.621094 283.96875 119.59375 284.230469 C 113.367188 287.347656 111.457031 296.296875 110.117188 302.152344 C 104.949219 322.101562 115.308594 359.164062 137.378906 359.164062 C 138.21875 359.164062 139.078125 359.105469 139.949219 358.996094 C 148.855469 358.253906 157.222656 353.503906 162.738281 346.421875 C 175.222656 330.714844 143.855469 283.84375 122.769531 283.84375 M 138.207031 361.34375 C 134.835938 361.34375 131.527344 360.503906 128.503906 358.371094 C 109.15625 353.222656 99.023438 306.722656 114.300781 285.363281 C 116.460938 282.746094 119.410156 281.765625 122.546875 281.765625 C 127.484375 281.765625 132.894531 284.183594 136.472656 286.441406 C 155.898438 302.277344 184.007812 339.113281 156.078125 355.675781 C 150.816406 358.507812 144.40625 361.34375 138.207031 361.34375 " fill-opacity="1" fill-rule="nonzero"/><path fill="#a6a6a6" d="M 309.792969 17.972656 C 304.207031 17.972656 298.609375 19.414062 293.683594 22.140625 C 275.117188 32.171875 287.609375 92.949219 308.917969 96.285156 C 315.871094 95.863281 321.140625 88.386719 324.675781 83.527344 C 337.746094 66.59375 342.671875 26.125 319.578125 19.53125 C 316.417969 18.480469 313.109375 17.972656 309.792969 17.972656 M 309.839844 98.402344 C 303.515625 98.402344 297.460938 92.242188 294.265625 87.621094 C 282.625 65.425781 271.25 20.503906 303.441406 16.25 C 305.445312 16.070312 307.566406 15.941406 309.71875 15.941406 C 317.4375 15.941406 325.542969 17.609375 329.855469 24.605469 C 345.628906 36.941406 336.671875 83.683594 314.234375 97.320312 C 312.777344 98.074219 311.300781 98.402344 309.839844 98.402344 " fill-opacity="1" fill-rule="nonzero"/><path fill="#a6a6a6" d="M 44.6875 372.726562 C 29.640625 372.726562 11.136719 366.410156 0 355.871094 L 0 352.667969 C 2.289062 354.984375 4.917969 356.976562 7.035156 358.605469 C 15.621094 365.601562 30.566406 370.585938 43.988281 370.582031 C 56.492188 370.582031 67.671875 366.261719 71.148438 355.207031 C 74.183594 346.804688 73.359375 337.222656 69.226562 329.253906 C 65.804688 322.496094 55.742188 319.566406 44.066406 319.566406 C 28.117188 319.566406 9.15625 325.035156 0 333.695312 L 0 330.933594 C 1.273438 329.835938 2.5625 328.875 3.753906 328.097656 C 14.886719 322.632812 31.578125 317.378906 46.015625 317.378906 C 60.75 317.378906 73.136719 322.855469 74.855469 339.164062 C 75.4375 348.371094 74.890625 360.070312 65.796875 365.351562 C 61.609375 370.421875 53.777344 372.726562 44.6875 372.726562 " fill-opacity="1" fill-rule="nonzero"/><path fill="#a6a6a6" d="M 204.664062 68.976562 C 198.480469 68.976562 192.398438 74.179688 188.21875 77.652344 C 171.390625 90.855469 156.664062 128.871094 177.429688 140.9375 C 182.554688 144.214844 188.609375 145.863281 194.691406 145.863281 C 197.542969 145.863281 200.398438 145.503906 203.171875 144.777344 C 223.632812 139.613281 226.464844 77.632812 206.628906 69.164062 C 205.976562 69.035156 205.320312 68.976562 204.664062 68.976562 M 195.882812 148.304688 C 194.726562 148.304688 193.519531 148.234375 192.261719 148.085938 C 183.15625 146.628906 171.863281 143.519531 168.710938 133.488281 C 156.460938 117.660156 176.628906 74.550781 201.730469 66.847656 C 202.488281 66.671875 203.230469 66.589844 203.949219 66.589844 C 211.296875 66.589844 216.503906 75.253906 218.703125 81.164062 C 224.304688 104.589844 224.507812 148.304688 195.882812 148.304688 " fill-opacity="1" fill-rule="nonzero"/><path fill="#a6a6a6" d="M 346.558594 167.625 C 342.539062 167.625 338.285156 166.402344 333.820312 163.636719 C 326.1875 158.453125 317.277344 150.851562 318.679688 140.433594 C 314.539062 121.988281 346.890625 93.78125 372.398438 93.78125 C 373.273438 93.78125 374.144531 93.8125 375 93.882812 L 375 96.203125 C 374.097656 96.066406 373.171875 96.007812 372.230469 96.007812 C 367.964844 96.007812 363.464844 97.230469 360.019531 98.132812 C 339.179688 102.953125 309.726562 131.136719 323.414062 150.875 C 328.191406 158.425781 336.273438 163.648438 345.101562 165.265625 C 345.824219 165.402344 346.558594 165.472656 347.300781 165.472656 C 356.800781 165.46875 367.566406 154.347656 375 140.875 L 375 144.507812 C 367.984375 157.25 358.277344 167.625 346.558594 167.625 " fill-opacity="1" fill-rule="nonzero"/><path fill="#a6a6a6" d="M 245.109375 201.3125 C 223.421875 201.3125 189.425781 219.839844 190.257812 236.527344 C 192.082031 243.25 200.480469 246.886719 205.953125 249.359375 C 212.351562 252.464844 221.113281 254.164062 230.023438 254.164062 C 247.914062 254.164062 266.402344 247.324219 267.574219 231.335938 C 268.601562 222.457031 265.597656 213.320312 259.746094 206.515625 C 256.679688 202.878906 251.417969 201.3125 245.109375 201.3125 M 230.742188 256.117188 C 215.546875 256.117188 199.25 251.507812 190.324219 241.945312 C 184.8125 235.15625 190.984375 225.429688 195.757812 220.417969 C 207.785156 210.53125 228.417969 198.957031 244.894531 198.957031 C 254.9375 198.957031 263.441406 203.261719 267.496094 214.867188 C 270.179688 223.695312 272.332031 235.207031 264.695312 242.433594 C 260.246094 251.441406 246.050781 256.117188 230.742188 256.117188 " fill-opacity="1" fill-rule="nonzero"/><path fill="#a6a6a6" d="M 234.964844 280.363281 C 234.148438 280.363281 233.347656 280.433594 232.5625 280.589844 C 226.183594 283.351562 223.78125 292.199219 222.117188 297.980469 C 215.742188 317.984375 224.351562 356.601562 247.167969 356.601562 C 247.640625 356.601562 248.121094 356.585938 248.609375 356.550781 C 257.511719 356.3125 266.109375 352.035156 271.996094 345.261719 C 285.476562 330.0625 256.011719 280.363281 234.964844 280.363281 M 247.929688 358.832031 C 244.15625 358.832031 240.480469 357.851562 237.25 355.273438 C 218.28125 349.027344 210.816406 301.925781 227.226562 281.421875 C 229.324219 279.140625 232 278.265625 234.828125 278.265625 C 239.964844 278.265625 245.613281 281.160156 249.238281 283.753906 C 267.679688 300.699219 293.582031 339.152344 264.847656 354.136719 C 259.796875 356.511719 253.746094 358.832031 247.929688 358.832031 " fill-opacity="1" fill-rule="nonzero"/><path fill="#a6a6a6" d="M 232.027344 290.171875 C 230.390625 290.171875 229.0625 291.546875 229.0625 293.25 C 229.0625 294.949219 230.390625 296.328125 232.027344 296.328125 C 233.667969 296.328125 234.996094 294.949219 234.996094 293.25 C 234.996094 291.546875 233.667969 290.171875 232.027344 290.171875 " fill-opacity="1" fill-rule="nonzero"/><path fill="#a6a6a6" d="M 249 326.007812 C 250.640625 326.007812 251.96875 324.628906 251.96875 322.929688 C 251.96875 321.226562 250.640625 319.851562 249 319.851562 C 247.363281 319.851562 246.035156 321.226562 246.035156 322.929688 C 246.035156 324.628906 247.363281 326.007812 249 326.007812 " fill-opacity="1" fill-rule="nonzero"/><path fill="#a6a6a6" d="M 265.042969 330.238281 C 266.679688 330.238281 268.007812 328.863281 268.007812 327.160156 C 268.007812 325.460938 266.679688 324.085938 265.042969 324.085938 C 263.402344 324.085938 262.074219 325.460938 262.074219 327.160156 C 262.074219 328.863281 263.402344 330.238281 265.042969 330.238281 " fill-opacity="1" fill-rule="nonzero"/><path fill="#a6a6a6" d="M 247.933594 345.050781 C 247.933594 346.753906 249.261719 348.128906 250.898438 348.128906 C 252.539062 348.128906 253.867188 346.753906 253.867188 345.050781 C 253.867188 343.351562 252.539062 341.976562 250.898438 341.976562 C 249.261719 341.976562 247.933594 343.351562 247.933594 345.050781 " fill-opacity="1" fill-rule="nonzero"/><path fill="#a6a6a6" d="M 229.0625 322.929688 C 227.425781 322.929688 226.097656 324.308594 226.097656 326.007812 C 226.097656 327.707031 227.425781 329.085938 229.0625 329.085938 C 230.699219 329.085938 232.027344 327.707031 232.027344 326.007812 C 232.027344 324.308594 230.699219 322.929688 229.0625 322.929688 " fill-opacity="1" fill-rule="nonzero"/><path fill="#a6a6a6" d="M 249 304.019531 C 250.640625 304.019531 251.96875 302.644531 251.96875 300.945312 C 251.96875 299.242188 250.640625 297.867188 249 297.867188 C 247.363281 297.867188 246.035156 299.242188 246.035156 300.945312 C 246.035156 302.644531 247.363281 304.019531 249 304.019531 " fill-opacity="1" fill-rule="nonzero"/><path fill="#a6a6a6" d="M 355.40625 244.253906 C 350.640625 244.253906 345.734375 242.550781 340.816406 238.585938 C 333.894531 232.515625 326.019531 223.890625 328.738281 213.742188 C 327.265625 198.039062 352.03125 178.714844 375 174.660156 L 375 176.980469 C 353.679688 179.308594 321.0625 203.5 332.113281 224.667969 C 335.894531 232.730469 343.25 238.898438 351.8125 241.585938 C 353.007812 241.976562 354.257812 242.160156 355.550781 242.160156 C 361.578125 242.160156 368.511719 238.152344 375 232.078125 L 375 235.140625 C 369 240.648438 362.347656 244.253906 355.40625 244.253906 " fill-opacity="1" fill-rule="nonzero"/><path fill="#a6a6a6" d="M 364.269531 214.296875 C 365.828125 213.617188 366.558594 211.847656 365.902344 210.347656 C 365.246094 208.84375 363.453125 208.179688 361.894531 208.859375 C 360.335938 209.539062 359.605469 211.308594 360.261719 212.808594 C 360.917969 214.308594 362.710938 214.976562 364.269531 214.296875 " fill-opacity="1" fill-rule="nonzero"/><path fill="#a6a6a6" d="M 364.433594 225.25 C 362.875 225.933594 362.144531 227.699219 362.800781 229.203125 C 363.453125 230.703125 365.246094 231.371094 366.804688 230.6875 C 368.363281 230.011719 369.097656 228.238281 368.441406 226.742188 C 367.785156 225.238281 365.992188 224.574219 364.433594 225.25 " fill-opacity="1" fill-rule="nonzero"/><path fill="#a6a6a6" d="M 340.742188 223.398438 C 341.398438 224.898438 343.191406 225.5625 344.753906 224.886719 C 346.3125 224.203125 347.042969 222.4375 346.386719 220.933594 C 345.730469 219.433594 343.9375 218.765625 342.378906 219.449219 C 340.820312 220.128906 340.089844 221.898438 340.742188 223.398438 " fill-opacity="1" fill-rule="nonzero"/><path fill="#a6a6a6" d="M 353.472656 197.253906 C 355.027344 196.574219 355.761719 194.804688 355.105469 193.304688 C 354.449219 191.800781 352.65625 191.136719 351.097656 191.816406 C 349.539062 192.496094 348.808594 194.261719 349.464844 195.765625 C 350.121094 197.269531 351.914062 197.933594 353.472656 197.253906 " fill-opacity="1" fill-rule="nonzero"/><path fill="#a6a6a6" d="M 10.96875 80.832031 C 8.648438 80.828125 6.160156 80.480469 3.503906 79.738281 C 2.359375 79.363281 1.183594 78.957031 0 78.507812 L 0 76.300781 C 3.644531 77.636719 7.539062 78.324219 11.449219 78.324219 C 12.5625 78.324219 13.683594 78.269531 14.792969 78.15625 C 35.804688 76.226562 48.515625 15.453125 30.304688 4.011719 C 29.089844 3.574219 27.832031 3.386719 26.558594 3.386719 C 20.957031 3.386719 14.996094 7.039062 10.785156 9.542969 C 7.160156 11.5625 3.46875 14.515625 0 18.070312 L 0 15.382812 C 7.671875 7.875 16.804688 2.261719 25.84375 0.96875 C 26.09375 0.949219 26.339844 0.941406 26.585938 0.941406 C 34.8125 0.941406 38.988281 11.152344 40.296875 17.734375 C 41.980469 40.582031 35.914062 80.832031 10.96875 80.832031 " fill-opacity="1" fill-rule="nonzero"/><path fill="#a6a6a6" d="M 23.414062 14.90625 C 24.578125 13.667969 24.550781 11.753906 23.355469 10.632812 C 22.164062 9.511719 20.25 9.609375 19.085938 10.847656 C 17.921875 12.085938 17.949219 14 19.144531 15.121094 C 20.335938 16.242188 22.25 16.148438 23.414062 14.90625 " fill-opacity="1" fill-rule="nonzero"/><path fill="#a6a6a6" d="M 15.472656 48.164062 C 16.636719 46.925781 16.613281 45.011719 15.417969 43.890625 C 14.222656 42.769531 12.3125 42.867188 11.148438 44.105469 C 9.984375 45.34375 10.011719 47.257812 11.203125 48.378906 C 12.398438 49.5 14.3125 49.40625 15.472656 48.164062 " fill-opacity="1" fill-rule="nonzero"/><path fill="#a6a6a6" d="M 19.945312 58.167969 C 18.78125 59.40625 18.808594 61.320312 20.003906 62.441406 C 21.195312 63.566406 23.109375 63.46875 24.273438 62.230469 C 25.433594 60.988281 25.410156 59.074219 24.214844 57.953125 C 23.023438 56.832031 21.109375 56.929688 19.945312 58.167969 " fill-opacity="1" fill-rule="nonzero"/><path fill="#a6a6a6" d="M 1.660156 61.320312 C 1.1875 60.875 0.605469 60.628906 0 60.5625 L 0 66.527344 C 0.628906 66.410156 1.238281 66.105469 1.714844 65.59375 C 2.878906 64.351562 2.855469 62.4375 1.660156 61.320312 " fill-opacity="1" fill-rule="nonzero"/><path fill="#a6a6a6" d="M 30.523438 32.136719 C 31.683594 30.894531 31.660156 28.980469 30.464844 27.863281 C 29.269531 26.742188 27.359375 26.835938 26.195312 28.078125 C 25.03125 29.3125 25.058594 31.226562 26.253906 32.347656 C 27.445312 33.472656 29.359375 33.375 30.523438 32.136719 " fill-opacity="1" fill-rule="nonzero"/><path fill="#a6a6a6" d="M 225.855469 54.488281 C 206.5 54.488281 177.535156 26.125 177.40625 2.386719 C 177.457031 1.546875 177.613281 0.757812 177.851562 0.0234375 L 180.347656 0.0234375 C 178.441406 5.96875 181.707031 13.410156 183.851562 18.472656 C 189.882812 33.949219 210.542969 52.582031 227.6875 52.578125 C 232.664062 52.578125 237.347656 51.007812 241.289062 47.335938 C 248.058594 41.546875 252.046875 32.816406 252.367188 23.847656 C 252.769531 14.933594 242.539062 6.054688 229.554688 0.0234375 L 234.21875 0.0234375 C 249.152344 7.289062 259.539062 18.800781 252.394531 35.246094 C 248.378906 43.527344 242.15625 53.417969 231.652344 53.492188 C 229.859375 54.171875 227.914062 54.488281 225.855469 54.488281 " fill-opacity="1" fill-rule="nonzero"/><path fill="#a6a6a6" d="M 190.515625 10.953125 C 191.785156 9.921875 191.953125 8.015625 190.882812 6.695312 C 189.8125 5.371094 187.914062 5.136719 186.644531 6.167969 C 185.367188 7.199219 185.203125 9.105469 186.273438 10.425781 C 187.339844 11.75 189.242188 11.984375 190.515625 10.953125 " fill-opacity="1" fill-rule="nonzero"/><path fill="#a6a6a6" d="M 222.378906 23.347656 C 223.65625 22.316406 223.816406 20.40625 222.75 19.085938 C 221.679688 17.765625 219.78125 17.53125 218.503906 18.5625 C 217.234375 19.589844 217.070312 21.496094 218.136719 22.820312 C 219.207031 24.140625 221.105469 24.378906 222.378906 23.347656 " fill-opacity="1" fill-rule="nonzero"/><path fill="#a6a6a6" d="M 237.511719 16.546875 C 238.785156 15.515625 238.949219 13.609375 237.878906 12.289062 C 236.808594 10.96875 234.910156 10.730469 233.636719 11.761719 C 232.363281 12.789062 232.199219 14.699219 233.269531 16.019531 C 234.339844 17.339844 236.238281 17.578125 237.511719 16.546875 " fill-opacity="1" fill-rule="nonzero"/><path fill="#a6a6a6" d="M 233.898438 34.566406 C 232.625 35.597656 232.460938 37.503906 233.527344 38.824219 C 234.597656 40.144531 236.496094 40.382812 237.773438 39.351562 C 239.046875 38.320312 239.207031 36.414062 238.140625 35.089844 C 237.070312 33.769531 235.171875 33.53125 233.898438 34.566406 " fill-opacity="1" fill-rule="nonzero"/><path fill="#a6a6a6" d="M 204.945312 33.496094 C 203.667969 34.527344 203.503906 36.433594 204.574219 37.757812 C 205.640625 39.078125 207.542969 39.3125 208.816406 38.285156 C 210.089844 37.25 210.257812 35.34375 209.1875 34.023438 C 208.113281 32.699219 206.214844 32.464844 204.945312 33.496094 " fill-opacity="1" fill-rule="nonzero"/><path fill="#a6a6a6" d="M 208.550781 6.257812 C 209.824219 5.226562 209.988281 3.316406 208.917969 1.996094 C 207.851562 0.675781 205.949219 0.441406 204.675781 1.46875 C 203.402344 2.503906 203.238281 4.410156 204.308594 5.730469 C 205.378906 7.050781 207.277344 7.289062 208.550781 6.257812 " fill-opacity="1" fill-rule="nonzero"/><path fill="#a6a6a6" d="M 127.632812 177.550781 C 120.691406 177.550781 113.75 179.878906 108.101562 184.054688 C 91.015625 196.4375 111.105469 255.191406 132.605469 255.734375 C 139.429688 254.410156 143.6875 246.296875 146.566406 241.011719 C 157.339844 222.484375 157.0625 181.640625 133.375 178.097656 C 131.480469 177.726562 129.558594 177.550781 127.632812 177.550781 M 132.46875 257.804688 C 126.601562 257.804688 120.496094 252.917969 117.007812 249.03125 C 102.671875 228.496094 85.707031 185.347656 117 176.9375 C 120.632812 176.121094 124.695312 175.425781 128.683594 175.425781 C 134.554688 175.425781 140.261719 176.9375 144.195312 181.804688 C 161.359375 192.003906 158.453125 239.605469 137.996094 256.070312 C 136.242188 257.292969 134.371094 257.804688 132.46875 257.804688 " fill-opacity="1" fill-rule="nonzero"/><path fill="#a6a6a6" d="M 135.199219 246.492188 C 136.800781 246.847656 138.394531 245.789062 138.761719 244.128906 C 139.128906 242.46875 138.132812 240.835938 136.53125 240.480469 C 134.933594 240.128906 133.335938 241.183594 132.972656 242.84375 C 132.601562 244.503906 133.601562 246.136719 135.199219 246.492188 " fill-opacity="1" fill-rule="nonzero"/><path fill="#a6a6a6" d="M 125.054688 213.839844 C 126.652344 214.195312 128.246094 213.136719 128.613281 211.476562 C 128.980469 209.820312 127.984375 208.1875 126.382812 207.828125 C 124.785156 207.476562 123.191406 208.53125 122.820312 210.191406 C 122.453125 211.851562 123.453125 213.488281 125.054688 213.839844 " fill-opacity="1" fill-rule="nonzero"/><path fill="#a6a6a6" d="M 111.640625 200.226562 C 110.042969 199.875 108.445312 200.929688 108.078125 202.589844 C 107.710938 204.25 108.710938 205.882812 110.308594 206.238281 C 111.910156 206.59375 113.503906 205.535156 113.871094 203.875 C 114.238281 202.214844 113.242188 200.582031 111.640625 200.226562 " fill-opacity="1" fill-rule="nonzero"/><path fill="#a6a6a6" d="M 127.984375 191.832031 C 129.585938 192.1875 131.179688 191.128906 131.550781 189.46875 C 131.917969 187.808594 130.921875 186.175781 129.320312 185.820312 C 127.722656 185.464844 126.125 186.527344 125.757812 188.1875 C 125.386719 189.84375 126.390625 191.476562 127.984375 191.832031 " fill-opacity="1" fill-rule="nonzero"/><path fill="#a6a6a6" d="M 145.183594 215.152344 C 146.785156 215.503906 148.378906 214.449219 148.746094 212.789062 C 149.117188 211.128906 148.113281 209.496094 146.519531 209.140625 C 144.917969 208.785156 143.320312 209.84375 142.957031 211.503906 C 142.585938 213.164062 143.582031 214.796875 145.183594 215.152344 " fill-opacity="1" fill-rule="nonzero"/><path fill="#a6a6a6" d="M 123.855469 232.941406 C 124.222656 231.28125 123.226562 229.648438 121.628906 229.292969 C 120.027344 228.941406 118.429688 229.996094 118.0625 231.65625 C 117.695312 233.316406 118.695312 234.953125 120.296875 235.304688 C 121.890625 235.660156 123.488281 234.601562 123.855469 232.941406 " fill-opacity="1" fill-rule="nonzero"/><path fill="#a6a6a6" d="M 300.519531 317.046875 C 301.492188 325.980469 305.445312 333.488281 313.679688 336.785156 C 317.75 338.621094 322.183594 339.515625 326.628906 339.515625 C 331.089844 339.515625 335.570312 338.613281 339.703125 336.855469 C 343.578125 335.25 346.433594 331.527344 348.367188 326.554688 C 349.015625 326.109375 349.613281 325.355469 350.121094 324.199219 C 350.195312 324.023438 350.007812 323.945312 349.742188 323.945312 C 349.589844 323.945312 349.410156 323.972656 349.242188 324.019531 C 350.484375 319.945312 351.195312 315.222656 351.421875 310.238281 C 351.917969 309.800781 352.332031 309.191406 352.613281 308.46875 C 352.679688 308.304688 352.496094 308.230469 352.238281 308.230469 C 352 308.230469 351.707031 308.292969 351.480469 308.394531 C 351.570312 304.257812 351.332031 299.976562 350.785156 295.753906 C 351.089844 295.472656 351.351562 295.152344 351.558594 294.816406 C 351.6875 294.605469 351.507812 294.523438 351.234375 294.523438 C 351.050781 294.523438 350.828125 294.5625 350.632812 294.621094 C 350.109375 290.921875 349.351562 287.28125 348.367188 283.839844 C 348.679688 283.558594 348.765625 283.160156 348.15625 283.101562 L 348.152344 283.101562 C 344.917969 272.191406 339.4375 263.453125 332.175781 261.539062 C 332.03125 261.53125 331.882812 261.527344 331.738281 261.527344 C 324.964844 261.527344 319.125 268.230469 315.191406 272.601562 L 315.105469 272.695312 C 314.546875 272.761719 314 272.84375 313.523438 272.867188 C 312.742188 272.910156 312.410156 273.882812 313.3125 273.882812 L 313.382812 273.882812 C 313.617188 273.867188 313.855469 273.84375 314.097656 273.816406 C 311.410156 276.917969 308.945312 280.8125 306.859375 285.144531 C 306.46875 285.332031 306.101562 285.523438 305.785156 285.707031 C 305.25 286.003906 305.570312 286.132812 305.980469 286.132812 C 306.125 286.132812 306.28125 286.117188 306.414062 286.085938 C 304.390625 290.46875 302.761719 295.257812 301.695312 300.105469 C 301.289062 300.273438 300.925781 300.421875 300.636719 300.507812 C 299.925781 300.726562 299.925781 301.214844 300.449219 301.214844 C 300.550781 301.214844 300.671875 301.195312 300.808594 301.15625 C 301.027344 301.089844 301.265625 301 301.523438 300.902344 C 300.429688 306.148438 300.007812 311.441406 300.449219 316.332031 C 300.324219 316.363281 300.203125 316.394531 300.078125 316.417969 C 299.46875 316.527344 298.976562 317.21875 299.625 317.21875 C 299.691406 317.21875 299.773438 317.210938 299.871094 317.191406 C 300.09375 317.152344 300.308594 317.101562 300.519531 317.046875 M 329.390625 341.710938 C 320.171875 341.585938 308.546875 340.148438 303.976562 330.679688 C 289.558594 316.789062 303.277344 271.214844 326.996094 259.957031 C 328.183594 259.492188 329.355469 259.28125 330.5 259.28125 C 337.210938 259.28125 343.019531 266.480469 345.863281 271.664062 C 355.15625 294.9375 361.851562 340.792969 329.390625 341.710938 " fill-opacity="1" fill-rule="nonzero"/><path fill="#a6a6a6" d="M 351.171875 308.667969 C 350.21875 311.105469 349.03125 309.496094 347.894531 308.097656 C 347.097656 307.121094 346.414062 305.742188 345.328125 305.050781 C 342.417969 303.1875 341.003906 304.738281 338.910156 306.820312 C 335.9375 309.777344 335.003906 306.910156 334.070312 304.871094 C 333.484375 303.589844 332.425781 302.511719 330.984375 302.261719 C 327.617188 301.675781 326.0625 304.320312 323.882812 306.324219 C 320.632812 309.3125 319.929688 304.957031 319.371094 302.769531 C 318.929688 301.035156 317.75 300.035156 315.917969 300.570312 C 314.679688 300.925781 313.558594 301.527344 312.578125 302.359375 C 311.941406 302.902344 310.730469 304.621094 309.730469 304.332031 C 308.527344 303.988281 308.636719 302.222656 308.597656 301.300781 C 308.421875 297.085938 304.191406 299.066406 301.695312 300.105469 C 301.289062 300.273438 300.925781 300.421875 300.636719 300.507812 C 299.789062 300.765625 299.953125 301.417969 300.808594 301.15625 C 301.027344 301.089844 301.265625 301 301.523438 300.902344 C 303.667969 300.078125 306.890625 298.476562 307.148438 301.691406 C 307.28125 303.363281 307.324219 304.636719 309.128906 305.15625 C 311.957031 305.96875 314.902344 299.367188 317.210938 301.605469 C 318.628906 302.980469 318.066406 305.691406 319.273438 307.289062 C 320.472656 308.863281 323.503906 307.726562 324.699219 306.773438 C 326.375 305.4375 327.851562 302.289062 330.503906 303.136719 C 332.40625 303.746094 332.789062 305.929688 333.621094 307.464844 C 334.964844 309.933594 338.492188 308.347656 340.058594 307.003906 C 340.660156 306.484375 341.140625 305.820312 341.703125 305.257812 C 342.6875 304.273438 344.097656 305.574219 344.746094 306.3125 C 345.777344 307.492188 346.589844 308.832031 347.703125 309.945312 C 349.019531 311.253906 350.394531 311.136719 351.421875 310.238281 C 351.917969 309.800781 352.332031 309.191406 352.613281 308.46875 C 352.738281 308.152344 351.949219 308.175781 351.480469 308.394531 C 351.332031 308.46875 351.214844 308.558594 351.171875 308.667969 " fill-opacity="1" fill-rule="nonzero"/><path fill="#a6a6a6" d="M 348.675781 324.386719 C 347.859375 326.234375 346.757812 326.792969 345.085938 325.574219 C 344.15625 324.898438 343.363281 324.035156 342.574219 323.210938 C 341.382812 321.96875 339.875 319.820312 338.0625 319.445312 C 336.414062 319.109375 335.058594 320.25 334.078125 321.445312 C 333.621094 322.003906 333.230469 322.5625 332.699219 323.058594 C 331.074219 324.574219 329.3125 322.699219 328.8125 321.449219 C 328.171875 319.859375 327.90625 318.648438 326.503906 317.539062 C 322.304688 314.222656 318.726562 319.71875 314.871094 320.367188 C 311.289062 320.972656 311.496094 315.609375 309.121094 314.464844 C 305.574219 312.765625 303.617188 315.570312 300.449219 316.332031 C 300.324219 316.363281 300.203125 316.394531 300.078125 316.417969 C 299.402344 316.539062 298.871094 317.375 299.871094 317.191406 C 300.09375 317.152344 300.308594 317.101562 300.519531 317.046875 C 301.804688 316.707031 302.894531 316.097656 304.078125 315.40625 C 308.03125 313.089844 308.558594 316.246094 310.03125 318.535156 C 311.363281 320.605469 313.1875 321.574219 315.59375 320.949219 C 318.0625 320.308594 319.847656 318.179688 322.289062 317.453125 C 326.65625 316.152344 326.46875 322.4375 329.179688 323.917969 C 331.257812 325.050781 333.550781 323.800781 334.859375 322.191406 C 336.019531 320.765625 336.878906 319.730469 338.53125 321.074219 C 339.515625 321.871094 340.355469 322.855469 341.226562 323.769531 C 343.414062 326.070312 346.195312 328.058594 348.367188 326.554688 C 349.015625 326.109375 349.613281 325.355469 350.121094 324.199219 C 350.242188 323.921875 349.703125 323.890625 349.242188 324.019531 C 348.980469 324.09375 348.746094 324.222656 348.675781 324.386719 " fill-opacity="1" fill-rule="nonzero"/><path fill="#a6a6a6" d="M 350.230469 294.863281 C 349.117188 296.652344 347.640625 294.691406 346.785156 293.746094 C 345.894531 292.761719 344.964844 292.097656 343.683594 291.695312 C 342.199219 291.230469 340.984375 292.199219 339.90625 293.042969 C 337.902344 294.601562 336.265625 292.679688 335.664062 291.078125 C 335.320312 290.167969 335.089844 289.273438 334.453125 288.507812 C 333.238281 287.046875 330.878906 287.773438 329.558594 288.574219 C 328.582031 289.171875 325.707031 291.957031 324.847656 290.402344 C 324.320312 289.449219 324.140625 288.597656 323.367188 287.761719 C 321.886719 286.15625 319.8125 286.304688 318.074219 287.257812 C 316.945312 287.875 313.71875 289.613281 313.601562 287.457031 C 313.539062 286.378906 313.203125 285.65625 312.402344 284.933594 C 310.933594 283.617188 308.601562 284.3125 306.859375 285.144531 C 306.46875 285.332031 306.101562 285.523438 305.785156 285.707031 C 305.066406 286.109375 305.902344 286.203125 306.414062 286.085938 C 306.507812 286.066406 306.585938 286.039062 306.648438 286.003906 C 308.609375 284.898438 311.519531 284.546875 312.09375 287.183594 C 312.234375 287.84375 312.011719 288.5625 312.589844 289.035156 C 313.894531 290.105469 317.308594 288.488281 318.480469 287.824219 C 320.949219 286.4375 322.605469 288.554688 323.289062 290.511719 C 323.507812 291.144531 323.832031 291.40625 324.46875 291.519531 C 326.839844 291.953125 329.101562 289.675781 330.894531 288.585938 C 333.429688 287.046875 334.332031 292.535156 335.582031 293.582031 C 336.875 294.667969 339.390625 294.269531 340.695312 293.402344 C 342.222656 292.382812 343.214844 292.113281 344.792969 293.597656 C 345.746094 294.492188 346.472656 295.550781 347.601562 296.265625 C 348.734375 296.984375 349.921875 296.550781 350.785156 295.753906 C 351.089844 295.472656 351.351562 295.152344 351.558594 294.816406 C 351.78125 294.464844 351.109375 294.46875 350.632812 294.621094 C 350.445312 294.683594 350.289062 294.769531 350.230469 294.863281 " fill-opacity="1" fill-rule="nonzero"/><path fill="#a6a6a6" d="M 344.328125 280.140625 C 342.976562 279.636719 341.675781 280.738281 340.691406 281.488281 C 339.359375 282.511719 337.46875 279.152344 336.089844 278.644531 C 334.492188 278.058594 332.980469 279.035156 331.652344 279.792969 C 329.320312 281.117188 328.152344 276.792969 326.757812 275.894531 C 325.632812 275.167969 324.292969 275.660156 323.296875 276.3125 C 320.386719 278.226562 320.152344 274.660156 318.511719 273.253906 C 317.617188 272.484375 316.316406 272.550781 315.105469 272.695312 C 314.546875 272.761719 314 272.84375 313.523438 272.867188 C 312.722656 272.914062 312.390625 273.933594 313.382812 273.882812 C 313.617188 273.867188 313.855469 273.84375 314.097656 273.816406 C 315.207031 273.6875 316.371094 273.492188 317.386719 274.066406 C 318.21875 274.53125 318.453125 275.671875 318.894531 276.425781 C 319.59375 277.628906 320.550781 278.128906 321.917969 278.121094 C 323.816406 278.113281 325.242188 275.335938 326.886719 278.109375 C 327.769531 279.589844 328.324219 280.964844 330.203125 281.179688 C 332.332031 281.421875 334.085938 278.214844 336.277344 280.195312 C 337.460938 281.261719 337.851562 282.679688 339.652344 282.867188 C 341.238281 283.027344 342.90625 280.136719 344.429688 281.691406 C 345.621094 282.902344 345.75 283.929688 347.644531 284.113281 C 347.902344 284.136719 348.179688 284.011719 348.367188 283.839844 C 348.679688 283.558594 348.765625 283.160156 348.15625 283.101562 L 348.152344 283.101562 C 346.339844 282.925781 345.96875 280.757812 344.328125 280.140625 " fill-opacity="1" fill-rule="nonzero"/><path fill="#a6a6a6" d="M 32.371094 274.632812 C 35.460938 283.070312 41.101562 289.40625 49.886719 290.628906 C 51.699219 290.960938 53.53125 291.125 55.359375 291.125 C 62.425781 291.125 69.46875 288.726562 75.167969 284.445312 C 78.539062 281.957031 80.417969 277.660156 81.097656 272.367188 C 81.625 271.773438 82.019531 270.898438 82.234375 269.65625 C 82.253906 269.527344 82.167969 269.46875 82.027344 269.46875 C 81.84375 269.46875 81.574219 269.5625 81.339844 269.695312 C 81.566406 265.441406 81.125 260.6875 80.144531 255.789062 C 80.519531 255.25 80.773438 254.558594 80.875 253.785156 C 80.890625 253.664062 80.804688 253.617188 80.667969 253.617188 C 80.425781 253.617188 80.015625 253.78125 79.761719 253.988281 C 78.851562 249.953125 77.589844 245.851562 76.046875 241.882812 C 76.273438 241.539062 76.449219 241.164062 76.570312 240.792969 C 76.628906 240.617188 76.539062 240.550781 76.390625 240.550781 C 76.1875 240.550781 75.871094 240.671875 75.628906 240.824219 C 74.226562 237.355469 72.617188 234.003906 70.835938 230.902344 C 71.050781 230.585938 71.058594 230.226562 70.609375 230.226562 C 70.5625 230.226562 70.511719 230.226562 70.453125 230.238281 C 64.6875 220.421875 57.269531 213.257812 49.761719 213.140625 C 42.9375 214.523438 38.757812 222.664062 35.933594 227.964844 L 35.875 228.074219 C 35.339844 228.273438 34.832031 228.484375 34.378906 228.625 C 33.699219 228.832031 33.5625 229.6875 34.191406 229.6875 C 34.273438 229.6875 34.371094 229.671875 34.484375 229.640625 C 34.707031 229.570312 34.933594 229.488281 35.160156 229.40625 C 33.300781 233.0625 31.839844 237.433594 30.855469 242.140625 C 30.519531 242.417969 30.210938 242.691406 29.945312 242.945312 C 29.625 243.246094 29.71875 243.355469 29.941406 243.355469 C 30.136719 243.355469 30.433594 243.273438 30.652344 243.160156 C 29.742188 247.902344 29.3125 252.941406 29.4375 257.902344 C 29.085938 258.167969 28.769531 258.394531 28.507812 258.550781 C 27.945312 258.886719 27.972656 259.300781 28.34375 259.300781 C 28.46875 259.300781 28.636719 259.253906 28.832031 259.132812 C 29.027344 259.019531 29.242188 258.878906 29.464844 258.722656 C 29.664062 264.074219 30.523438 269.3125 32.128906 273.957031 C 32.015625 274.015625 31.90625 274.074219 31.789062 274.125 C 31.273438 274.355469 30.96875 275.035156 31.398438 275.035156 C 31.488281 275.035156 31.613281 275.003906 31.777344 274.929688 C 31.984375 274.835938 32.179688 274.738281 32.371094 274.632812 M 54.304688 293.253906 C 48.53125 293.253906 42.925781 291.769531 39 287.035156 C 21.671875 277.015625 24.035156 229.480469 44.351562 212.851562 C 46.128906 211.597656 48.035156 211.070312 49.972656 211.070312 C 55.828125 211.070312 61.957031 215.859375 65.476562 219.683594 C 80.09375 240.042969 97.609375 282.941406 66.324219 291.632812 C 62.59375 292.503906 58.40625 293.253906 54.304688 293.253906 " fill-opacity="1" fill-rule="nonzero"/><path fill="#a6a6a6" d="M 76.203125 254.5625 C 75.195312 253.804688 74.203125 252.632812 72.984375 252.21875 C 69.710938 251.113281 68.710938 252.953125 67.175781 255.480469 C 65.003906 259.066406 63.40625 256.507812 62.011719 254.75 C 61.136719 253.648438 59.847656 252.855469 58.386719 252.960938 C 54.980469 253.203125 54.109375 256.144531 52.472656 258.609375 C 50.035156 262.289062 48.304688 258.234375 47.234375 256.242188 C 46.390625 254.664062 45.007812 253.980469 43.355469 254.9375 C 42.242188 255.582031 41.296875 256.433594 40.546875 257.476562 C 40.058594 258.15625 39.300781 260.113281 38.257812 260.074219 C 37.007812 260.03125 36.6875 258.292969 36.425781 257.40625 C 35.242188 253.355469 31.613281 256.292969 29.4375 257.902344 C 29.085938 258.167969 28.769531 258.394531 28.507812 258.550781 C 27.75 259.003906 28.0625 259.59375 28.832031 259.132812 C 29.027344 259.019531 29.242188 258.878906 29.464844 258.722656 C 31.347656 257.40625 34.09375 255.074219 35.113281 258.132812 C 35.644531 259.722656 35.992188 260.949219 37.867188 261.019531 C 40.808594 261.128906 42.082031 254.015625 44.859375 255.628906 C 46.566406 256.625 46.671875 259.390625 48.230469 260.652344 C 49.769531 261.898438 52.441406 260.058594 53.375 258.847656 C 54.679688 257.148438 55.355469 253.738281 58.132812 253.921875 C 60.125 254.058594 61.023438 256.085938 62.203125 257.378906 C 64.097656 259.453125 67.140625 257.0625 68.335938 255.382812 C 68.796875 254.734375 69.101562 253.972656 69.515625 253.292969 C 70.230469 252.101562 71.914062 253.023438 72.722656 253.585938 C 74.007812 254.484375 75.117188 255.589844 76.46875 256.402344 C 78.054688 257.355469 79.363281 256.910156 80.144531 255.789062 C 80.519531 255.25 80.773438 254.558594 80.875 253.785156 C 80.921875 253.449219 80.160156 253.664062 79.761719 253.988281 C 79.632812 254.097656 79.539062 254.214844 79.523438 254.328125 C 79.183594 256.925781 77.644531 255.644531 76.203125 254.5625 " fill-opacity="1" fill-rule="nonzero"/><path fill="#a6a6a6" d="M 80.875 270.1875 C 80.53125 272.175781 79.597656 272.980469 77.679688 272.199219 C 76.617188 271.769531 75.636719 271.117188 74.675781 270.507812 C 73.21875 269.589844 71.238281 267.867188 69.390625 267.941406 C 67.707031 268.007812 66.664062 269.445312 66.003906 270.839844 C 65.691406 271.488281 65.445312 272.125 65.046875 272.734375 C 63.835938 274.59375 61.675781 273.199219 60.886719 272.105469 C 59.890625 270.714844 59.339844 269.605469 57.710938 268.867188 C 52.839844 266.65625 50.683594 272.847656 47.097656 274.40625 C 43.765625 275.855469 42.679688 270.597656 40.097656 270.0625 C 36.246094 269.261719 35.023438 272.457031 32.128906 273.957031 C 32.015625 274.015625 31.90625 274.074219 31.789062 274.125 C 31.164062 274.40625 30.851562 275.34375 31.777344 274.929688 C 31.984375 274.835938 32.179688 274.738281 32.371094 274.632812 C 33.539062 273.996094 34.449219 273.140625 35.433594 272.183594 C 38.707031 268.988281 39.980469 271.921875 41.960938 273.792969 C 43.75 275.480469 45.75 275.980469 47.9375 274.796875 C 50.183594 273.582031 51.402344 271.085938 53.597656 269.796875 C 57.527344 267.484375 58.851562 273.628906 61.839844 274.410156 C 64.128906 275.015625 66.054688 273.25 66.941406 271.371094 C 67.722656 269.710938 68.308594 268.5 70.238281 269.40625 C 71.382812 269.945312 72.433594 270.695312 73.5 271.378906 C 76.175781 273.082031 79.351562 274.34375 81.097656 272.367188 C 81.625 271.773438 82.019531 270.898438 82.234375 269.65625 C 82.285156 269.359375 81.753906 269.457031 81.339844 269.695312 C 81.105469 269.828125 80.90625 270.007812 80.875 270.1875 " fill-opacity="1" fill-rule="nonzero"/><path fill="#a6a6a6" d="M 75.292969 241.152344 C 74.644531 243.160156 72.738281 241.609375 71.679688 240.894531 C 70.578125 240.15625 69.519531 239.734375 68.179688 239.652344 C 66.625 239.554688 65.679688 240.789062 64.832031 241.867188 C 63.265625 243.863281 61.214844 242.390625 60.246094 240.980469 C 59.691406 240.175781 59.25 239.363281 58.453125 238.777344 C 56.921875 237.648438 54.808594 238.921875 53.714844 240.015625 C 52.910156 240.828125 50.789062 244.222656 49.585938 242.921875 C 48.84375 242.121094 48.460938 241.339844 47.511719 240.714844 C 45.6875 239.511719 43.707031 240.152344 42.25 241.496094 C 41.304688 242.367188 38.589844 244.828125 37.957031 242.765625 C 37.636719 241.730469 37.136719 241.109375 36.1875 240.605469 C 34.445312 239.675781 32.351562 240.914062 30.855469 242.140625 C 30.519531 242.417969 30.210938 242.691406 29.945312 242.945312 C 29.347656 243.511719 30.1875 243.398438 30.652344 243.160156 C 30.734375 243.121094 30.808594 243.074219 30.859375 243.027344 C 32.496094 241.480469 35.238281 240.441406 36.425781 242.867188 C 36.722656 243.46875 36.679688 244.21875 37.351562 244.539062 C 38.878906 245.265625 41.804688 242.875 42.78125 241.949219 C 44.847656 240.007812 46.960938 241.667969 48.09375 243.402344 C 48.460938 243.960938 48.835938 244.140625 49.484375 244.097656 C 51.890625 243.949219 53.539062 241.195312 55.015625 239.707031 C 57.109375 237.605469 59.304688 242.71875 60.765625 243.429688 C 62.28125 244.171875 64.628906 243.183594 65.6875 242.023438 C 66.925781 240.671875 67.824219 240.171875 69.710938 241.226562 C 70.855469 241.871094 71.8125 242.726562 73.078125 243.148438 C 74.351562 243.570312 75.398438 242.867188 76.046875 241.882812 C 76.273438 241.539062 76.449219 241.164062 76.570312 240.792969 C 76.703125 240.390625 76.050781 240.558594 75.628906 240.824219 C 75.457031 240.929688 75.324219 241.046875 75.292969 241.152344 " fill-opacity="1" fill-rule="nonzero"/><path fill="#a6a6a6" d="M 66.027344 228.28125 C 64.59375 228.117188 63.59375 229.496094 62.824219 230.460938 C 61.773438 231.777344 59.128906 228.96875 57.671875 228.808594 C 55.980469 228.625 54.746094 229.933594 53.640625 230.988281 C 51.695312 232.835938 49.519531 228.917969 47.953125 228.382812 C 46.683594 227.945312 45.496094 228.746094 44.691406 229.621094 C 42.328125 232.171875 41.246094 228.769531 39.3125 227.796875 C 38.257812 227.269531 37.015625 227.640625 35.875 228.074219 C 35.339844 228.273438 34.832031 228.484375 34.378906 228.625 C 33.609375 228.859375 33.535156 229.925781 34.484375 229.640625 C 34.707031 229.570312 34.933594 229.488281 35.160156 229.40625 C 36.207031 229.015625 37.292969 228.542969 38.414062 228.855469 C 39.332031 229.109375 39.835938 230.160156 40.445312 230.785156 C 41.414062 231.78125 42.460938 232.039062 43.785156 231.703125 C 45.628906 231.242188 46.347656 228.203125 48.609375 230.5 C 49.820312 231.726562 50.6875 232.925781 52.566406 232.679688 C 54.6875 232.40625 55.617188 228.871094 58.226562 230.269531 C 59.628906 231.019531 60.347656 232.300781 62.144531 232.046875 C 63.722656 231.824219 64.644531 228.617188 66.496094 229.757812 C 67.945312 230.652344 68.316406 231.617188 70.199219 231.339844 C 70.457031 231.300781 70.691406 231.113281 70.835938 230.902344 C 71.074219 230.554688 71.058594 230.148438 70.453125 230.238281 C 68.648438 230.503906 67.765625 228.484375 66.027344 228.28125 " fill-opacity="1" fill-rule="nonzero"/><path fill="#a6a6a6" d="M 233.039062 132.835938 C 231.234375 136.558594 229.664062 140.550781 228.398438 144.617188 C 228.007812 144.742188 227.632812 144.925781 227.304688 145.140625 C 226.957031 145.375 227.566406 145.648438 228.0625 145.707031 C 226.996094 149.289062 226.167969 152.914062 225.625 156.449219 C 225.222656 156.574219 224.984375 156.902344 225.511719 157.210938 C 223.902344 168.476562 225.238281 178.703125 231.039062 183.472656 C 232.734375 184.34375 234.59375 184.691406 236.507812 184.691406 C 241.589844 184.691406 247.085938 182.238281 251.089844 180.503906 L 251.207031 180.453125 C 251.742188 180.628906 252.273438 180.78125 252.71875 180.957031 C 252.828125 181 252.945312 181.023438 253.050781 181.023438 C 253.648438 181.023438 254.050781 180.40625 253.269531 180.09375 C 253.050781 180.011719 252.820312 179.933594 252.589844 179.859375 C 256.328125 178.160156 260.195312 175.648438 263.894531 172.582031 C 264.332031 172.574219 264.742188 172.550781 265.105469 172.519531 C 265.925781 172.453125 265.203125 172.015625 264.691406 171.910156 C 268.355469 168.773438 271.835938 165.097656 274.832031 161.136719 C 275.269531 161.15625 275.660156 161.175781 275.960938 161.214844 C 276.03125 161.222656 276.097656 161.226562 276.160156 161.226562 C 276.851562 161.226562 276.886719 160.664062 276.070312 160.554688 C 275.847656 160.523438 275.589844 160.503906 275.320312 160.484375 C 278.5 156.171875 281.09375 151.539062 282.730469 146.910156 C 282.855469 146.9375 282.980469 146.957031 283.101562 146.988281 C 283.191406 147.011719 283.285156 147.023438 283.371094 147.023438 C 283.953125 147.023438 284.46875 146.585938 283.613281 146.367188 C 283.394531 146.3125 283.179688 146.265625 282.964844 146.230469 C 285.808594 137.707031 285.347656 129.234375 279.238281 122.800781 C 273.367188 116.066406 264.585938 112.136719 255.613281 111.882812 C 255.472656 111.878906 255.328125 111.875 255.1875 111.875 C 251.148438 111.875 247.148438 114.042969 243.445312 117.628906 C 242.671875 117.765625 241.8125 118.203125 240.871094 119.039062 C 240.644531 119.242188 241.121094 119.496094 241.59375 119.570312 C 238.761719 122.757812 236.148438 126.75 233.863281 131.1875 C 233.230469 131.375 232.601562 131.757812 232.039062 132.296875 C 231.800781 132.53125 232.503906 132.835938 233.023438 132.835938 L 233.039062 132.835938 M 235.085938 187.070312 C 226.355469 186.578125 223.320312 175.464844 222.824219 168.566406 C 223.933594 146.558594 234.144531 109.535156 256.902344 109.535156 C 260.03125 109.535156 263.398438 110.238281 267.011719 111.773438 C 275.339844 115.734375 285.308594 121.886719 285.511719 132.398438 C 292.816406 151.039062 261.339844 186.734375 235.085938 187.070312 " fill-opacity="1" fill-rule="nonzero"/><path fill="#a6a6a6" d="M 270.535156 157.425781 C 271.113281 155.847656 271.605469 154.671875 270.179688 153.449219 C 267.949219 151.527344 262.519531 156.300781 261.351562 153.304688 C 260.636719 151.464844 262.28125 149.230469 261.847656 147.277344 C 261.421875 145.34375 258.1875 145.113281 256.703125 145.484375 C 254.621094 145.996094 251.964844 148.242188 249.910156 146.363281 C 248.4375 145.019531 249 142.871094 248.882812 141.128906 C 248.695312 138.324219 244.828125 138.296875 242.84375 138.863281 C 242.078125 139.085938 241.367188 139.488281 240.621094 139.765625 C 239.3125 140.25 238.574219 138.480469 238.292969 137.535156 C 237.847656 136.03125 237.667969 134.476562 237.121094 133 C 236.472656 131.261719 235.171875 130.796875 233.863281 131.1875 C 233.230469 131.375 232.601562 131.757812 232.039062 132.296875 C 231.796875 132.535156 232.523438 132.839844 233.039062 132.835938 C 233.207031 132.832031 233.351562 132.796875 233.4375 132.714844 C 235.320312 130.902344 235.726562 132.855469 236.179688 134.601562 C 236.496094 135.824219 236.539062 137.359375 237.234375 138.441406 C 239.105469 141.347656 241.03125 140.53125 243.808594 139.511719 C 247.742188 138.0625 247.398438 141.058594 247.390625 143.304688 C 247.390625 144.710938 247.90625 146.132812 249.109375 146.957031 C 251.925781 148.894531 254.441406 147.140625 257.257812 146.226562 C 261.457031 144.871094 260.28125 149.121094 259.878906 151.34375 C 259.554688 153.105469 260.207031 154.503906 262.097656 154.785156 C 263.371094 154.976562 264.640625 154.898438 265.878906 154.546875 C 266.679688 154.324219 268.5 153.265625 269.289062 153.945312 C 270.238281 154.761719 269.40625 156.316406 269.054688 157.171875 C 267.457031 161.078125 272.125 161.039062 274.832031 161.136719 C 275.269531 161.15625 275.660156 161.175781 275.960938 161.214844 C 276.835938 161.332031 276.960938 160.675781 276.070312 160.554688 C 275.847656 160.523438 275.589844 160.503906 275.320312 160.484375 C 273.023438 160.339844 269.425781 160.449219 270.535156 157.425781 " fill-opacity="1" fill-rule="nonzero"/><path fill="#a6a6a6" d="M 279.046875 146.238281 C 274.492188 146.695312 275.324219 143.605469 274.941406 140.910156 C 274.597656 138.472656 273.34375 136.835938 270.894531 136.398438 C 268.378906 135.949219 265.871094 137.140625 263.351562 136.78125 C 258.835938 136.140625 261.628906 130.507812 259.78125 128.03125 C 258.367188 126.132812 255.761719 126.316406 253.898438 127.230469 C 252.253906 128.042969 251.039062 128.625 250.097656 126.714844 C 249.539062 125.578125 249.183594 124.332031 248.773438 123.140625 C 247.746094 120.136719 246.046875 117.171875 243.445312 117.628906 C 242.671875 117.765625 241.8125 118.203125 240.871094 119.039062 C 240.644531 119.242188 241.121094 119.496094 241.59375 119.570312 C 241.863281 119.613281 242.125 119.59375 242.261719 119.472656 C 243.773438 118.132812 245.007812 118.085938 246.019531 119.894531 C 246.578125 120.890625 246.941406 122.007812 247.3125 123.085938 C 247.878906 124.714844 248.355469 127.296875 249.847656 128.390625 C 251.203125 129.386719 252.914062 128.910156 254.300781 128.234375 C 254.949219 127.921875 255.535156 127.574219 256.226562 127.347656 C 258.335938 126.648438 259.152344 129.085938 259.089844 130.429688 C 259.007812 132.140625 258.742188 133.351562 259.554688 134.945312 C 261.988281 139.710938 267.53125 136.210938 271.304688 137.226562 C 274.816406 138.171875 272.386719 142.960938 274.074219 144.988281 C 276.585938 148.015625 279.535156 146.28125 282.730469 146.910156 C 282.855469 146.9375 282.980469 146.957031 283.101562 146.988281 C 283.765625 147.160156 284.597656 146.621094 283.613281 146.367188 C 283.394531 146.3125 283.179688 146.265625 282.964844 146.230469 C 281.652344 146.003906 280.410156 146.101562 279.046875 146.238281 " fill-opacity="1" fill-rule="nonzero"/><path fill="#a6a6a6" d="M 259.988281 168.542969 C 260.136719 167.886719 260.636719 167.328125 260.308594 166.65625 C 259.570312 165.140625 255.792969 165.1875 254.453125 165.296875 C 251.628906 165.53125 251.007812 162.914062 251.203125 160.851562 C 251.265625 160.1875 251.082031 159.808594 250.550781 159.4375 C 248.578125 158.058594 245.570312 159.183594 243.484375 159.425781 C 240.539062 159.765625 242.011719 154.402344 241.316406 152.929688 C 240.589844 151.402344 238.136719 150.714844 236.585938 150.960938 C 234.773438 151.25 233.761719 151.082031 232.945312 149.078125 C 232.449219 147.863281 232.234375 146.597656 231.507812 145.480469 C 230.777344 144.351562 229.519531 144.25 228.398438 144.617188 C 228.007812 144.742188 227.632812 144.925781 227.304688 145.140625 C 226.957031 145.375 227.566406 145.648438 228.0625 145.707031 C 228.261719 145.726562 228.441406 145.71875 228.53125 145.65625 C 230.289062 144.492188 230.8125 146.890625 231.199219 148.109375 C 231.597656 149.375 232.164062 150.363281 233.160156 151.265625 C 234.3125 152.308594 235.820312 151.933594 237.15625 151.617188 C 239.628906 151.035156 240.3125 153.464844 240.191406 155.171875 C 240.121094 156.144531 239.960938 157.054688 240.222656 158.011719 C 240.714844 159.847656 243.160156 160.171875 244.695312 159.992188 C 245.835938 159.863281 249.605469 158.527344 249.742188 160.296875 C 249.820312 161.386719 249.628906 162.234375 249.984375 163.316406 C 250.660156 165.394531 252.605469 166.125 254.585938 165.984375 C 255.867188 165.894531 259.519531 165.660156 258.734375 167.667969 C 258.339844 168.675781 258.34375 169.46875 258.769531 170.460938 C 259.554688 172.273438 261.964844 172.609375 263.894531 172.582031 C 264.332031 172.574219 264.742188 172.550781 265.105469 172.519531 C 265.925781 172.453125 265.203125 172.015625 264.691406 171.910156 C 264.597656 171.890625 264.515625 171.882812 264.445312 171.886719 C 262.199219 172.074219 259.414062 171.183594 259.988281 168.542969 " fill-opacity="1" fill-rule="nonzero"/><path fill="#a6a6a6" d="M 249.703125 178.257812 C 249.144531 177.488281 249.402344 176.351562 249.320312 175.484375 C 249.183594 174.097656 248.527344 173.246094 247.277344 172.679688 C 245.550781 171.898438 243.09375 173.824219 242.757812 170.621094 C 242.574219 168.90625 242.644531 167.425781 241.023438 166.449219 C 239.195312 165.339844 236.261719 167.523438 235.09375 164.804688 C 234.464844 163.34375 234.699219 161.890625 233.136719 160.972656 C 231.765625 160.164062 229.046875 162.09375 228.308594 160.050781 C 227.734375 158.449219 228.042969 157.457031 226.402344 156.507812 C 226.175781 156.378906 225.871094 156.375 225.625 156.449219 C 225.222656 156.574219 224.984375 156.902344 225.511719 157.210938 C 227.089844 158.125 226.523438 160.253906 227.757812 161.496094 C 228.773438 162.519531 230.414062 162.066406 231.621094 161.789062 C 233.257812 161.417969 233.578125 165.257812 234.617188 166.292969 C 235.824219 167.492188 237.605469 167.238281 239.128906 167.101562 C 241.800781 166.871094 241.058594 171.285156 241.949219 172.6875 C 242.671875 173.820312 244.097656 173.929688 245.273438 173.75 C 248.714844 173.226562 247.4375 176.5625 248.34375 178.527344 C 248.835938 179.597656 250.042969 180.082031 251.207031 180.453125 C 251.742188 180.628906 252.273438 180.78125 252.71875 180.957031 C 253.460938 181.253906 254.1875 180.464844 253.269531 180.09375 C 253.050781 180.011719 252.820312 179.933594 252.589844 179.859375 C 251.527344 179.511719 250.386719 179.203125 249.703125 178.257812 " fill-opacity="1" fill-rule="nonzero"/><path fill="#a6a6a6" d="M 120.429688 73.078125 C 120.71875 73.410156 120.96875 73.707031 121.140625 73.957031 C 121.339844 74.230469 121.542969 74.351562 121.6875 74.351562 C 121.929688 74.351562 122.023438 74.039062 121.703125 73.585938 C 121.570312 73.402344 121.414062 73.199219 121.238281 72.992188 C 126.566406 72.378906 131.722656 71.125 136.230469 69.171875 C 136.292969 69.28125 136.363281 69.386719 136.425781 69.496094 C 136.601562 69.816406 136.953125 70.035156 137.171875 70.035156 C 137.367188 70.035156 137.457031 69.867188 137.226562 69.449219 C 137.121094 69.25 137.003906 69.0625 136.886719 68.878906 C 145.066406 65.152344 150.953125 59.046875 151.5 50.191406 C 152.433594 41.304688 149.332031 32.199219 143.40625 25.460938 C 140.671875 22.285156 136.238281 20.738281 130.914062 20.464844 C 130.285156 19.988281 129.382812 19.660156 128.125 19.539062 L 128.101562 19.539062 C 127.828125 19.539062 127.972656 20.042969 128.230469 20.425781 C 123.972656 20.527344 119.265625 21.332031 114.457031 22.679688 C 113.890625 22.347656 113.179688 22.144531 112.40625 22.101562 L 112.390625 22.101562 C 112.070312 22.101562 112.339844 22.828125 112.691406 23.199219 C 108.738281 24.414062 104.742188 25.984375 100.902344 27.824219 C 100.542969 27.628906 100.15625 27.476562 99.773438 27.386719 L 99.695312 27.375 C 99.398438 27.375 99.605469 27.949219 99.882812 28.324219 C 96.527344 29.984375 93.308594 31.847656 90.351562 33.859375 C 90.222656 33.785156 90.09375 33.742188 89.988281 33.742188 C 89.773438 33.742188 89.625 33.898438 89.714844 34.289062 L 89.714844 34.292969 C 80.375 40.789062 73.792969 48.726562 74.246094 56.222656 C 76.148438 62.925781 84.578125 66.46875 90.082031 68.882812 L 90.195312 68.9375 C 90.433594 69.449219 90.6875 69.9375 90.855469 70.382812 C 90.996094 70.738281 91.304688 70.921875 91.558594 70.921875 C 91.84375 70.921875 92.054688 70.6875 91.863281 70.199219 C 91.78125 69.984375 91.679688 69.761719 91.574219 69.542969 C 95.367188 71.121094 99.835938 72.242188 104.605469 72.863281 C 104.90625 73.179688 105.203125 73.464844 105.472656 73.707031 C 105.617188 73.839844 105.71875 73.894531 105.785156 73.894531 C 105.996094 73.894531 105.847656 73.332031 105.636719 72.992188 C 108.1875 73.28125 110.804688 73.429688 113.445312 73.429688 C 115.769531 73.429688 118.113281 73.3125 120.429688 73.078125 M 114.128906 75.375 C 99.164062 75.375 83.242188 70.933594 74.371094 61.636719 C 68.789062 54.910156 74.855469 45.117188 79.574219 40.054688 C 91.585938 29.960938 112.3125 18.0625 128.851562 18.0625 C 138.734375 18.0625 147.117188 22.308594 151.25 33.726562 C 154.027344 42.523438 156.304688 54.015625 148.746094 61.324219 C 144.320312 70.539062 129.746094 75.375 114.128906 75.375 " fill-opacity="1" fill-rule="nonzero"/><path fill="#a6a6a6" d="M 113.53125 26.703125 C 112.855469 27.765625 111.761719 28.84375 111.445312 30.089844 C 110.589844 33.441406 112.5 34.292969 115.140625 35.632812 C 118.875 37.53125 116.449219 39.3125 114.804688 40.839844 C 113.769531 41.796875 113.082031 43.140625 113.292969 44.585938 C 113.792969 47.964844 116.792969 48.613281 119.378906 50.054688 C 123.234375 52.203125 119.320312 54.242188 117.414062 55.460938 C 115.90625 56.421875 115.328125 57.847656 116.410156 59.425781 C 117.136719 60.484375 118.058594 61.363281 119.15625 62.035156 C 119.871094 62.46875 121.882812 63.078125 121.921875 64.121094 C 121.96875 65.371094 120.269531 65.820312 119.402344 66.148438 C 115.453125 67.636719 118.660156 71.03125 120.429688 73.078125 C 120.71875 73.410156 120.96875 73.707031 121.140625 73.957031 C 121.652344 74.679688 122.222656 74.320312 121.703125 73.585938 C 121.570312 73.402344 121.414062 73.199219 121.238281 72.992188 C 119.789062 71.210938 117.253906 68.648438 120.222656 67.402344 C 121.773438 66.75 122.964844 66.3125 122.894531 64.433594 C 122.78125 61.492188 115.585938 60.765625 116.988281 57.871094 C 117.847656 56.097656 120.601562 55.777344 121.734375 54.132812 C 122.859375 52.5 120.824219 49.976562 119.546875 49.140625 C 117.75 47.964844 114.300781 47.554688 114.273438 44.769531 C 114.257812 42.773438 116.210938 41.722656 117.410156 40.449219 C 119.332031 38.402344 116.71875 35.550781 114.949219 34.484375 C 114.265625 34.074219 113.488281 33.828125 112.777344 33.472656 C 111.535156 32.84375 112.328125 31.097656 112.824219 30.25 C 113.621094 28.898438 114.640625 27.710938 115.347656 26.300781 C 116.179688 24.644531 115.632812 23.371094 114.457031 22.679688 C 113.890625 22.347656 113.179688 22.144531 112.40625 22.101562 C 112.066406 22.085938 112.332031 22.824219 112.691406 23.199219 C 112.808594 23.320312 112.933594 23.402344 113.050781 23.410156 C 115.660156 23.550781 114.503906 25.183594 113.53125 26.703125 " fill-opacity="1" fill-rule="nonzero"/><path fill="#a6a6a6" d="M 128.757812 20.851562 C 130.769531 21.046875 131.640625 21.917969 131.007812 23.886719 C 130.660156 24.976562 130.085938 26.007812 129.550781 27.015625 C 128.746094 28.53125 127.175781 30.640625 127.390625 32.476562 C 127.589844 34.148438 129.101562 35.078125 130.539062 35.636719 C 131.210938 35.894531 131.863281 36.089844 132.503906 36.441406 C 134.449219 37.507812 133.222656 39.769531 132.191406 40.636719 C 130.882812 41.738281 129.820312 42.375 129.207031 44.050781 C 127.371094 49.078125 133.710938 50.753906 135.535156 54.210938 C 137.234375 57.425781 132.074219 58.90625 131.738281 61.519531 C 131.234375 65.421875 134.515625 66.398438 136.230469 69.171875 C 136.292969 69.28125 136.363281 69.386719 136.425781 69.496094 C 136.753906 70.097656 137.710938 70.34375 137.226562 69.449219 C 137.121094 69.25 137.003906 69.0625 136.886719 68.878906 C 136.160156 67.765625 135.242188 66.917969 134.207031 66.011719 C 130.773438 62.992188 133.605469 61.5 135.316406 59.382812 C 136.863281 57.46875 137.210938 55.433594 135.863281 53.34375 C 134.480469 51.195312 131.898438 50.171875 130.445312 48.082031 C 127.839844 44.339844 133.867188 42.550781 134.421875 39.511719 C 134.847656 37.179688 132.9375 35.398438 131 34.660156 C 129.285156 34.003906 128.035156 33.511719 128.789062 31.519531 C 129.242188 30.339844 129.910156 29.230469 130.503906 28.117188 C 132.003906 25.320312 133.015625 22.058594 130.914062 20.464844 C 130.285156 19.988281 129.382812 19.660156 128.125 19.539062 C 127.824219 19.507812 127.960938 20.03125 128.230469 20.425781 C 128.382812 20.652344 128.578125 20.835938 128.757812 20.851562 " fill-opacity="1" fill-rule="nonzero"/><path fill="#a6a6a6" d="M 100.234375 28.632812 C 102.28125 29.128906 100.882812 31.144531 100.253906 32.253906 C 99.597656 33.410156 99.257812 34.496094 99.28125 35.839844 C 99.300781 37.394531 100.601562 38.246094 101.742188 39.007812 C 103.851562 40.421875 102.539062 42.574219 101.207031 43.648438 C 100.449219 44.261719 99.671875 44.761719 99.148438 45.605469 C 98.140625 47.21875 99.570312 49.230469 100.746094 50.234375 C 101.617188 50.976562 105.164062 52.828125 103.957031 54.132812 C 103.214844 54.933594 102.464844 55.371094 101.914062 56.367188 C 100.855469 58.277344 101.644531 60.199219 103.09375 61.554688 C 104.03125 62.429688 106.695312 64.945312 104.683594 65.738281 C 103.679688 66.136719 103.101562 66.675781 102.667969 67.667969 C 101.875 69.476562 103.269531 71.46875 104.605469 72.863281 C 104.90625 73.179688 105.203125 73.464844 105.472656 73.707031 C 106.082031 74.265625 105.910156 73.441406 105.636719 72.992188 C 105.589844 72.910156 105.535156 72.84375 105.484375 72.796875 C 103.820312 71.28125 102.574219 68.628906 104.902344 67.257812 C 105.480469 66.914062 106.234375 66.898438 106.5 66.203125 C 107.105469 64.625 104.5 61.890625 103.503906 60.988281 C 101.410156 59.078125 102.90625 56.84375 104.546875 55.578125 C 105.078125 55.171875 105.226562 54.785156 105.140625 54.140625 C 104.804688 51.753906 101.933594 50.320312 100.335938 48.960938 C 98.082031 47.035156 103.011719 44.457031 103.609375 42.945312 C 104.234375 41.375 103.070312 39.113281 101.835938 38.140625 C 100.390625 37.011719 99.824219 36.15625 100.734375 34.191406 C 101.285156 33.003906 102.066406 31.984375 102.390625 30.6875 C 102.71875 29.386719 101.933594 28.394531 100.902344 27.824219 C 100.542969 27.628906 100.15625 27.476562 99.773438 27.386719 C 99.363281 27.289062 99.585938 27.921875 99.882812 28.324219 C 99.996094 28.480469 100.125 28.605469 100.234375 28.632812 " fill-opacity="1" fill-rule="nonzero"/><path fill="#a6a6a6" d="M 88.109375 38.851562 C 88.050781 40.292969 89.5 41.1875 90.523438 41.882812 C 91.914062 42.828125 89.3125 45.675781 89.265625 47.144531 C 89.210938 48.84375 90.613281 49.972656 91.746094 50.996094 C 93.738281 52.796875 89.996094 55.265625 89.578125 56.867188 C 89.242188 58.167969 90.132812 59.285156 91.0625 60.023438 C 93.792969 62.1875 90.480469 63.527344 89.65625 65.527344 C 89.207031 66.617188 89.675781 67.828125 90.195312 68.9375 C 90.433594 69.449219 90.6875 69.9375 90.855469 70.382812 C 91.148438 71.128906 92.222656 71.125 91.863281 70.199219 C 91.78125 69.984375 91.679688 69.761719 91.574219 69.542969 C 91.105469 68.527344 90.554688 67.484375 90.78125 66.339844 C 90.964844 65.40625 91.972656 64.820312 92.550781 64.171875 C 93.472656 63.128906 93.648438 62.0625 93.214844 60.765625 C 92.613281 58.964844 89.527344 58.480469 91.644531 56.050781 C 92.773438 54.75 93.902344 53.792969 93.519531 51.9375 C 93.082031 49.847656 89.488281 49.183594 90.679688 46.480469 C 91.324219 45.023438 92.546875 44.207031 92.15625 42.4375 C 91.8125 40.882812 88.546875 40.207031 89.542969 38.273438 C 90.320312 36.761719 91.257812 36.3125 90.835938 34.460938 C 90.777344 34.207031 90.570312 33.984375 90.351562 33.859375 C 89.988281 33.648438 89.582031 33.695312 89.714844 34.289062 L 89.714844 34.292969 C 90.121094 36.070312 88.171875 37.101562 88.109375 38.851562 " fill-opacity="1" fill-rule="nonzero"/><path fill="#a6a6a6" d="M 0 144.507812 L 0 140.875 C 8.59375 125.296875 12.730469 106.570312 5.292969 98.246094 C 3.730469 97.117188 1.921875 96.488281 0 96.203125 L 0 93.882812 C 0.617188 93.929688 1.230469 93.992188 1.839844 94.074219 C 10.390625 95.894531 11.703125 107.339844 11.140625 114.234375 C 9.285156 123.242188 5.460938 134.59375 0 144.507812 " fill-opacity="1" fill-rule="nonzero"/><path fill="#a6a6a6" d="M 0 235.140625 L 0 232.078125 C 15.484375 217.578125 28.414062 191.300781 20.308594 179.570312 C 17.449219 176.90625 13.332031 176.164062 9.210938 176.164062 C 6.003906 176.164062 2.800781 176.613281 0.191406 176.957031 C 0.128906 176.964844 0.0625 176.972656 0 176.980469 L 0 174.660156 C 2.839844 174.160156 5.648438 173.890625 8.382812 173.890625 C 11.527344 173.890625 14.5625 174.25 17.414062 175.015625 C 25.675781 177.871094 25.519531 189.363281 24.078125 196.125 C 19.828125 208.472656 11.027344 225.015625 0 235.140625 " fill-opacity="1" fill-rule="nonzero"/><path fill="#a6a6a6" d="M 9.679688 186.867188 C 11.238281 186.1875 11.96875 184.417969 11.316406 182.917969 C 10.660156 181.417969 8.863281 180.75 7.308594 181.429688 C 5.75 182.109375 5.019531 183.878906 5.675781 185.378906 C 6.328125 186.882812 8.121094 187.546875 9.679688 186.867188 " fill-opacity="1" fill-rule="nonzero"/><path fill="#a6a6a6" d="M 9.417969 205.503906 C 10.976562 204.820312 11.707031 203.054688 11.050781 201.550781 C 10.398438 200.050781 8.605469 199.386719 7.046875 200.0625 C 5.488281 200.746094 4.757812 202.511719 5.410156 204.015625 C 6.066406 205.515625 7.863281 206.183594 9.417969 205.503906 " fill-opacity="1" fill-rule="nonzero"/></svg>