<svg xmlns="http://www.w3.org/2000/svg" xmlns:xlink="http://www.w3.org/1999/xlink" width="500" zoomAndPan="magnify" viewBox="0 0 375 374.999991" height="500" preserveAspectRatio="xMidYMid meet" version="1.0"><defs><clipPath id="f8f0661c59"><path d="M 70.226562 0.222656 L 304.726562 0.222656 L 304.726562 374.757812 L 70.226562 374.757812 Z M 70.226562 0.222656 " clip-rule="nonzero"/></clipPath><clipPath id="5143b62766"><path d="M 98 357.324219 L 164.753906 357.324219 L 164.753906 374.757812 L 98 374.757812 Z M 98 357.324219 " clip-rule="nonzero"/></clipPath></defs><g clip-path="url(#f8f0661c59)"><path fill="#ffaeeb" d="M 303.84375 83.097656 C 302.375 77.949219 298.890625 73.277344 294.601562 70.113281 C 284.507812 62.664062 270.574219 62.398438 258.722656 64.746094 C 247.199219 67.023438 236.265625 72.121094 227.25 79.652344 C 226.203125 78.019531 225.0625 76.445312 223.820312 74.957031 C 221.121094 71.726562 218.058594 68.960938 214.601562 66.78125 C 218.640625 58.726562 223.714844 51.140625 230.5625 45.289062 C 235.664062 40.925781 241.636719 38.25 247.421875 34.980469 C 253.074219 31.789062 258.488281 27.351562 260.679688 21.015625 C 262.769531 14.953125 261.339844 8.464844 256.273438 4.347656 C 251.617188 0.566406 245.273438 -0.597656 239.507812 0.78125 C 233.027344 2.335938 227.617188 6.371094 222.941406 10.976562 C 218.308594 15.546875 214.394531 20.800781 211.171875 26.449219 C 205.050781 37.191406 201.746094 49.496094 201.585938 61.855469 C 196.191406 60.976562 190.585938 61.246094 185.230469 62.089844 C 178.078125 63.214844 170.988281 65.128906 164.152344 67.496094 C 160.71875 68.6875 157.304688 70.070312 154.046875 71.730469 C 153.792969 71.84375 153.539062 71.957031 153.292969 72.070312 C 152.152344 72.597656 151.027344 73.140625 149.90625 73.699219 C 149.136719 74.039062 148.363281 74.386719 147.605469 74.742188 C 147.21875 74.921875 146.859375 75.15625 146.535156 75.425781 C 146.046875 75.695312 145.570312 75.96875 145.09375 76.257812 C 144.464844 76.609375 143.835938 76.96875 143.214844 77.339844 C 142.941406 77.503906 142.699219 77.714844 142.492188 77.953125 C 138.429688 80.824219 134.96875 84.394531 132.570312 88.894531 C 129.1875 95.238281 128.902344 102.652344 130.699219 109.515625 C 132.378906 115.941406 136.023438 121.617188 140.402344 126.539062 C 129.566406 132.617188 121.140625 136.011719 109.359375 147.789062 C 104.4375 152.710938 99.546875 159.714844 96.855469 166.816406 C 96.574219 167.558594 96.3125 168.296875 96.085938 169.039062 C 94.480469 167.625 92.746094 166.28125 90.875 165.203125 C 88.425781 163.792969 85.863281 163.066406 83.480469 163.066406 C 82.296875 163.066406 81.160156 163.242188 80.105469 163.609375 C 77.046875 164.667969 74.382812 166.929688 72.609375 169.980469 C 71.625 171.671875 70.949219 173.511719 70.609375 175.449219 C 70.25 177.292969 70.144531 179.328125 70.289062 181.507812 C 70.542969 185.226562 71.207031 188.996094 72.265625 192.703125 C 74.207031 199.503906 77.464844 206.113281 81.6875 211.828125 C 86.792969 218.738281 92.273438 223.933594 97.980469 227.265625 C 99.328125 228.050781 100.667969 228.667969 101.996094 229.128906 C 101.589844 229.757812 101.191406 230.390625 100.796875 231.027344 C 98.308594 235.015625 95.988281 239.117188 93.832031 243.292969 C 93.160156 244.582031 92.511719 245.878906 91.878906 247.183594 C 90.417969 250.171875 89.046875 253.199219 87.753906 256.261719 C 87.0625 257.902344 86.390625 259.550781 85.75 261.203125 C 84.289062 264.941406 82.957031 268.726562 81.738281 272.539062 C 81.558594 273.085938 81.382812 273.632812 81.214844 274.179688 C 79.859375 278.5625 78.636719 283 77.601562 287.476562 C 77.027344 289.96875 76.507812 292.46875 76.054688 294.980469 C 75.84375 296.140625 75.648438 297.296875 75.46875 298.464844 C 75.328125 299.367188 75.199219 300.273438 75.074219 301.175781 C 74.636719 304.394531 74.3125 307.628906 74.152344 310.867188 C 74.0625 312.730469 74.03125 314.597656 74.058594 316.457031 C 74.09375 318.757812 74.222656 321.054688 74.476562 323.34375 C 74.738281 325.746094 75.117188 328.136719 75.628906 330.488281 C 75.851562 331.535156 76.101562 332.570312 76.378906 333.597656 C 77.421875 337.46875 78.855469 341.21875 80.75 344.773438 C 81.136719 345.503906 81.542969 346.230469 81.96875 346.945312 C 82.160156 347.257812 82.355469 347.566406 82.546875 347.875 C 84.875 351.539062 87.679688 354.847656 90.84375 357.789062 C 92.085938 358.945312 93.386719 360.046875 94.734375 361.09375 C 95.441406 361.640625 96.164062 362.175781 96.898438 362.691406 C 97.332031 363.003906 97.773438 363.300781 98.21875 363.59375 C 109.871094 371.339844 124.320312 374.925781 138.214844 374.753906 C 146.441406 374.652344 154.648438 373.246094 162.1875 369.886719 C 162.917969 369.558594 163.636719 369.210938 164.339844 368.839844 C 165.324219 368.324219 166.289062 367.769531 167.21875 367.171875 C 168.589844 366.292969 169.90625 365.328125 171.152344 364.285156 C 174.402344 361.582031 177.207031 358.355469 179.472656 354.734375 C 180.46875 353.144531 181.351562 351.507812 182.144531 349.828125 C 182.613281 348.832031 183.046875 347.816406 183.453125 346.789062 C 184.691406 343.648438 185.644531 340.382812 186.359375 337.058594 C 186.582031 336.042969 186.777344 335.023438 186.957031 333.992188 C 187.105469 333.136719 187.238281 332.277344 187.363281 331.414062 C 187.910156 327.609375 188.210938 323.753906 188.371094 319.925781 C 188.417969 318.722656 188.453125 317.519531 188.476562 316.316406 C 188.503906 314.769531 188.519531 313.234375 188.515625 311.707031 C 188.515625 311.570312 188.515625 311.429688 188.515625 311.285156 C 188.507812 309.105469 188.46875 306.921875 188.398438 304.738281 C 188.355469 303.570312 188.308594 302.398438 188.25 301.230469 C 188.097656 298.164062 187.875 295.097656 187.570312 292.039062 C 187.367188 289.945312 187.125 287.855469 186.847656 285.773438 C 186.105469 280.242188 185.097656 274.746094 183.78125 269.332031 C 183.503906 268.191406 183.214844 267.058594 182.910156 265.925781 C 182.707031 265.179688 182.507812 264.4375 182.292969 263.699219 C 181.609375 261.3125 180.855469 258.945312 180.035156 256.59375 C 179.644531 255.46875 179.238281 254.339844 178.808594 253.222656 C 178.003906 251.109375 177.140625 249.011719 176.21875 246.945312 C 175.722656 245.832031 175.207031 244.726562 174.671875 243.628906 C 173.941406 242.121094 173.175781 240.625 172.382812 239.152344 C 172.40625 238.996094 172.421875 238.839844 172.425781 238.675781 L 172.425781 238.535156 C 172.4375 238.144531 172.355469 237.777344 172.179688 237.441406 C 172.066406 237.085938 171.867188 236.78125 171.589844 236.523438 C 171.335938 236.242188 171.027344 236.046875 170.675781 235.933594 C 170.628906 235.910156 170.578125 235.890625 170.527344 235.867188 C 169.566406 234.234375 168.566406 232.625 167.519531 231.042969 C 166.945312 230.179688 166.359375 229.328125 165.761719 228.488281 C 169.527344 229.523438 173.828125 228.816406 177.644531 226.445312 C 181.71875 223.914062 185.011719 220.042969 187.425781 216.953125 C 193.167969 209.601562 197.285156 201.457031 199.660156 192.730469 C 200.945312 188.015625 201.6875 183.441406 201.867188 179.148438 C 202.09375 173.636719 200.761719 169.152344 197.902344 165.816406 C 195.710938 163.257812 192.542969 161.863281 189.246094 161.863281 C 188.027344 161.863281 186.792969 162.050781 185.585938 162.445312 C 182.589844 163.421875 179.894531 165.230469 177.496094 167.238281 C 177.382812 166.378906 177.289062 165.515625 177.210938 164.652344 C 176.871094 160.976562 176.820312 157.246094 177.203125 153.378906 C 177.234375 153.097656 177.265625 152.8125 177.296875 152.53125 C 178.609375 153.140625 179.925781 153.722656 181.253906 154.289062 C 188.695312 157.445312 196.46875 160.242188 204.601562 160.714844 C 211.40625 161.109375 218.6875 159.449219 224.023438 155.039062 C 229.898438 150.183594 233.210938 143.257812 235.0625 135.980469 C 236.832031 129.019531 237.398438 121.644531 237.132812 114.480469 C 236.882812 107.804688 235.855469 100.855469 233.851562 94.238281 C 234.003906 94.160156 234.152344 94.070312 234.289062 93.957031 C 242.875 86.847656 254.90625 87.453125 265.046875 90.558594 C 271.441406 92.519531 277.515625 95.386719 283.667969 97.980469 C 288.710938 100.101562 295.136719 102.980469 300.273438 99.511719 C 305.375 96.058594 305.355469 88.378906 303.84375 83.097656 " fill-opacity="1" fill-rule="nonzero"/></g><path fill="#58595b" d="M 140.773438 207.5625 C 140.453125 200.910156 139.792969 194.25 139.050781 187.671875 C 137.824219 176.792969 136.058594 165.976562 133.765625 155.273438 C 133.46875 153.894531 131.359375 154.480469 131.65625 155.855469 C 131.738281 156.234375 131.8125 156.613281 131.890625 156.992188 C 135.339844 173.371094 137.542969 189.996094 138.445312 206.707031 C 138.5 207.6875 138.550781 208.671875 138.59375 209.652344 C 138.730469 212.644531 138.898438 215.6875 138.753906 218.695312 C 138.6875 220.101562 138.550781 221.5 138.308594 222.886719 C 137.945312 225.011719 136.320312 231.757812 132.773438 229.394531 C 131.414062 228.492188 130.746094 226.71875 130.191406 225.257812 C 129.449219 223.296875 128.769531 221.3125 128.148438 219.308594 C 127.914062 218.546875 127.6875 217.777344 127.464844 217.011719 C 126.527344 213.734375 125.734375 210.410156 125.050781 207.070312 C 125.03125 206.953125 125.003906 206.839844 124.980469 206.726562 C 123.0625 197.230469 122.023438 187.589844 120.992188 177.964844 C 120.949219 177.539062 120.710938 177.246094 120.40625 177.078125 C 119.722656 176.703125 118.703125 176.996094 118.804688 177.964844 C 119.699219 186.34375 120.605469 194.738281 122.066406 203.039062 C 121.925781 202.636719 121.777344 202.234375 121.617188 201.835938 C 118.789062 194.675781 114.710938 187.519531 109.496094 180.574219 C 106.816406 177 104.214844 173.949219 101.550781 171.246094 C 100.066406 169.742188 98.507812 168.222656 96.855469 166.816406 C 96.574219 167.558594 96.3125 168.296875 96.085938 169.039062 C 97.488281 170.277344 98.792969 171.566406 99.992188 172.78125 C 102.589844 175.417969 105.125 178.394531 107.746094 181.886719 C 112.84375 188.679688 116.824219 195.660156 119.582031 202.640625 C 120.121094 204.007812 120.835938 206.109375 121.292969 208.59375 C 121.679688 210.695312 121.878906 213.0625 121.632812 215.492188 C 122.339844 215.707031 123.050781 215.90625 123.765625 216.101562 C 123.921875 214.785156 123.96875 213.429688 123.90625 212.042969 C 124.257812 213.511719 124.632812 214.980469 125.035156 216.4375 C 125.261719 217.265625 125.496094 218.097656 125.742188 218.921875 C 126.402344 221.125 127.132812 223.304688 127.9375 225.460938 C 128.5625 227.128906 129.21875 228.804688 130.394531 230.171875 C 131.492188 231.445312 133.089844 232.21875 134.785156 231.941406 C 136.4375 231.667969 137.699219 230.457031 138.558594 229.082031 C 140.378906 226.179688 140.824219 222.359375 140.9375 218.84375 C 140.960938 218.066406 140.972656 217.308594 140.972656 216.578125 C 140.992188 213.578125 140.917969 210.570312 140.773438 207.5625 " fill-opacity="1" fill-rule="nonzero"/><path fill="#58595b" d="M 177.210938 164.652344 C 175.554688 165.941406 174.035156 167.339844 172.648438 168.691406 C 172.085938 169.238281 171.53125 169.800781 170.988281 170.375 C 171.425781 165.757812 171.859375 161.144531 172.296875 156.53125 C 172.425781 155.128906 170.238281 155.136719 170.105469 156.53125 C 170.042969 157.191406 169.980469 157.855469 169.921875 158.519531 C 169.460938 163.378906 169 168.242188 168.539062 173.101562 C 168.417969 174.425781 168.292969 175.746094 168.167969 177.066406 C 167.476562 184.394531 166.78125 191.722656 166.09375 199.050781 C 165.847656 201.625 165.605469 204.203125 165.363281 206.78125 C 165.054688 210.070312 164.746094 213.355469 164.433594 216.644531 C 164.339844 217.609375 164.253906 218.566406 164.160156 219.53125 C 164.132812 219.8125 164.105469 220.101562 164.074219 220.390625 C 163.917969 221.933594 163.703125 223.5625 163.21875 225.066406 C 163.003906 225.726562 162.742188 226.367188 162.402344 226.960938 C 162.042969 227.601562 161.601562 228.183594 161.058594 228.699219 C 160.882812 228.863281 160.699219 229.023438 160.5 229.171875 C 159.289062 230.089844 157.664062 230.671875 156.160156 230.199219 C 154.792969 229.769531 153.894531 228.640625 153.292969 227.398438 C 152.039062 224.796875 151.796875 221.640625 151.585938 218.710938 C 151.550781 218.167969 151.511719 217.632812 151.46875 217.109375 C 151.359375 215.730469 151.273438 214.355469 151.207031 212.972656 C 150.828125 204.945312 151.128906 196.894531 151.4375 188.871094 C 151.453125 188.414062 151.238281 188.109375 150.9375 187.949219 C 150.304688 187.609375 149.285156 187.917969 149.25 188.871094 C 148.960938 196.382812 148.675781 203.917969 148.957031 211.4375 C 149.011719 212.972656 149.089844 214.507812 149.203125 216.035156 C 149.257812 216.839844 149.308594 217.804688 149.382812 218.851562 C 149.792969 224.574219 150.898438 232.890625 157.550781 232.546875 C 159.730469 232.433594 161.597656 231.347656 162.996094 229.796875 C 163.496094 229.246094 163.933594 228.632812 164.304688 227.980469 C 164.46875 227.695312 164.621094 227.402344 164.757812 227.101562 C 164.84375 226.917969 164.921875 226.734375 164.992188 226.550781 C 165.632812 224.925781 165.996094 223.191406 166.226562 221.421875 C 166.46875 219.589844 166.570312 217.726562 166.707031 215.917969 C 166.746094 215.394531 166.789062 214.875 166.835938 214.363281 C 167.425781 208.113281 168.015625 201.863281 168.605469 195.613281 C 168.871094 192.835938 169.128906 190.0625 169.394531 187.285156 C 169.808594 182.863281 170.230469 178.4375 170.644531 174.011719 C 171.777344 172.699219 172.953125 171.445312 174.175781 170.257812 C 175.207031 169.257812 176.3125 168.222656 177.496094 167.238281 C 177.382812 166.378906 177.289062 165.515625 177.210938 164.652344 " fill-opacity="1" fill-rule="nonzero"/><path fill="#58595b" d="M 177.511719 91.914062 C 176.414062 91.855469 175.34375 91.996094 174.308594 92.296875 C 174.121094 90.9375 173.609375 89.660156 172.761719 88.621094 C 173.539062 87.105469 174.324219 85.585938 175.101562 84.066406 C 175.8125 82.6875 173.703125 81.503906 172.992188 82.886719 C 172.28125 84.273438 171.570312 85.65625 170.859375 87.039062 C 169 85.996094 167.03125 85.90625 165.15625 86.398438 C 165.148438 85.585938 165.140625 84.773438 165.132812 83.960938 C 165.117188 82.40625 162.699219 82.449219 162.714844 84.007812 C 162.726562 85.128906 162.742188 86.246094 162.75 87.363281 C 161.132812 88.230469 159.667969 89.457031 158.503906 90.769531 C 157.472656 91.933594 159.191406 93.628906 160.226562 92.464844 C 162.527344 89.867188 166.296875 87.21875 169.824219 89.230469 C 173.511719 91.339844 171.613281 96.375 170.351562 99.332031 C 170.09375 99.9375 170.207031 100.628906 170.820312 100.976562 C 171.339844 101.273438 172.203125 101.109375 172.460938 100.511719 C 173.234375 98.691406 174.03125 96.808594 174.296875 94.839844 C 175.335938 94.421875 176.4375 94.269531 177.5625 94.328125 C 179.113281 94.40625 179.0625 91.992188 177.511719 91.914062 " fill-opacity="1" fill-rule="nonzero"/><path fill="#58595b" d="M 220.378906 115.929688 C 219.851562 115.636719 219 115.796875 218.734375 116.398438 C 218.453125 117.039062 218.078125 117.546875 217.558594 117.945312 C 217.074219 116.78125 216.335938 115.730469 215.335938 114.957031 C 215.761719 113.382812 216.1875 111.8125 216.613281 110.242188 C 217.015625 108.742188 214.667969 108.164062 214.265625 109.667969 C 213.886719 111.074219 213.503906 112.476562 213.125 113.882812 C 211.496094 113.492188 209.730469 113.789062 208.207031 114.53125 C 208.082031 114 207.957031 113.46875 207.835938 112.933594 C 207.6875 112.300781 206.949219 111.933594 206.34375 112.101562 C 205.6875 112.289062 205.359375 112.957031 205.507812 113.59375 C 205.699219 114.402344 205.886719 115.214844 206.074219 116.023438 C 204.761719 117.253906 203.757812 118.847656 202.933594 120.425781 C 202.214844 121.800781 204.324219 122.980469 205.046875 121.601562 C 205.800781 120.152344 206.679688 118.679688 207.925781 117.601562 C 208.105469 117.519531 208.253906 117.402344 208.367188 117.253906 C 208.558594 117.113281 208.75 116.984375 208.953125 116.867188 C 210.410156 116.023438 212.320312 115.746094 213.761719 116.777344 C 217.238281 119.25 215.546875 124.335938 214.277344 127.492188 C 214.03125 128.101562 214.125 128.785156 214.742188 129.136719 C 215.253906 129.429688 216.140625 129.277344 216.386719 128.671875 C 217.386719 126.175781 218.398438 123.546875 218.21875 120.804688 C 218.210938 120.671875 218.199219 120.542969 218.183594 120.410156 C 218.195312 120.40625 218.210938 120.398438 218.222656 120.394531 C 219.375 119.769531 220.3125 118.777344 220.84375 117.574219 C 221.109375 116.976562 220.984375 116.269531 220.378906 115.929688 " fill-opacity="1" fill-rule="nonzero"/><path fill="#58595b" d="M 185.273438 132.878906 C 182.984375 133.617188 180.277344 132.929688 178.792969 130.964844 C 177.464844 129.214844 177.347656 126.675781 178.378906 124.753906 C 178.273438 124.75 178.171875 124.746094 178.070312 124.746094 C 177.625 124.738281 177.273438 124.570312 177.023438 124.320312 C 176.761719 124.140625 176.566406 123.875 176.5 123.527344 C 176.390625 122.96875 176.300781 122.40625 176.230469 121.84375 C 175.597656 122.070312 174.953125 122.296875 174.304688 122.492188 C 172.351562 123.085938 170.332031 123.4375 168.332031 122.972656 C 167.210938 122.710938 166.132812 122.109375 165.386719 121.269531 C 164.558594 120.34375 164.140625 119.121094 164.523438 117.753906 C 165.058594 115.855469 162.070312 115.152344 161.542969 117.054688 C 160.867188 119.460938 161.710938 121.847656 163.335938 123.554688 C 164.148438 124.410156 165.15625 125.09375 166.265625 125.523438 C 167.582031 126.03125 168.914062 126.230469 170.25 126.222656 C 171.808594 126.210938 173.375 125.90625 174.910156 125.472656 C 174.324219 127.871094 174.667969 130.480469 176.167969 132.550781 C 178.40625 135.632812 182.496094 136.988281 186.128906 135.820312 C 188.007812 135.21875 187.15625 132.273438 185.273438 132.878906 " fill-opacity="1" fill-rule="nonzero"/><path fill="#e2b894" d="M 114.105469 209.578125 C 113.421875 204.394531 111.425781 199.4375 108.246094 195.273438 C 106.589844 193.097656 104.707031 191.199219 102.523438 189.546875 C 100.929688 188.339844 98.878906 187.316406 96.820312 187.253906 C 96.175781 186.929688 95.476562 186.773438 94.769531 186.742188 C 92.96875 186.675781 91.105469 187.503906 89.929688 188.859375 C 87.996094 191.101562 87.90625 194.179688 88.21875 196.972656 C 88.820312 202.351562 90.628906 207.566406 93.65625 212.074219 C 96.527344 216.347656 100.9375 221.539062 106.503906 221.738281 C 106.671875 221.746094 106.84375 221.746094 107.007812 221.742188 C 109.671875 221.664062 112.285156 220.238281 113.449219 217.785156 C 114.097656 216.417969 114.335938 214.917969 114.367188 213.40625 C 114.371094 213.207031 114.371094 213.003906 114.371094 212.800781 C 114.355469 211.714844 114.238281 210.628906 114.105469 209.578125 " fill-opacity="1" fill-rule="nonzero"/><path fill="#e2b894" d="M 90.539062 181.683594 C 90.699219 179.757812 89.90625 177.808594 89.117188 176.097656 C 88.292969 174.316406 87.097656 172.660156 85.722656 171.261719 C 84.148438 169.65625 82.113281 168.167969 79.753906 168.914062 C 79.492188 168.996094 79.246094 169.109375 79.019531 169.242188 C 78.222656 169.535156 77.660156 170.207031 77.414062 171.03125 C 77.011719 171.859375 76.839844 172.820312 76.902344 173.742188 C 77.011719 175.371094 77.566406 176.953125 78.40625 178.410156 C 79.011719 179.851562 79.828125 181.207031 80.828125 182.417969 C 82.117188 183.984375 84.023438 185.757812 86.144531 185.878906 C 88.660156 186.023438 90.339844 184.050781 90.539062 181.683594 " fill-opacity="1" fill-rule="nonzero"/><path fill="#e2b894" d="M 95.953125 172.722656 C 95.949219 172.71875 95.945312 172.71875 95.945312 172.710938 C 95.914062 172.6875 95.882812 172.660156 95.851562 172.632812 C 95.816406 172.601562 95.777344 172.566406 95.738281 172.535156 C 95.660156 172.46875 95.589844 172.398438 95.507812 172.335938 C 95.433594 172.277344 95.355469 172.21875 95.277344 172.164062 C 94.394531 171.550781 93.320312 171.34375 92.324219 171.925781 C 91.371094 172.480469 90.730469 173.808594 91.117188 174.894531 C 91.660156 176.414062 92.203125 177.9375 92.742188 179.460938 C 92.960938 180.082031 93.371094 180.605469 93.882812 180.953125 C 94.078125 181.21875 94.277344 181.480469 94.484375 181.742188 C 94.523438 181.792969 94.566406 181.84375 94.605469 181.894531 C 96.097656 183.703125 99.105469 182.171875 99.089844 180.035156 C 99.074219 177.296875 97.972656 174.585938 95.953125 172.722656 " fill-opacity="1" fill-rule="nonzero"/><path fill="#e2b894" d="M 80.492188 185.6875 C 79.703125 184.996094 78.757812 184.472656 77.675781 184.148438 C 77.292969 184.035156 76.890625 184.027344 76.5 184.109375 C 76.027344 183.914062 75.488281 183.863281 74.90625 184.023438 C 73.671875 184.363281 72.519531 185.9375 73.070312 187.253906 C 74.488281 190.644531 77.257812 192.761719 80.933594 193.128906 C 82.5625 193.289062 84.007812 191.308594 83.464844 189.800781 C 82.835938 188.066406 81.839844 186.710938 80.492188 185.6875 " fill-opacity="1" fill-rule="nonzero"/><path fill="#e2b894" d="M 184.808594 190.878906 C 183.960938 189.769531 182.890625 189.09375 181.726562 188.769531 C 179.878906 188.253906 177.796875 188.628906 176 189.585938 C 173.527344 190.445312 171.457031 192.398438 169.710938 194.328125 C 169.332031 194.746094 168.96875 195.179688 168.605469 195.613281 C 168.015625 201.863281 167.425781 208.113281 166.835938 214.363281 C 166.789062 214.875 166.746094 215.394531 166.707031 215.917969 C 166.570312 217.726562 166.46875 219.589844 166.226562 221.421875 C 166.460938 221.480469 166.699219 221.527344 166.945312 221.566406 C 170.601562 222.089844 173.855469 219.78125 176.304688 217.324219 C 178.660156 214.953125 180.707031 212.21875 182.300781 209.28125 C 183.898438 206.339844 185.117188 203.152344 185.820312 199.878906 C 186.453125 196.914062 186.761719 193.441406 184.808594 190.878906 " fill-opacity="1" fill-rule="nonzero"/><path fill="#e2b894" d="M 186.671875 184.1875 C 189.894531 182.609375 192.464844 179.242188 193.84375 176.011719 C 194.527344 174.414062 195.210938 172.558594 195.066406 170.789062 C 194.851562 168.210938 192.527344 166.292969 189.960938 167.351562 C 189.847656 167.398438 189.734375 167.449219 189.621094 167.507812 C 186.507812 168.300781 184.636719 172.03125 183.386719 174.917969 C 183.253906 175.21875 183.113281 175.527344 182.96875 175.847656 C 182.53125 176.746094 182.132812 177.667969 181.773438 178.609375 C 181.683594 178.84375 181.648438 179.082031 181.648438 179.324219 C 181.503906 179.914062 181.414062 180.503906 181.425781 181.078125 C 181.480469 183.875 184.210938 185.394531 186.671875 184.1875 " fill-opacity="1" fill-rule="nonzero"/><path fill="#e2b894" d="M 191.246094 183.117188 C 190.605469 183.75 190.082031 184.492188 189.730469 185.308594 C 189.277344 186.359375 189.210938 187.644531 190.140625 188.496094 C 191.050781 189.328125 192.230469 189.433594 193.320312 188.90625 C 193.96875 188.59375 194.550781 188.191406 195.066406 187.730469 C 196.179688 187.003906 197.128906 186.085938 197.929688 184.914062 C 198.519531 184.050781 198.324219 182.769531 197.722656 181.992188 C 197.289062 181.429688 196.679688 181.097656 196.011719 181.003906 C 195.253906 180.660156 194.421875 180.75 193.621094 181.117188 C 192.683594 181.546875 191.855469 182.269531 191.246094 183.117188 " fill-opacity="1" fill-rule="nonzero"/><path fill="#e2b894" d="M 180.128906 173.777344 C 179.964844 172.730469 179.152344 172.121094 178.21875 171.953125 C 177.128906 171.746094 175.875 172.144531 175.328125 173.148438 C 175.328125 173.152344 175.328125 173.15625 175.324219 173.164062 C 174.949219 173.496094 174.652344 173.941406 174.457031 174.441406 C 173.914062 175.820312 173.664062 177.285156 173.675781 178.753906 C 173.632812 179.453125 173.648438 180.160156 173.730469 180.867188 C 173.796875 181.433594 173.988281 181.972656 174.292969 182.414062 C 175.152344 184.105469 178.023438 184.589844 178.929688 182.617188 C 179.335938 181.734375 179.652344 180.847656 179.878906 179.953125 C 180.390625 177.957031 180.46875 175.917969 180.128906 173.777344 " fill-opacity="1" fill-rule="nonzero"/><path fill="#e2b894" d="M 177.023438 124.320312 C 177.273438 124.570312 177.625 124.738281 178.070312 124.746094 C 178.171875 124.746094 178.273438 124.75 178.378906 124.753906 C 180.5625 124.804688 183.425781 124.929688 184.855469 123.039062 C 186.230469 121.230469 185.222656 119.449219 183.820312 118.167969 C 183.707031 117.898438 183.503906 117.65625 183.195312 117.46875 C 181.464844 116.417969 178.15625 113.574219 176.578125 116.367188 C 176.03125 117.332031 176.074219 118.628906 176.082031 119.703125 C 176.082031 120.421875 176.140625 121.132812 176.230469 121.84375 C 176.300781 122.40625 176.390625 122.96875 176.5 123.527344 C 176.566406 123.875 176.761719 124.140625 177.023438 124.320312 " fill-opacity="1" fill-rule="nonzero"/><path fill="#e2b894" d="M 206.238281 60.851562 C 206.296875 60.898438 206.355469 60.933594 206.414062 60.976562 C 206.542969 61.179688 206.722656 61.359375 206.929688 61.503906 C 207.75 62.066406 208.570312 62.632812 209.386719 63.199219 C 209.445312 63.277344 209.507812 63.347656 209.582031 63.417969 C 210.125 63.910156 210.773438 64.277344 211.496094 64.414062 C 212.125 64.53125 212.824219 64.28125 213.164062 63.742188 C 213.199219 63.710938 213.230469 63.675781 213.261719 63.640625 C 213.527344 63.355469 213.671875 62.964844 213.683594 62.574219 C 213.699219 62.527344 213.714844 62.480469 213.726562 62.429688 C 215.582031 53.964844 220.328125 46.359375 227.148438 41.003906 C 233.34375 36.136719 240.992188 32.558594 245.101562 25.511719 C 246.957031 22.335938 247.902344 18.09375 245.089844 15.148438 C 242.421875 12.363281 237.976562 12.25 234.476562 13.128906 C 226.058594 15.238281 220.886719 23.003906 216.847656 30.089844 C 211.71875 39.082031 207.921875 48.828125 205.5625 58.90625 C 205.558594 58.925781 205.558594 58.945312 205.554688 58.960938 C 205.261719 59.6875 205.625 60.40625 206.238281 60.851562 " fill-opacity="1" fill-rule="nonzero"/><path fill="#e2b894" d="M 283.101562 73.90625 C 275.445312 70.511719 266.476562 69.707031 258.214844 70.644531 C 249 71.683594 240.074219 74.972656 232.519531 80.371094 C 231.707031 80.953125 231.707031 81.921875 232.117188 82.582031 C 232.125 82.605469 232.128906 82.625 232.136719 82.648438 C 232.324219 83.144531 232.511719 83.636719 232.699219 84.128906 C 232.996094 85.066406 233.289062 86 233.582031 86.9375 C 233.839844 87.761719 234.558594 88.066406 235.230469 87.984375 C 235.578125 88.089844 235.972656 88.058594 236.382812 87.816406 C 243.804688 83.417969 252.765625 82.359375 261.222656 83.460938 C 266.203125 84.109375 271.074219 85.417969 275.8125 87.050781 C 278.257812 87.894531 280.667969 88.824219 283.058594 89.804688 C 284.886719 90.554688 286.765625 91.472656 288.789062 91.472656 C 290.761719 91.472656 292.574219 90.425781 293.347656 88.578125 C 294.183594 86.582031 293.71875 84.285156 292.796875 82.402344 C 290.867188 78.457031 287.023438 75.644531 283.101562 73.90625 " fill-opacity="1" fill-rule="nonzero"/><path fill="#ff66c4" d="M 168.3125 317.316406 C 167.023438 319.332031 164.710938 320.21875 162.394531 319.769531 C 160.132812 319.332031 158.332031 317.269531 158.246094 314.964844 C 158.230469 314.546875 158.265625 314.144531 158.339844 313.761719 C 158.359375 313.4375 158.402344 313.113281 158.480469 312.792969 C 159.582031 308.160156 165.882812 307.371094 168.398438 311.265625 C 169.585938 313.105469 169.476562 315.5 168.3125 317.316406 Z M 105.378906 318.082031 C 104.773438 317.730469 104.273438 317.28125 103.871094 316.769531 C 103.363281 316.226562 102.960938 315.574219 102.714844 314.832031 C 102.050781 312.8125 102.640625 310.457031 104.15625 308.96875 C 107.207031 305.976562 112.710938 307.746094 113.75 311.785156 C 114.933594 316.375 109.445312 320.433594 105.378906 318.082031 Z M 121.070312 302.621094 C 105.738281 302.140625 90.40625 301.660156 75.074219 301.175781 C 74.636719 304.394531 74.3125 307.628906 74.152344 310.867188 C 76.449219 309.589844 79.015625 308.792969 81.75 308.617188 C 84.914062 308.421875 88.214844 309.167969 90.925781 310.820312 C 93.113281 312.152344 94.925781 314.007812 96.582031 315.933594 C 99.484375 319.3125 102.589844 324.175781 107.386719 324.363281 C 113.804688 324.621094 118.429688 319.128906 122.5625 315.011719 C 127.09375 310.5 132.875 306.15625 139.660156 307.113281 C 145.71875 307.964844 149.347656 313.1875 152.382812 317.976562 C 154.839844 321.84375 158.648438 327.660156 164.054688 326.234375 C 167.0625 325.445312 169.316406 323.09375 171.375 320.902344 C 173.488281 318.652344 175.601562 316.390625 178.269531 314.785156 C 181.367188 312.929688 184.910156 311.917969 188.515625 311.707031 C 188.515625 311.570312 188.515625 311.429688 188.515625 311.285156 C 188.507812 309.105469 188.46875 306.921875 188.398438 304.738281 L 169.816406 304.152344 C 153.566406 303.644531 137.320312 303.132812 121.070312 302.621094 " fill-opacity="1" fill-rule="nonzero"/><path fill="#ff66c4" d="M 103.609375 234.277344 C 107.28125 234.277344 107.273438 239.972656 103.609375 239.972656 C 99.945312 239.972656 99.949219 234.277344 103.609375 234.277344 Z M 116.441406 241.328125 C 120.105469 241.328125 120.101562 247.019531 116.441406 247.019531 C 112.769531 247.019531 112.777344 241.328125 116.441406 241.328125 Z M 128.417969 236.253906 C 132.089844 236.253906 132.082031 241.945312 128.417969 241.945312 C 124.753906 241.945312 124.757812 236.253906 128.417969 236.253906 Z M 145.757812 235.832031 C 149.425781 235.832031 149.417969 241.519531 145.757812 241.519531 C 142.089844 241.519531 142.09375 235.832031 145.757812 235.832031 Z M 156.300781 244.457031 C 156.300781 243.941406 156.433594 243.460938 156.691406 243.019531 C 156.839844 242.828125 156.988281 242.636719 157.136719 242.441406 C 157.492188 242.089844 157.910156 241.847656 158.390625 241.710938 C 158.644531 241.679688 158.894531 241.644531 159.148438 241.609375 C 159.539062 241.59375 159.90625 241.675781 160.242188 241.855469 C 160.597656 241.96875 160.902344 242.164062 161.160156 242.441406 C 161.4375 242.699219 161.632812 243.007812 161.75 243.359375 C 161.925781 243.699219 162.007812 244.0625 161.992188 244.457031 L 161.992188 244.59375 C 161.992188 245.109375 161.863281 245.589844 161.605469 246.03125 C 161.457031 246.222656 161.308594 246.414062 161.160156 246.609375 C 160.804688 246.960938 160.386719 247.203125 159.902344 247.339844 C 159.652344 247.371094 159.398438 247.40625 159.148438 247.441406 C 158.757812 247.457031 158.390625 247.375 158.050781 247.199219 C 157.699219 247.082031 157.394531 246.886719 157.136719 246.609375 C 156.859375 246.347656 156.660156 246.046875 156.546875 245.691406 C 156.367188 245.351562 156.285156 244.984375 156.300781 244.59375 Z M 103.898438 244.65625 C 109.136719 246.777344 113.390625 250.90625 115.699219 256.011719 C 117.519531 253.398438 119.808594 251.121094 122.40625 249.246094 C 129.113281 244.414062 137.875 242.765625 145.808594 245.199219 C 152.148438 247.136719 157.589844 251.292969 161.148438 256.785156 C 163.023438 252.527344 165.433594 248.46875 169.347656 245.8125 C 170.984375 244.703125 172.796875 243.980469 174.671875 243.628906 C 173.941406 242.121094 173.175781 240.625 172.382812 239.152344 C 172.324219 239.488281 172.210938 239.808594 172.035156 240.113281 C 171.886719 240.300781 171.738281 240.496094 171.589844 240.6875 C 171.234375 241.042969 170.816406 241.285156 170.335938 241.417969 C 170.085938 241.453125 169.832031 241.484375 169.578125 241.519531 C 169.1875 241.535156 168.820312 241.453125 168.480469 241.277344 C 168.128906 241.160156 167.824219 240.964844 167.566406 240.6875 C 167.289062 240.433594 167.09375 240.125 166.980469 239.773438 C 166.800781 239.429688 166.71875 239.070312 166.734375 238.675781 L 166.734375 238.535156 C 166.734375 238.019531 166.863281 237.542969 167.121094 237.097656 C 167.269531 236.90625 167.417969 236.714844 167.566406 236.523438 C 167.921875 236.167969 168.339844 235.925781 168.820312 235.789062 L 169.578125 235.6875 C 169.914062 235.675781 170.230469 235.738281 170.527344 235.867188 C 169.566406 234.234375 168.566406 232.625 167.519531 231.042969 C 166.945312 230.179688 166.359375 229.328125 165.761719 228.488281 C 165.265625 228.347656 164.777344 228.179688 164.304688 227.980469 C 163.933594 228.632812 163.496094 229.246094 162.996094 229.796875 C 161.597656 231.347656 159.730469 232.433594 157.550781 232.546875 C 150.898438 232.890625 149.792969 224.574219 149.382812 218.851562 C 146.574219 218.996094 143.753906 218.992188 140.9375 218.84375 C 140.824219 222.359375 140.378906 226.179688 138.558594 229.082031 C 137.699219 230.457031 136.4375 231.667969 134.785156 231.941406 C 133.089844 232.21875 131.492188 231.445312 130.394531 230.171875 C 129.21875 228.804688 128.5625 227.128906 127.9375 225.460938 C 127.132812 223.304688 126.402344 221.125 125.742188 218.921875 C 125.496094 218.097656 125.261719 217.265625 125.035156 216.4375 C 124.605469 216.332031 124.183594 216.214844 123.765625 216.101562 C 123.050781 215.90625 122.339844 215.707031 121.632812 215.492188 C 121.34375 218.386719 120.417969 221.367188 118.425781 224.070312 C 116.070312 227.257812 113.046875 229.3125 109.917969 229.859375 C 107.351562 230.308594 104.695312 230.058594 101.996094 229.128906 C 101.589844 229.757812 101.191406 230.390625 100.796875 231.027344 C 98.308594 235.015625 95.988281 239.117188 93.832031 243.292969 C 97.234375 242.941406 100.722656 243.367188 103.898438 244.65625 " fill-opacity="1" fill-rule="nonzero"/><path fill="#ff66c4" d="M 102.226562 257.351562 C 109.308594 261.289062 112.785156 268.449219 114.933594 275.929688 C 115.945312 272.078125 117.4375 268.371094 119.71875 265.074219 C 122.707031 260.757812 126.972656 257.265625 132.027344 255.695312 C 137.082031 254.132812 142.453125 254.957031 147.035156 257.519531 C 156.070312 262.566406 160.054688 272.214844 162.9375 281.691406 C 162.953125 277.492188 163.796875 273.285156 165.375 269.394531 C 168.097656 262.691406 172.777344 256.984375 178.808594 253.222656 C 178.003906 251.109375 177.140625 249.011719 176.21875 246.945312 C 174.210938 247.183594 172.253906 247.9375 170.605469 249.195312 C 166.945312 252 164.929688 256.484375 163.273438 260.738281 C 163.332031 260.867188 163.386719 260.992188 163.4375 261.117188 C 163.808594 262 163.039062 263.046875 162.214844 263.273438 C 162.117188 263.300781 162.023438 263.316406 161.933594 263.328125 C 161.542969 263.617188 161.042969 263.730469 160.496094 263.582031 C 159.648438 263.351562 158.9375 262.3125 159.273438 261.429688 C 159.347656 261.230469 159.421875 261.03125 159.503906 260.832031 C 157.925781 257.652344 155.546875 254.859375 152.761719 252.683594 C 147.066406 248.238281 139.566406 246.464844 132.542969 248.296875 C 125.582031 250.109375 119.640625 254.972656 116.578125 261.488281 C 115.667969 263.421875 112.910156 261.921875 113.441406 260.03125 C 111.925781 254.644531 107.914062 249.980469 102.671875 247.910156 C 99.199219 246.546875 95.425781 246.347656 91.878906 247.183594 C 90.417969 250.171875 89.046875 253.199219 87.753906 256.261719 C 88.082031 256.136719 88.417969 256.011719 88.757812 255.902344 C 93.273438 254.433594 98.105469 255.054688 102.226562 257.351562 " fill-opacity="1" fill-rule="nonzero"/><path fill="#ff66c4" d="M 180.625 300.992188 L 188.25 301.230469 C 188.097656 298.164062 187.875 295.097656 187.570312 292.039062 C 186.144531 293.882812 184.714844 295.722656 183.285156 297.5625 C 182.398438 298.703125 181.523438 299.859375 180.625 300.992188 " fill-opacity="1" fill-rule="nonzero"/><path fill="#ff66c4" d="M 176.921875 285.609375 C 180.230469 285.664062 183.539062 285.714844 186.847656 285.773438 C 186.105469 280.242188 185.097656 274.746094 183.78125 269.332031 C 183.121094 269.667969 182.488281 270.074219 181.898438 270.570312 C 177.515625 274.234375 176.78125 280.207031 176.921875 285.609375 " fill-opacity="1" fill-rule="nonzero"/><path fill="#ff66c4" d="M 120.828125 348.625 C 108.066406 348.375 95.308594 348.125 82.546875 347.875 C 84.875 351.539062 87.679688 354.847656 90.84375 357.789062 C 95.605469 355.59375 100.585938 353.847656 105.675781 352.601562 C 118.617188 349.4375 132.246094 349.414062 145.175781 352.667969 C 154.441406 355 163.246094 358.964844 171.152344 364.285156 C 174.402344 361.582031 177.207031 358.355469 179.472656 354.734375 C 180.46875 353.144531 181.351562 351.507812 182.144531 349.828125 C 177.914062 349.746094 173.6875 349.664062 169.460938 349.578125 C 153.25 349.261719 137.039062 348.941406 120.828125 348.625 " fill-opacity="1" fill-rule="nonzero"/><path fill="#ff66c4" d="M 173.835938 339.902344 C 176.800781 339.902344 176.792969 344.5 173.835938 344.5 C 170.875 344.5 170.878906 339.902344 173.835938 339.902344 Z M 162.394531 344.105469 C 159.429688 344.105469 159.433594 339.507812 162.394531 339.507812 C 165.355469 339.507812 165.351562 344.105469 162.394531 344.105469 Z M 153.640625 341.414062 C 153.636719 341.824219 153.535156 342.210938 153.328125 342.570312 C 153.207031 342.726562 153.085938 342.878906 152.964844 343.039062 C 152.683594 343.320312 152.34375 343.515625 151.953125 343.628906 C 151.75 343.652344 151.546875 343.679688 151.339844 343.710938 C 151.027344 343.722656 150.730469 343.65625 150.457031 343.511719 C 150.171875 343.417969 149.925781 343.261719 149.71875 343.039062 C 149.492188 342.828125 149.332031 342.582031 149.242188 342.296875 C 149.097656 342.023438 149.03125 341.726562 149.042969 341.414062 L 149.042969 341.019531 C 149.042969 340.601562 149.152344 340.214844 149.359375 339.855469 C 149.480469 339.703125 149.597656 339.546875 149.71875 339.394531 C 150.003906 339.105469 150.339844 338.910156 150.730469 338.800781 C 150.933594 338.769531 151.140625 338.746094 151.339844 338.71875 C 151.660156 338.703125 151.953125 338.769531 152.226562 338.917969 C 152.511719 339.007812 152.757812 339.167969 152.964844 339.394531 C 153.191406 339.601562 153.351562 339.84375 153.441406 340.132812 C 153.589844 340.40625 153.65625 340.699219 153.640625 341.019531 Z M 138.320312 343.316406 C 135.355469 343.316406 135.363281 338.71875 138.320312 338.71875 C 141.28125 338.71875 141.277344 343.316406 138.320312 343.316406 Z M 125.296875 342.527344 C 122.335938 342.527344 122.339844 337.929688 125.296875 337.929688 C 128.257812 337.929688 128.253906 342.527344 125.296875 342.527344 Z M 114.640625 342.132812 C 111.675781 342.132812 111.683594 337.535156 114.640625 337.535156 C 117.605469 337.535156 117.601562 342.132812 114.640625 342.132812 Z M 103.128906 339.4375 C 103.128906 339.851562 103.023438 340.238281 102.816406 340.597656 C 102.695312 340.753906 102.574219 340.90625 102.457031 341.0625 C 102.167969 341.347656 101.832031 341.546875 101.441406 341.65625 C 101.238281 341.679688 101.03125 341.710938 100.832031 341.734375 C 100.511719 341.75 100.21875 341.683594 99.945312 341.539062 C 99.660156 341.445312 99.414062 341.285156 99.203125 341.0625 C 98.980469 340.855469 98.824219 340.609375 98.730469 340.324219 C 98.582031 340.050781 98.519531 339.753906 98.53125 339.4375 L 98.53125 339.042969 C 98.53125 338.628906 98.636719 338.242188 98.84375 337.882812 C 98.964844 337.726562 99.085938 337.574219 99.203125 337.417969 C 99.492188 337.132812 99.828125 336.9375 100.21875 336.828125 C 100.421875 336.796875 100.625 336.773438 100.832031 336.746094 C 101.144531 336.730469 101.441406 336.796875 101.714844 336.945312 C 102 337.035156 102.246094 337.191406 102.457031 337.417969 C 102.679688 337.625 102.835938 337.875 102.929688 338.160156 C 103.074219 338.429688 103.140625 338.726562 103.128906 339.042969 Z M 90.695312 339.929688 C 90.601562 340.214844 90.445312 340.460938 90.21875 340.667969 C 90.011719 340.890625 89.765625 341.050781 89.480469 341.144531 C 89.207031 341.289062 88.914062 341.351562 88.59375 341.34375 L 88.199219 341.34375 C 87.785156 341.339844 87.398438 341.234375 87.042969 341.027344 C 86.882812 340.90625 86.730469 340.789062 86.574219 340.667969 C 86.289062 340.382812 86.09375 340.042969 85.984375 339.65625 C 85.957031 339.449219 85.929688 339.246094 85.902344 339.042969 C 85.890625 338.726562 85.957031 338.429688 86.101562 338.160156 C 86.191406 337.875 86.351562 337.625 86.574219 337.417969 C 86.785156 337.191406 87.03125 337.035156 87.316406 336.945312 C 87.589844 336.796875 87.882812 336.730469 88.199219 336.746094 L 88.59375 336.746094 C 89.011719 336.746094 89.394531 336.847656 89.757812 337.058594 C 89.910156 337.175781 90.066406 337.296875 90.21875 337.417969 C 90.503906 337.703125 90.703125 338.042969 90.8125 338.433594 C 90.839844 338.636719 90.867188 338.839844 90.894531 339.042969 C 90.90625 339.359375 90.84375 339.65625 90.695312 339.929688 Z M 113.867188 335.363281 C 101.367188 334.875 88.871094 334.285156 76.378906 333.597656 C 77.421875 337.46875 78.855469 341.21875 80.75 344.773438 C 87.054688 344.898438 93.363281 345.023438 99.671875 345.144531 C 115.882812 345.464844 132.09375 345.785156 148.304688 346.101562 C 160.023438 346.328125 171.738281 346.558594 183.453125 346.789062 C 184.691406 343.648438 185.644531 340.382812 186.359375 337.058594 C 181.035156 337.015625 175.707031 336.957031 170.382812 336.878906 C 151.539062 336.601562 132.699219 336.09375 113.867188 335.363281 " fill-opacity="1" fill-rule="nonzero"/><path fill="#ff66c4" d="M 137.757812 330.210938 C 133.789062 331.285156 129.429688 328.039062 129.46875 323.867188 C 129.492188 321.285156 131.046875 319.195312 133.164062 318.179688 C 136.191406 316.011719 140.578125 317.226562 142.199219 320.667969 C 143.988281 324.472656 141.847656 329.109375 137.757812 330.210938 Z M 80.320312 328.601562 C 76.09375 327.136719 74.808594 321.832031 78.164062 318.746094 C 80.332031 316.753906 83.339844 316.996094 85.332031 318.59375 C 86.519531 318.617188 87.671875 319.269531 88.097656 320.746094 C 89.425781 325.371094 85.128906 330.273438 80.320312 328.601562 Z M 175.824219 322.871094 C 171.578125 327.367188 166.386719 332.53125 159.582031 330.660156 C 153.882812 329.089844 150.632812 323.703125 147.628906 319.070312 C 145.019531 315.042969 141.59375 310.726562 136.222656 311.695312 C 130.109375 312.792969 126.125 318.164062 121.882812 322.175781 C 117.355469 326.464844 111.152344 330.292969 104.660156 328.550781 C 99.703125 327.21875 96.601562 323 93.429688 319.296875 C 91.921875 317.539062 90.347656 315.800781 88.359375 314.644531 C 86.058594 313.304688 83.222656 312.886719 80.605469 313.351562 C 78.140625 313.785156 75.921875 314.898438 74.058594 316.457031 C 74.09375 318.757812 74.222656 321.054688 74.476562 323.34375 C 74.738281 325.746094 75.117188 328.136719 75.628906 330.488281 C 80.160156 330.742188 84.691406 330.980469 89.226562 331.210938 C 108.046875 332.140625 126.882812 332.84375 145.71875 333.320312 C 159.464844 333.667969 173.207031 333.890625 186.957031 333.996094 C 187.105469 333.136719 187.238281 332.277344 187.363281 331.414062 C 183.828125 332.128906 180.15625 329.5 180.070312 325.609375 C 180.023438 323.480469 181.097656 321.53125 182.886719 320.394531 C 184.59375 319.3125 186.546875 319.292969 188.371094 319.925781 C 188.417969 318.722656 188.453125 317.519531 188.476562 316.316406 C 186.480469 316.457031 184.527344 316.886719 182.628906 317.695312 C 179.96875 318.828125 177.828125 320.753906 175.824219 322.871094 " fill-opacity="1" fill-rule="nonzero"/><path fill="#ff66c4" d="M 123.015625 354.835938 C 113.289062 355.132812 103.664062 357.277344 94.734375 361.09375 C 95.441406 361.640625 96.164062 362.175781 96.898438 362.691406 C 97.332031 363.003906 97.773438 363.300781 98.21875 363.59375 C 101.441406 362.238281 104.761719 361.109375 108.144531 360.234375 C 127.300781 355.285156 147.695312 358.582031 164.339844 368.839844 C 165.324219 368.324219 166.289062 367.769531 167.21875 367.171875 C 164.492188 365.421875 161.65625 363.839844 158.738281 362.429688 C 147.652344 357.089844 135.3125 354.46875 123.015625 354.835938 " fill-opacity="1" fill-rule="nonzero"/><path fill="#ff66c4" d="M 88.910156 266.566406 C 91.867188 265.378906 95.164062 265.742188 97.875 267.394531 C 103.820312 271.023438 104.984375 278.042969 105.589844 284.433594 C 108.257812 284.480469 110.917969 284.523438 113.582031 284.566406 C 113.425781 284.375 113.304688 284.132812 113.238281 283.824219 C 112.148438 278.578125 110.941406 273.21875 108.300781 268.5 C 106.300781 264.929688 103.433594 261.832031 99.734375 259.992188 C 96.101562 258.183594 91.917969 258.167969 88.230469 259.839844 C 87.347656 260.238281 86.523438 260.699219 85.75 261.203125 C 84.289062 264.941406 82.957031 268.726562 81.738281 272.539062 C 83.636719 270.019531 85.9375 267.761719 88.910156 266.566406 " fill-opacity="1" fill-rule="nonzero"/><path fill="#ff66c4" d="M 77.601562 287.476562 C 77.027344 289.96875 76.507812 292.46875 76.054688 294.980469 C 79.699219 292.53125 83.339844 290.082031 86.980469 287.632812 C 83.855469 287.582031 80.730469 287.527344 77.601562 287.476562 " fill-opacity="1" fill-rule="nonzero"/><path fill="#ff66c4" d="M 174.519531 261.246094 C 168.640625 267.652344 165.691406 276.5 166.613281 285.140625 C 166.621094 285.242188 166.617188 285.34375 166.605469 285.4375 C 168.875 285.476562 171.148438 285.515625 173.417969 285.550781 C 173.273438 279.257812 174.390625 272.375 179.421875 268.09375 C 180.511719 267.164062 181.683594 266.457031 182.910156 265.925781 C 182.707031 265.179688 182.507812 264.4375 182.292969 263.699219 C 181.609375 261.3125 180.855469 258.945312 180.035156 256.59375 C 178.035156 257.890625 176.175781 259.441406 174.519531 261.246094 " fill-opacity="1" fill-rule="nonzero"/><path fill="#ff66c4" d="M 104.296875 298.59375 C 110.953125 298.804688 117.609375 299.011719 124.269531 299.222656 C 120.722656 296.148438 117.175781 293.082031 113.628906 290.015625 C 110.238281 292.550781 107.121094 295.4375 104.296875 298.59375 " fill-opacity="1" fill-rule="nonzero"/><path fill="#ff66c4" d="M 117.363281 288.128906 C 117.171875 288.128906 116.976562 288.125 116.785156 288.121094 L 127.519531 297.414062 C 130.441406 294.421875 133.363281 291.433594 136.285156 288.441406 C 129.980469 288.339844 123.671875 288.234375 117.363281 288.128906 " fill-opacity="1" fill-rule="nonzero"/><path fill="#ff66c4" d="M 140.515625 288.511719 C 140.511719 288.625 140.496094 288.730469 140.472656 288.839844 C 143.308594 292.699219 146.574219 296.21875 150.171875 299.382812 C 154.257812 295.511719 158.675781 292.003906 163.367188 288.886719 C 155.75 288.765625 148.132812 288.640625 140.515625 288.511719 " fill-opacity="1" fill-rule="nonzero"/><path fill="#ff66c4" d="M 138.148438 291.546875 C 135.585938 294.167969 133.023438 296.789062 130.460938 299.417969 C 135.492188 299.574219 140.523438 299.730469 145.554688 299.890625 C 142.871094 297.3125 140.402344 294.523438 138.148438 291.546875 " fill-opacity="1" fill-rule="nonzero"/><path fill="#ff66c4" d="M 126.210938 273.664062 C 127.824219 271.085938 130.261719 268.914062 133.269531 268.179688 C 136.195312 267.460938 139.296875 268.050781 141.914062 269.480469 C 147.554688 272.550781 149.796875 279.074219 149.953125 285.167969 C 153.425781 285.222656 156.890625 285.277344 160.363281 285.335938 C 158.871094 280.09375 157.277344 274.828125 154.542969 270.085938 C 149.976562 262.171875 141.054688 255.785156 131.710938 259.511719 C 122.125 263.335938 118.246094 273.96875 117.011719 283.429688 C 116.949219 283.878906 116.785156 284.300781 116.515625 284.613281 C 118.699219 284.648438 120.882812 284.6875 123.0625 284.722656 C 123.53125 280.90625 124.132812 276.980469 126.210938 273.664062 " fill-opacity="1" fill-rule="nonzero"/><path fill="#ff66c4" d="M 175.050781 297.90625 C 175.429688 298.347656 176.429688 299.890625 176.976562 299.777344 C 177.300781 299.707031 177.742188 299.023438 177.925781 298.792969 C 178.316406 298.304688 178.699219 297.800781 179.085938 297.304688 C 179.96875 296.164062 180.851562 295.03125 181.734375 293.890625 C 182.933594 292.34375 184.136719 290.796875 185.335938 289.25 C 179.371094 289.152344 173.402344 289.050781 167.441406 288.957031 C 169.082031 290.886719 170.726562 292.816406 172.367188 294.75 C 173.261719 295.800781 174.160156 296.851562 175.050781 297.90625 " fill-opacity="1" fill-rule="nonzero"/><path fill="#ff66c4" d="M 154.476562 300.171875 C 160.605469 300.363281 166.734375 300.554688 172.859375 300.75 C 172.09375 299.863281 171.355469 298.945312 170.597656 298.054688 C 168.824219 295.972656 167.058594 293.894531 165.289062 291.8125 C 161.480469 294.332031 157.875 297.125 154.476562 300.171875 " fill-opacity="1" fill-rule="nonzero"/><path fill="#ff66c4" d="M 136.980469 271.4375 C 133.9375 271.011719 131.203125 272.515625 129.511719 275.007812 C 127.554688 277.882812 126.972656 281.394531 126.558594 284.777344 C 132.519531 284.878906 138.480469 284.976562 144.441406 285.074219 C 145.109375 285.085938 145.777344 285.097656 146.445312 285.105469 C 146.261719 279.210938 143.582031 272.355469 136.980469 271.4375 " fill-opacity="1" fill-rule="nonzero"/><path fill="#ff66c4" d="M 78.167969 297.773438 L 98.253906 298.402344 C 95.347656 295.644531 92.445312 292.882812 89.542969 290.121094 C 85.75 292.671875 81.957031 295.222656 78.167969 297.773438 " fill-opacity="1" fill-rule="nonzero"/><path fill="#ff66c4" d="M 102.082031 284.378906 C 101.769531 280.882812 101.371094 277.207031 99.601562 274.121094 C 98.183594 271.636719 95.628906 269.367188 92.621094 269.34375 C 89.378906 269.320312 86.699219 271.828125 84.828125 274.222656 C 82.609375 277.050781 81.132812 280.371094 80.351562 283.863281 C 80.34375 283.917969 80.328125 283.96875 80.308594 284.019531 C 85.675781 284.105469 91.039062 284.195312 96.402344 284.285156 C 98.296875 284.316406 100.191406 284.347656 102.082031 284.378906 " fill-opacity="1" fill-rule="nonzero"/><path fill="#ff66c4" d="M 110.507812 288.019531 L 92.089844 287.714844 C 95.199219 290.667969 98.304688 293.625 101.414062 296.578125 C 104.175781 293.441406 107.222656 290.589844 110.507812 288.019531 " fill-opacity="1" fill-rule="nonzero"/><path fill="#91ff6a" d="M 89.226562 331.210938 C 84.691406 330.980469 80.160156 330.742188 75.628906 330.488281 C 75.851562 331.535156 76.101562 332.570312 76.378906 333.597656 C 88.871094 334.285156 101.367188 334.875 113.867188 335.363281 C 132.699219 336.09375 151.539062 336.601562 170.382812 336.878906 C 175.707031 336.957031 181.035156 337.015625 186.359375 337.058594 C 186.582031 336.042969 186.777344 335.023438 186.957031 333.996094 C 173.207031 333.890625 159.464844 333.667969 145.71875 333.320312 C 126.882812 332.84375 108.046875 332.140625 89.226562 331.210938 " fill-opacity="1" fill-rule="nonzero"/><path fill="#91ff6a" d="M 99.671875 345.144531 C 93.363281 345.023438 87.054688 344.898438 80.75 344.773438 C 81.136719 345.503906 81.542969 346.230469 81.96875 346.945312 C 82.160156 347.257812 82.355469 347.566406 82.546875 347.875 C 95.308594 348.125 108.066406 348.375 120.828125 348.625 C 137.039062 348.941406 153.25 349.261719 169.460938 349.578125 C 173.6875 349.664062 177.914062 349.746094 182.144531 349.828125 C 182.613281 348.832031 183.046875 347.816406 183.453125 346.789062 C 171.738281 346.558594 160.023438 346.328125 148.304688 346.101562 C 132.09375 345.785156 115.882812 345.464844 99.671875 345.144531 " fill-opacity="1" fill-rule="nonzero"/><g clip-path="url(#5143b62766)"><path fill="#91ff6a" d="M 108.144531 360.234375 C 104.761719 361.109375 101.441406 362.238281 98.21875 363.59375 C 109.871094 371.339844 124.320312 374.925781 138.214844 374.753906 C 146.441406 374.652344 154.648438 373.246094 162.1875 369.886719 C 162.917969 369.558594 163.636719 369.210938 164.339844 368.839844 C 147.695312 358.582031 127.300781 355.285156 108.144531 360.234375 " fill-opacity="1" fill-rule="nonzero"/></g><path fill="#91ff6a" d="M 171.375 320.902344 C 169.316406 323.09375 167.0625 325.445312 164.054688 326.234375 C 158.648438 327.660156 154.839844 321.84375 152.382812 317.976562 C 149.347656 313.1875 145.71875 307.964844 139.660156 307.113281 C 132.875 306.15625 127.09375 310.5 122.5625 315.011719 C 118.429688 319.128906 113.804688 324.621094 107.386719 324.363281 C 102.589844 324.175781 99.484375 319.3125 96.582031 315.933594 C 94.925781 314.007812 93.113281 312.152344 90.925781 310.820312 C 88.214844 309.167969 84.914062 308.421875 81.75 308.617188 C 79.015625 308.792969 76.449219 309.589844 74.152344 310.867188 C 74.0625 312.730469 74.03125 314.597656 74.058594 316.457031 C 75.921875 314.898438 78.140625 313.785156 80.605469 313.351562 C 83.222656 312.886719 86.058594 313.304688 88.359375 314.644531 C 90.347656 315.800781 91.921875 317.539062 93.429688 319.296875 C 96.601562 323 99.703125 327.21875 104.660156 328.550781 C 111.152344 330.292969 117.355469 326.464844 121.882812 322.175781 C 126.125 318.164062 130.109375 312.792969 136.222656 311.695312 C 141.59375 310.726562 145.019531 315.042969 147.628906 319.070312 C 150.632812 323.703125 153.882812 329.089844 159.582031 330.660156 C 166.386719 332.53125 171.578125 327.367188 175.824219 322.871094 C 177.828125 320.753906 179.96875 318.828125 182.628906 317.695312 C 184.527344 316.886719 186.480469 316.457031 188.476562 316.316406 C 188.503906 314.769531 188.519531 313.234375 188.515625 311.707031 C 184.910156 311.917969 181.367188 312.929688 178.269531 314.785156 C 175.601562 316.390625 173.488281 318.652344 171.375 320.902344 " fill-opacity="1" fill-rule="nonzero"/><path fill="#91ff6a" d="M 170.597656 298.054688 C 171.355469 298.945312 172.09375 299.863281 172.859375 300.75 C 166.734375 300.554688 160.605469 300.363281 154.476562 300.171875 C 157.875 297.125 161.480469 294.332031 165.289062 291.8125 C 167.058594 293.894531 168.824219 295.972656 170.597656 298.054688 Z M 185.335938 289.25 C 184.136719 290.796875 182.933594 292.34375 181.734375 293.890625 C 180.851562 295.03125 179.96875 296.164062 179.085938 297.304688 C 178.699219 297.800781 178.316406 298.304688 177.925781 298.792969 C 177.742188 299.023438 177.300781 299.707031 176.976562 299.777344 C 176.429688 299.890625 175.429688 298.347656 175.050781 297.90625 C 174.160156 296.851562 173.261719 295.800781 172.367188 294.75 C 170.726562 292.816406 169.082031 290.886719 167.441406 288.957031 C 173.402344 289.050781 179.371094 289.152344 185.335938 289.25 Z M 140.472656 288.839844 C 140.496094 288.730469 140.511719 288.625 140.515625 288.511719 C 148.132812 288.640625 155.75 288.765625 163.367188 288.886719 C 158.675781 292.003906 154.257812 295.511719 150.171875 299.382812 C 146.574219 296.21875 143.308594 292.699219 140.472656 288.839844 Z M 130.460938 299.417969 C 133.023438 296.789062 135.585938 294.167969 138.148438 291.546875 C 140.402344 294.523438 142.871094 297.3125 145.554688 299.890625 C 140.523438 299.730469 135.492188 299.574219 130.460938 299.417969 Z M 116.785156 288.121094 C 116.976562 288.125 117.171875 288.128906 117.363281 288.128906 C 123.671875 288.234375 129.980469 288.339844 136.285156 288.441406 C 133.363281 291.433594 130.441406 294.421875 127.519531 297.414062 Z M 104.296875 298.59375 C 107.121094 295.4375 110.238281 292.550781 113.628906 290.015625 C 117.175781 293.082031 120.722656 296.148438 124.269531 299.222656 C 117.609375 299.011719 110.953125 298.804688 104.296875 298.59375 Z M 92.089844 287.714844 L 110.507812 288.019531 C 107.222656 290.589844 104.175781 293.441406 101.414062 296.578125 C 98.304688 293.625 95.199219 290.667969 92.089844 287.714844 Z M 78.167969 297.773438 C 81.957031 295.222656 85.75 292.671875 89.542969 290.121094 C 92.445312 292.882812 95.347656 295.644531 98.253906 298.402344 Z M 80.308594 284.019531 C 80.328125 283.96875 80.34375 283.917969 80.351562 283.863281 C 81.132812 280.371094 82.609375 277.050781 84.828125 274.222656 C 86.699219 271.828125 89.378906 269.320312 92.621094 269.34375 C 95.628906 269.367188 98.183594 271.636719 99.601562 274.121094 C 101.371094 277.207031 101.769531 280.882812 102.082031 284.378906 C 100.191406 284.347656 98.296875 284.316406 96.402344 284.285156 C 91.039062 284.195312 85.675781 284.105469 80.308594 284.019531 Z M 146.445312 285.105469 C 145.777344 285.097656 145.109375 285.085938 144.441406 285.074219 C 138.480469 284.976562 132.519531 284.878906 126.558594 284.777344 C 126.972656 281.394531 127.554688 277.882812 129.511719 275.007812 C 131.203125 272.515625 133.9375 271.011719 136.980469 271.4375 C 143.582031 272.355469 146.261719 279.210938 146.445312 285.105469 Z M 117.011719 283.429688 C 118.246094 273.96875 122.125 263.335938 131.710938 259.511719 C 141.054688 255.785156 149.976562 262.171875 154.542969 270.085938 C 157.277344 274.828125 158.871094 280.09375 160.363281 285.335938 C 156.890625 285.277344 153.425781 285.222656 149.953125 285.167969 C 149.796875 279.074219 147.554688 272.550781 141.914062 269.480469 C 139.296875 268.050781 136.195312 267.460938 133.269531 268.179688 C 130.261719 268.914062 127.824219 271.085938 126.210938 273.664062 C 124.132812 276.980469 123.53125 280.90625 123.0625 284.722656 C 120.882812 284.6875 118.699219 284.648438 116.515625 284.613281 C 116.785156 284.300781 116.949219 283.878906 117.011719 283.429688 Z M 165.375 269.394531 C 163.796875 273.285156 162.953125 277.492188 162.9375 281.691406 C 160.054688 272.214844 156.070312 262.566406 147.035156 257.519531 C 142.453125 254.957031 137.082031 254.132812 132.027344 255.695312 C 126.972656 257.265625 122.707031 260.757812 119.71875 265.074219 C 117.4375 268.371094 115.945312 272.078125 114.933594 275.929688 C 112.785156 268.449219 109.308594 261.289062 102.226562 257.351562 C 98.105469 255.054688 93.273438 254.433594 88.757812 255.902344 C 88.417969 256.011719 88.082031 256.136719 87.753906 256.261719 C 87.0625 257.902344 86.390625 259.550781 85.75 261.203125 C 86.523438 260.699219 87.347656 260.238281 88.230469 259.839844 C 91.917969 258.167969 96.101562 258.183594 99.734375 259.992188 C 103.433594 261.832031 106.300781 264.929688 108.300781 268.5 C 110.941406 273.21875 112.148438 278.578125 113.238281 283.824219 C 113.304688 284.132812 113.425781 284.375 113.582031 284.566406 C 110.917969 284.523438 108.257812 284.480469 105.589844 284.433594 C 104.984375 278.042969 103.820312 271.023438 97.875 267.394531 C 95.164062 265.742188 91.867188 265.378906 88.910156 266.566406 C 85.9375 267.761719 83.636719 270.019531 81.738281 272.539062 C 81.558594 273.085938 81.382812 273.632812 81.214844 274.179688 C 79.859375 278.5625 78.636719 283 77.601562 287.476562 C 80.730469 287.527344 83.855469 287.582031 86.980469 287.632812 C 83.339844 290.082031 79.699219 292.53125 76.054688 294.980469 C 75.84375 296.140625 75.648438 297.296875 75.46875 298.464844 C 75.328125 299.367188 75.199219 300.273438 75.074219 301.175781 C 90.40625 301.660156 105.738281 302.140625 121.070312 302.621094 C 137.320312 303.132812 153.566406 303.644531 169.816406 304.152344 L 188.398438 304.738281 C 188.355469 303.570312 188.308594 302.398438 188.25 301.230469 L 180.625 300.992188 C 181.523438 299.859375 182.398438 298.703125 183.285156 297.5625 C 184.714844 295.722656 186.144531 293.882812 187.570312 292.039062 C 187.367188 289.945312 187.125 287.855469 186.847656 285.773438 C 183.539062 285.714844 180.230469 285.664062 176.921875 285.609375 C 176.78125 280.207031 177.515625 274.234375 181.898438 270.570312 C 182.488281 270.074219 183.121094 269.667969 183.78125 269.332031 C 183.503906 268.191406 183.214844 267.058594 182.910156 265.925781 C 181.683594 266.457031 180.511719 267.164062 179.421875 268.09375 C 174.390625 272.375 173.273438 279.257812 173.417969 285.550781 C 171.148438 285.515625 168.875 285.476562 166.605469 285.4375 C 166.617188 285.34375 166.621094 285.242188 166.613281 285.140625 C 165.691406 276.5 168.640625 267.652344 174.519531 261.246094 C 176.175781 259.441406 178.035156 257.890625 180.035156 256.59375 C 179.644531 255.46875 179.238281 254.339844 178.808594 253.222656 C 172.777344 256.984375 168.097656 262.691406 165.375 269.394531 " fill-opacity="1" fill-rule="nonzero"/><path fill="#91ff6a" d="M 102.671875 247.910156 C 107.914062 249.980469 111.925781 254.644531 113.441406 260.03125 C 112.910156 261.921875 115.667969 263.421875 116.578125 261.488281 C 119.640625 254.972656 125.582031 250.109375 132.542969 248.296875 C 139.566406 246.464844 147.066406 248.238281 152.761719 252.683594 C 155.546875 254.859375 157.925781 257.652344 159.503906 260.832031 C 159.421875 261.03125 159.347656 261.230469 159.273438 261.429688 C 158.9375 262.3125 159.648438 263.351562 160.496094 263.582031 C 161.042969 263.730469 161.542969 263.617188 161.933594 263.328125 C 162.023438 263.316406 162.117188 263.300781 162.214844 263.273438 C 163.039062 263.046875 163.808594 262 163.4375 261.117188 C 163.386719 260.992188 163.332031 260.867188 163.273438 260.738281 C 164.929688 256.484375 166.945312 252 170.605469 249.195312 C 172.253906 247.9375 174.210938 247.183594 176.21875 246.945312 C 175.722656 245.832031 175.207031 244.726562 174.671875 243.628906 C 172.796875 243.980469 170.984375 244.703125 169.347656 245.8125 C 165.433594 248.46875 163.023438 252.527344 161.148438 256.785156 C 157.589844 251.292969 152.148438 247.136719 145.808594 245.199219 C 137.875 242.765625 129.113281 244.414062 122.40625 249.246094 C 119.808594 251.121094 117.519531 253.398438 115.699219 256.011719 C 113.390625 250.90625 109.136719 246.777344 103.898438 244.65625 C 100.722656 243.367188 97.234375 242.941406 93.832031 243.292969 C 93.160156 244.582031 92.511719 245.878906 91.878906 247.183594 C 95.425781 246.347656 99.199219 246.546875 102.671875 247.910156 " fill-opacity="1" fill-rule="nonzero"/></svg>