<svg xmlns="http://www.w3.org/2000/svg" xmlns:xlink="http://www.w3.org/1999/xlink" width="500" zoomAndPan="magnify" viewBox="0 0 375 374.999991" height="500" preserveAspectRatio="xMidYMid meet" version="1.0"><defs><clipPath id="2a83100d0e"><path d="M 326.144531 0 L 374.875 0 L 374.875 19.519531 L 326.144531 19.519531 Z M 326.144531 0 " clip-rule="nonzero"/></clipPath></defs><g clip-path="url(#2a83100d0e)"><path fill="#fff897" d="M 328.765625 -16.210938 C 331.605469 -22.515625 343.042969 -17.417969 354.457031 -12.273438 C 365.875 -7.128906 377.273438 -1.945312 374.433594 4.359375 C 368.75 16.972656 353.921875 22.589844 341.3125 16.910156 C 328.699219 11.230469 323.082031 -3.597656 328.765625 -16.210938 " fill-opacity="1" fill-rule="nonzero"/></g><path fill="#000000" d="M 368.253906 -5.136719 C 368.253906 -4.9375 368.214844 -4.738281 368.128906 -4.546875 L 364.601562 3.285156 C 364.273438 4.003906 363.425781 4.328125 362.703125 4 C 361.980469 3.675781 361.660156 2.828125 361.984375 2.105469 L 365.511719 -5.726562 C 365.835938 -6.449219 366.6875 -6.769531 367.410156 -6.445312 C 367.9375 -6.207031 368.253906 -5.683594 368.253906 -5.136719 " fill-opacity="1" fill-rule="nonzero"/><path fill="#fff897" d="M 276.53125 41.960938 L 276.609375 41.960938 C 277.015625 41.960938 277.421875 41.957031 277.832031 41.945312 C 278.195312 41.941406 278.558594 41.929688 278.925781 41.914062 C 279.125 41.90625 279.320312 41.898438 279.515625 41.886719 C 279.742188 41.878906 279.964844 41.863281 280.191406 41.851562 C 280.53125 41.832031 280.871094 41.8125 281.210938 41.785156 C 281.519531 41.761719 281.832031 41.734375 282.148438 41.703125 C 282.257812 41.699219 282.367188 41.6875 282.472656 41.671875 C 282.703125 41.65625 282.929688 41.632812 283.160156 41.601562 C 283.367188 41.589844 283.578125 41.566406 283.78125 41.535156 C 284.03125 41.503906 284.28125 41.476562 284.527344 41.445312 C 284.566406 41.445312 284.609375 41.441406 284.648438 41.429688 C 285.007812 41.382812 285.367188 41.335938 285.726562 41.28125 C 286.160156 41.21875 286.589844 41.152344 287.027344 41.082031 C 287.140625 41.066406 287.257812 41.042969 287.371094 41.019531 C 287.761719 40.957031 288.160156 40.886719 288.550781 40.808594 C 289.015625 40.722656 289.480469 40.632812 289.941406 40.53125 C 289.96875 40.53125 289.992188 40.527344 290.019531 40.515625 C 290.34375 40.449219 290.671875 40.375 290.996094 40.300781 C 291.234375 40.246094 291.472656 40.195312 291.714844 40.132812 C 293.492188 39.71875 295.269531 39.226562 297.042969 38.660156 C 298.859375 38.082031 300.675781 37.425781 302.484375 36.703125 C 315.261719 31.582031 334.886719 16.015625 349.96875 -0.0390625 L 223.492188 -0.0390625 C 223.496094 -0.0195312 223.5 -0.00390625 223.503906 0.0117188 C 223.613281 0.398438 223.730469 0.789062 223.84375 1.171875 C 224.203125 2.375 224.597656 3.566406 225.023438 4.734375 C 225.296875 5.515625 225.59375 6.285156 225.902344 7.046875 C 226.210938 7.8125 226.53125 8.566406 226.863281 9.3125 C 227.042969 9.722656 227.234375 10.132812 227.425781 10.539062 C 227.585938 10.871094 227.742188 11.195312 227.90625 11.519531 C 228.085938 11.882812 228.269531 12.246094 228.457031 12.605469 C 228.621094 12.925781 228.789062 13.242188 228.957031 13.558594 C 228.976562 13.601562 229 13.640625 229.023438 13.679688 C 229.214844 14.03125 229.414062 14.386719 229.613281 14.734375 C 229.808594 15.074219 230.011719 15.417969 230.207031 15.753906 C 230.210938 15.757812 230.214844 15.769531 230.222656 15.773438 C 230.425781 16.117188 230.636719 16.460938 230.851562 16.800781 C 231.0625 17.140625 231.277344 17.476562 231.496094 17.8125 C 231.71875 18.144531 231.9375 18.476562 232.164062 18.804688 C 232.382812 19.125 232.601562 19.441406 232.832031 19.757812 C 232.871094 19.820312 232.917969 19.882812 232.960938 19.9375 C 233.15625 20.210938 233.355469 20.480469 233.554688 20.746094 C 233.792969 21.0625 234.03125 21.378906 234.28125 21.695312 C 234.511719 21.992188 234.746094 22.28125 234.984375 22.574219 C 235.019531 22.617188 235.054688 22.667969 235.09375 22.707031 C 235.324219 22.988281 235.554688 23.257812 235.789062 23.53125 C 236.300781 24.132812 236.832031 24.726562 237.371094 25.304688 C 237.601562 25.550781 237.828125 25.792969 238.066406 26.03125 C 238.140625 26.113281 238.21875 26.191406 238.300781 26.273438 C 238.539062 26.519531 238.78125 26.761719 239.03125 27.003906 C 239.316406 27.28125 239.601562 27.554688 239.886719 27.820312 C 240.152344 28.070312 240.417969 28.316406 240.691406 28.558594 C 240.71875 28.582031 240.742188 28.605469 240.769531 28.625 C 241.027344 28.855469 241.285156 29.085938 241.546875 29.308594 C 242.113281 29.792969 242.683594 30.265625 243.273438 30.726562 C 243.449219 30.871094 243.628906 31.003906 243.808594 31.140625 C 244.027344 31.308594 244.246094 31.472656 244.464844 31.640625 C 244.84375 31.914062 245.222656 32.1875 245.609375 32.457031 C 245.878906 32.648438 246.152344 32.835938 246.429688 33.019531 C 246.875 33.324219 247.328125 33.621094 247.792969 33.90625 C 248.113281 34.105469 248.433594 34.300781 248.761719 34.5 C 249.109375 34.707031 249.460938 34.910156 249.808594 35.109375 C 249.996094 35.210938 250.175781 35.316406 250.363281 35.417969 C 250.808594 35.660156 251.253906 35.894531 251.703125 36.125 C 251.707031 36.128906 251.710938 36.128906 251.71875 36.136719 C 252.050781 36.304688 252.382812 36.46875 252.714844 36.632812 C 253.320312 36.921875 253.921875 37.203125 254.53125 37.46875 C 254.695312 37.539062 254.863281 37.613281 255.027344 37.683594 C 255.203125 37.761719 255.386719 37.835938 255.566406 37.910156 C 255.757812 37.992188 255.953125 38.066406 256.144531 38.144531 C 256.429688 38.257812 256.710938 38.371094 256.992188 38.472656 C 257.296875 38.589844 257.609375 38.703125 257.921875 38.8125 C 258.351562 38.964844 258.78125 39.113281 259.21875 39.257812 C 259.472656 39.339844 259.722656 39.421875 259.976562 39.496094 C 260 39.507812 260.023438 39.515625 260.050781 39.523438 C 260.0625 39.53125 260.082031 39.535156 260.097656 39.535156 C 260.414062 39.632812 260.730469 39.726562 261.046875 39.820312 C 262.285156 40.175781 263.542969 40.488281 264.804688 40.757812 C 265.027344 40.804688 265.253906 40.851562 265.484375 40.894531 C 265.585938 40.917969 265.699219 40.9375 265.804688 40.957031 C 266.042969 41.003906 266.277344 41.046875 266.515625 41.089844 C 266.574219 41.101562 266.625 41.109375 266.679688 41.117188 C 266.941406 41.160156 267.210938 41.210938 267.472656 41.246094 C 267.816406 41.304688 268.160156 41.359375 268.503906 41.40625 C 269.0625 41.480469 269.617188 41.554688 270.175781 41.609375 C 270.777344 41.679688 271.378906 41.734375 271.988281 41.785156 C 272.285156 41.808594 272.585938 41.828125 272.882812 41.847656 C 273.070312 41.859375 273.25 41.871094 273.433594 41.875 C 273.722656 41.894531 274.019531 41.90625 274.316406 41.917969 C 274.710938 41.929688 275.101562 41.945312 275.492188 41.953125 C 275.839844 41.957031 276.179688 41.960938 276.53125 41.960938 " fill-opacity="1" fill-rule="nonzero"/><path fill="#4bb9ff" d="M 276.53125 41.960938 L 276.609375 41.960938 C 277.015625 41.960938 277.421875 41.957031 277.832031 41.945312 C 278.195312 41.941406 278.558594 41.929688 278.925781 41.914062 C 279.125 41.90625 279.320312 41.898438 279.515625 41.886719 C 279.742188 41.878906 279.964844 41.863281 280.191406 41.851562 C 280.53125 41.832031 280.871094 41.8125 281.210938 41.785156 C 281.519531 41.761719 281.832031 41.734375 282.148438 41.703125 C 282.257812 41.699219 282.367188 41.6875 282.472656 41.671875 C 282.703125 41.65625 282.929688 41.632812 283.160156 41.601562 C 283.367188 41.589844 283.578125 41.566406 283.78125 41.535156 C 284.03125 41.503906 284.28125 41.476562 284.527344 41.445312 C 284.566406 41.445312 284.609375 41.441406 284.648438 41.429688 C 285.007812 41.382812 285.367188 41.335938 285.726562 41.28125 C 286.160156 41.21875 286.589844 41.152344 287.027344 41.082031 C 287.140625 41.066406 287.257812 41.042969 287.371094 41.019531 C 287.761719 40.957031 288.160156 40.886719 288.550781 40.808594 C 289.015625 40.722656 289.480469 40.632812 289.941406 40.53125 C 289.96875 40.53125 289.992188 40.527344 290.019531 40.515625 C 290.34375 40.449219 290.671875 40.375 290.996094 40.300781 C 291.234375 40.246094 291.472656 40.195312 291.714844 40.132812 C 293.492188 39.71875 295.269531 39.226562 297.042969 38.660156 C 290.699219 23.996094 276.695312 9.242188 259.921875 -0.0390625 L 223.492188 -0.0390625 C 223.496094 -0.0195312 223.5 -0.00390625 223.503906 0.0117188 C 223.613281 0.398438 223.730469 0.789062 223.84375 1.171875 C 224.203125 2.375 224.597656 3.566406 225.023438 4.734375 C 225.296875 5.515625 225.589844 6.285156 225.902344 7.046875 C 226.210938 7.8125 226.53125 8.566406 226.863281 9.3125 C 227.042969 9.722656 227.234375 10.132812 227.425781 10.539062 C 227.585938 10.871094 227.742188 11.195312 227.90625 11.519531 C 228.085938 11.882812 228.269531 12.246094 228.457031 12.605469 C 228.621094 12.925781 228.789062 13.242188 228.957031 13.558594 C 228.976562 13.601562 229 13.640625 229.023438 13.679688 C 229.214844 14.03125 229.414062 14.386719 229.613281 14.734375 C 229.808594 15.074219 230.011719 15.417969 230.207031 15.753906 C 230.210938 15.757812 230.214844 15.769531 230.222656 15.773438 C 230.425781 16.117188 230.636719 16.460938 230.851562 16.800781 C 231.0625 17.140625 231.277344 17.476562 231.496094 17.8125 C 231.71875 18.144531 231.9375 18.476562 232.164062 18.804688 C 232.382812 19.125 232.601562 19.441406 232.832031 19.757812 C 232.871094 19.820312 232.917969 19.882812 232.960938 19.9375 C 233.15625 20.210938 233.355469 20.480469 233.554688 20.746094 C 233.792969 21.0625 234.03125 21.378906 234.28125 21.695312 C 234.511719 21.992188 234.746094 22.28125 234.984375 22.574219 C 235.019531 22.617188 235.054688 22.667969 235.09375 22.707031 C 235.324219 22.988281 235.554688 23.257812 235.789062 23.53125 C 236.300781 24.132812 236.832031 24.726562 237.371094 25.304688 C 237.601562 25.550781 237.828125 25.792969 238.066406 26.03125 C 238.140625 26.113281 238.21875 26.191406 238.300781 26.273438 C 238.539062 26.519531 238.78125 26.761719 239.03125 27.003906 C 239.316406 27.28125 239.601562 27.554688 239.886719 27.820312 C 240.152344 28.070312 240.417969 28.316406 240.691406 28.558594 C 240.71875 28.582031 240.742188 28.605469 240.769531 28.625 C 241.027344 28.855469 241.285156 29.085938 241.546875 29.308594 C 242.113281 29.792969 242.683594 30.265625 243.273438 30.726562 C 243.449219 30.871094 243.628906 31.003906 243.808594 31.140625 C 244.027344 31.308594 244.246094 31.472656 244.464844 31.640625 C 244.84375 31.914062 245.222656 32.1875 245.609375 32.457031 C 245.878906 32.648438 246.152344 32.835938 246.429688 33.019531 C 246.875 33.324219 247.328125 33.621094 247.792969 33.90625 C 248.113281 34.105469 248.433594 34.300781 248.761719 34.5 C 249.109375 34.707031 249.460938 34.910156 249.808594 35.109375 C 249.996094 35.210938 250.175781 35.316406 250.363281 35.417969 C 250.808594 35.660156 251.253906 35.894531 251.703125 36.125 C 251.707031 36.128906 251.710938 36.128906 251.71875 36.136719 C 252.050781 36.304688 252.382812 36.46875 252.714844 36.632812 C 253.320312 36.921875 253.921875 37.203125 254.53125 37.46875 C 254.695312 37.539062 254.863281 37.613281 255.027344 37.683594 C 255.203125 37.761719 255.386719 37.835938 255.566406 37.910156 C 255.757812 37.992188 255.953125 38.066406 256.144531 38.144531 C 256.429688 38.257812 256.710938 38.371094 256.992188 38.472656 C 257.296875 38.589844 257.609375 38.703125 257.921875 38.8125 C 258.351562 38.964844 258.78125 39.113281 259.21875 39.257812 C 259.472656 39.339844 259.722656 39.421875 259.976562 39.496094 C 260 39.507812 260.023438 39.515625 260.050781 39.523438 C 260.0625 39.53125 260.082031 39.535156 260.097656 39.535156 C 260.414062 39.632812 260.730469 39.726562 261.046875 39.820312 C 262.285156 40.175781 263.542969 40.488281 264.804688 40.757812 C 265.027344 40.804688 265.253906 40.851562 265.484375 40.894531 C 265.585938 40.917969 265.699219 40.9375 265.804688 40.957031 C 266.042969 41.003906 266.277344 41.046875 266.515625 41.089844 C 266.574219 41.101562 266.625 41.109375 266.679688 41.117188 C 266.941406 41.160156 267.210938 41.210938 267.472656 41.246094 C 267.816406 41.304688 268.160156 41.359375 268.503906 41.40625 C 269.0625 41.480469 269.617188 41.554688 270.175781 41.609375 C 270.777344 41.679688 271.378906 41.734375 271.988281 41.785156 C 272.285156 41.808594 272.585938 41.828125 272.882812 41.847656 C 273.070312 41.859375 273.25 41.871094 273.433594 41.875 C 273.722656 41.894531 274.019531 41.90625 274.316406 41.917969 C 274.710938 41.929688 275.101562 41.945312 275.492188 41.953125 C 275.839844 41.957031 276.179688 41.960938 276.53125 41.960938 " fill-opacity="1" fill-rule="nonzero"/><path fill="#fff897" d="M 92.292969 63.171875 C 113.207031 56.738281 135.191406 51.035156 151.503906 48.617188 C 151.3125 50.066406 151.164062 51.515625 151.050781 52.96875 C 150.949219 54.273438 150.882812 55.578125 150.839844 56.886719 C 150.589844 65.507812 151.726562 74.121094 154.347656 82.398438 C 154.632812 83.308594 154.9375 84.214844 155.265625 85.117188 C 155.550781 85.917969 155.851562 86.714844 156.167969 87.507812 C 138.011719 100.3125 113.699219 114.859375 83.332031 126.714844 C 41.082031 143.210938 12.472656 138.859375 6.519531 126.148438 C 0.167969 112.570312 23.640625 84.296875 92.292969 63.171875 " fill-opacity="1" fill-rule="nonzero"/><path fill="#fff897" d="M 180.984375 115.789062 C 182.832031 116.847656 184.714844 117.816406 186.632812 118.707031 C 194.234375 122.246094 202.339844 124.453125 210.628906 125.375 C 212.828125 125.621094 215.042969 125.777344 217.265625 125.847656 C 212.285156 137.730469 203.722656 158.511719 197.449219 175.453125 C 194.265625 184.054688 189.804688 197.398438 188.585938 202.671875 C 185.644531 202.929688 182.601562 203.207031 179.503906 203.472656 C 170.6875 204.230469 161.488281 204.902344 153.375 204.753906 C 148.359375 204.660156 143.753906 204.25 139.914062 203.359375 C 135.25 202.269531 131.699219 200.464844 129.882812 197.636719 C 129.863281 197.609375 129.851562 197.585938 129.835938 197.5625 L 129.832031 197.558594 C 127.691406 194.15625 128.039062 189.269531 131.921875 182.382812 C 147.925781 153.988281 165.75 131.964844 180.984375 115.789062 " fill-opacity="1" fill-rule="nonzero"/><path fill="#e2b894" d="M 184.644531 121.1875 C 190.8125 123.882812 197.3125 125.683594 203.949219 126.617188 C 204.707031 126.730469 205.46875 126.828125 206.238281 126.914062 C 207.367188 127.039062 208.503906 127.140625 209.640625 127.21875 C 197.097656 150.726562 184.203125 180.222656 179.503906 203.472656 C 170.6875 204.230469 161.488281 204.902344 153.375 204.753906 C 150.628906 204.703125 148.007812 204.558594 145.558594 204.289062 C 144.695312 204.191406 143.847656 204.082031 143.03125 203.953125 C 141.378906 203.695312 138.253906 200.707031 138.8125 199.132812 C 147.292969 175.191406 161.121094 153.710938 175.8125 132.964844 C 176.578125 131.878906 177.355469 130.804688 178.140625 129.730469 C 178.53125 129.195312 178.925781 128.660156 179.320312 128.128906 C 179.597656 127.757812 179.871094 127.386719 180.152344 127.015625 C 180.449219 126.613281 180.753906 126.210938 181.058594 125.808594 C 181.871094 124.730469 182.695312 123.667969 183.523438 122.605469 C 183.898438 122.132812 184.269531 121.660156 184.644531 121.1875 " fill-opacity="1" fill-rule="nonzero"/><path fill="#e2b894" d="M 184.644531 121.1875 C 190.8125 123.882812 197.3125 125.683594 203.949219 126.617188 C 191.371094 150.15625 178.417969 179.75 173.707031 203.0625 C 164.890625 203.820312 155.695312 204.496094 147.582031 204.339844 C 146.898438 204.332031 146.226562 204.3125 145.558594 204.289062 C 144.695312 204.191406 143.847656 204.082031 143.03125 203.953125 C 141.378906 203.695312 138.253906 200.707031 138.8125 199.132812 C 147.292969 175.191406 161.121094 153.710938 175.8125 132.964844 C 176.578125 131.878906 177.355469 130.804688 178.140625 129.730469 C 178.53125 129.195312 178.925781 128.660156 179.320312 128.128906 C 179.597656 127.757812 179.871094 127.386719 180.152344 127.015625 C 180.449219 126.613281 180.753906 126.210938 181.058594 125.808594 C 181.871094 124.730469 182.695312 123.667969 183.523438 122.605469 C 183.898438 122.132812 184.269531 121.660156 184.644531 121.1875 " fill-opacity="1" fill-rule="nonzero"/><path fill="#e2b894" d="M 120.421875 64.972656 C 121.445312 64.636719 122.511719 64.300781 123.617188 63.96875 C 123.832031 63.902344 124.046875 63.839844 124.261719 63.773438 C 126.847656 63.007812 129.617188 62.253906 132.453125 61.519531 C 133.054688 61.359375 133.664062 61.203125 134.273438 61.046875 C 134.296875 61.042969 134.320312 61.039062 134.34375 61.03125 C 134.9375 60.878906 135.53125 60.726562 136.128906 60.578125 C 136.199219 60.5625 136.269531 60.546875 136.335938 60.527344 C 136.886719 60.386719 137.445312 60.246094 137.996094 60.109375 C 139.238281 59.796875 140.480469 59.492188 141.707031 59.1875 C 142.015625 59.109375 142.320312 59.035156 142.628906 58.957031 C 144.777344 58.425781 146.875 57.90625 148.894531 57.390625 C 148.335938 64.722656 148.8125 72.082031 150.378906 79.257812 C 150.710938 80.804688 151.101562 82.34375 151.542969 83.863281 C 136.902344 91.496094 118.980469 100.410156 99.65625 108.472656 C 58.054688 125.828125 32.316406 126.160156 29.175781 117.355469 C 28.582031 115.683594 28.953125 113.65625 30.339844 111.328125 C 36.777344 100.53125 65.09375 83.238281 120.421875 64.972656 " fill-opacity="1" fill-rule="nonzero"/><path fill="#e2b894" d="M 120.421875 64.972656 C 121.445312 64.636719 122.511719 64.300781 123.617188 63.96875 C 123.832031 63.902344 124.046875 63.839844 124.261719 63.773438 C 126.847656 63.007812 129.617188 62.253906 132.453125 61.519531 C 133.058594 61.363281 133.667969 61.207031 134.273438 61.046875 C 134.296875 61.042969 134.320312 61.039062 134.34375 61.03125 C 134.9375 60.878906 135.53125 60.726562 136.128906 60.578125 C 136.199219 60.5625 136.269531 60.546875 136.335938 60.527344 C 136.886719 60.386719 137.445312 60.246094 137.996094 60.109375 C 139.238281 59.796875 140.480469 59.492188 141.707031 59.1875 C 142.015625 59.109375 142.328125 59.035156 142.628906 58.957031 C 144.777344 58.425781 146.875 57.90625 148.894531 57.390625 C 148.335938 64.722656 148.8125 72.082031 150.378906 79.257812 C 136.195312 86.605469 119.160156 95 100.878906 102.628906 C 59.273438 119.984375 33.539062 120.3125 30.398438 111.507812 C 30.378906 111.449219 30.355469 111.390625 30.339844 111.328125 C 36.777344 100.53125 65.09375 83.238281 120.421875 64.972656 " fill-opacity="1" fill-rule="nonzero"/><path fill="#fff897" d="M 129.882812 197.636719 C 133.195312 202.800781 180.488281 171.820312 193.996094 173.097656 C 232.773438 176.765625 208.882812 220.558594 167.945312 221.773438 C 151.300781 222.269531 138.4375 211.339844 129.882812 197.636719 " fill-opacity="1" fill-rule="nonzero"/><path fill="#fff897" d="M 271.519531 110.125 C 294.058594 90.5625 295.207031 64.445312 285.726562 41.28125 C 281.746094 31.566406 275.894531 22.375 268.972656 14.394531 C 264.394531 9.125 259.179688 4.21875 253.496094 -0.0390625 L 172.796875 -0.0390625 C 158 13.316406 149.074219 28.21875 146.558594 47.519531 C 146.472656 48.164062 146.398438 48.816406 146.328125 49.460938 C 146.246094 50.21875 146.179688 50.96875 146.125 51.722656 C 145.957031 53.863281 145.878906 56.003906 145.894531 58.148438 C 145.921875 65.492188 147.007812 72.804688 149.210938 79.863281 L 149.210938 79.867188 C 149.515625 80.855469 149.84375 81.828125 150.195312 82.800781 C 150.371094 83.296875 150.558594 83.789062 150.742188 84.28125 C 150.851562 84.558594 150.957031 84.835938 151.070312 85.109375 C 151.679688 86.644531 152.34375 88.160156 153.074219 89.664062 C 155.800781 95.328125 159.324219 100.734375 163.695312 105.773438 C 168.109375 110.859375 173.027344 115.148438 178.308594 118.664062 C 179.640625 119.554688 180.992188 120.390625 182.371094 121.179688 C 182.898438 121.480469 183.425781 121.777344 183.957031 122.058594 C 185.230469 122.75 186.523438 123.398438 187.832031 124 C 192.597656 126.21875 197.566406 127.894531 202.660156 129.042969 C 204.46875 129.453125 206.300781 129.800781 208.136719 130.070312 C 209.097656 130.214844 210.066406 130.34375 211.03125 130.449219 C 212.414062 130.609375 213.800781 130.722656 215.195312 130.800781 C 215.941406 130.847656 216.691406 130.878906 217.441406 130.902344 C 238.132812 131.523438 255.277344 124.226562 271.519531 110.125 " fill-opacity="1" fill-rule="nonzero"/><path fill="#000000" d="M 267.675781 52.253906 C 267.675781 52.675781 267.660156 53.101562 267.628906 53.527344 C 267.574219 54.316406 266.886719 54.914062 266.097656 54.855469 C 265.304688 54.800781 264.703125 54.109375 264.765625 53.324219 C 265.046875 49.382812 263.773438 45.558594 261.175781 42.570312 C 258.585938 39.582031 254.984375 37.785156 251.035156 37.503906 C 247.089844 37.226562 243.269531 38.5 240.285156 41.09375 C 239.683594 41.613281 238.777344 41.550781 238.257812 40.953125 C 237.738281 40.351562 237.800781 39.445312 238.402344 38.925781 C 241.96875 35.832031 246.527344 34.308594 251.238281 34.640625 C 255.949219 34.976562 260.25 37.125 263.34375 40.691406 C 266.160156 43.933594 267.675781 48 267.675781 52.253906 " fill-opacity="1" fill-rule="nonzero"/><path fill="#000000" d="M 246.375 27.714844 C 246.375 28.136719 246.359375 28.5625 246.328125 28.988281 C 245.996094 33.699219 243.847656 38 240.285156 41.09375 C 239.683594 41.613281 238.777344 41.550781 238.257812 40.953125 C 237.738281 40.351562 237.800781 39.445312 238.402344 38.925781 C 241.390625 36.335938 243.1875 32.730469 243.46875 28.785156 C 243.746094 24.835938 242.472656 21.019531 239.878906 18.03125 C 237.285156 15.042969 233.683594 13.246094 229.738281 12.964844 C 228.945312 12.910156 228.339844 12.21875 228.40625 11.433594 C 228.460938 10.644531 229.148438 10.046875 229.941406 10.101562 C 234.648438 10.4375 238.949219 12.585938 242.046875 16.148438 C 244.863281 19.394531 246.375 23.460938 246.375 27.714844 " fill-opacity="1" fill-rule="nonzero"/><path fill="#000000" d="M 224.898438 36.097656 C 222.71875 35.734375 220.691406 37.398438 220.703125 39.605469 C 220.714844 42.984375 222.546875 47.597656 226.058594 51.644531 C 229.445312 55.546875 233.75 57.832031 237.054688 58.425781 C 239.292969 58.828125 241.335938 57.0625 241.28125 54.789062 L 240.90625 38.753906 L 224.898438 36.097656 " fill-opacity="1" fill-rule="nonzero"/><path fill="#000000" d="M 200.609375 41.828125 C 203.007812 39.660156 204.769531 37.207031 205.738281 34.910156 C 204.179688 33.910156 202.65625 32.589844 201.273438 31 C 200.230469 29.796875 199.355469 28.535156 198.660156 27.265625 C 196.3125 28.003906 193.746094 29.492188 191.390625 31.617188 C 186.136719 36.355469 183.9375 42.488281 186.484375 45.308594 C 189.027344 48.128906 195.351562 46.574219 200.609375 41.828125 " fill-opacity="1" fill-rule="nonzero"/><path fill="#fff897" d="M 196.859375 43.234375 C 198.8125 41.472656 199.503906 39.054688 198.40625 37.839844 C 197.308594 36.621094 194.832031 37.0625 192.878906 38.824219 C 190.925781 40.585938 190.234375 43 191.335938 44.21875 C 192.433594 45.4375 194.90625 44.996094 196.859375 43.234375 " fill-opacity="1" fill-rule="nonzero"/><path fill="#fff897" d="M 197.964844 33.71875 C 198.8125 32.957031 198.90625 31.683594 198.179688 30.875 C 197.449219 30.066406 196.171875 30.03125 195.324219 30.792969 C 194.480469 31.554688 194.386719 32.832031 195.113281 33.640625 C 195.84375 34.449219 197.121094 34.484375 197.964844 33.71875 " fill-opacity="1" fill-rule="nonzero"/><path fill="#000000" d="M 241.140625 86.753906 C 243.191406 84.902344 244.78125 82.84375 245.800781 80.84375 C 244.699219 79.996094 243.628906 78.992188 242.632812 77.84375 C 241.070312 76.046875 239.882812 74.109375 239.109375 72.21875 C 236.789062 72.972656 234.253906 74.441406 231.929688 76.542969 C 226.671875 81.28125 224.472656 87.414062 227.015625 90.238281 C 229.558594 93.058594 235.882812 91.5 241.140625 86.753906 " fill-opacity="1" fill-rule="nonzero"/><path fill="#fff897" d="M 237.394531 88.164062 C 239.347656 86.402344 240.039062 83.988281 238.941406 82.769531 C 237.839844 81.550781 235.367188 81.988281 233.414062 83.753906 C 231.460938 85.515625 230.769531 87.933594 231.867188 89.148438 C 232.96875 90.367188 235.441406 89.925781 237.394531 88.164062 " fill-opacity="1" fill-rule="nonzero"/><path fill="#fff897" d="M 238.5 78.652344 C 239.347656 77.886719 239.441406 76.613281 238.710938 75.804688 C 237.984375 74.996094 236.707031 74.960938 235.859375 75.722656 C 235.015625 76.488281 234.921875 77.757812 235.648438 78.566406 C 236.378906 79.375 237.65625 79.414062 238.5 78.652344 " fill-opacity="1" fill-rule="nonzero"/><path fill="#fff897" d="M 222.660156 40.738281 C 223.371094 40.382812 224.8125 41.828125 225.882812 43.960938 C 226.953125 46.097656 227.246094 48.121094 226.535156 48.476562 C 225.824219 48.832031 224.382812 47.386719 223.3125 45.25 C 222.242188 43.117188 221.949219 41.09375 222.660156 40.738281 " fill-opacity="1" fill-rule="nonzero"/><path fill="#e2b894" d="M 243.039062 61.671875 C 246.175781 58.953125 252.417969 61.015625 256.988281 66.277344 C 261.554688 71.542969 262.71875 78.011719 259.585938 80.730469 C 256.453125 83.453125 250.207031 81.390625 245.640625 76.125 C 241.070312 70.863281 239.90625 64.390625 243.039062 61.671875 " fill-opacity="1" fill-rule="nonzero"/><path fill="#e2b894" d="M 200.226562 13.90625 C 203.359375 11.1875 209.601562 13.246094 214.171875 18.511719 C 218.742188 23.773438 219.902344 30.246094 216.769531 32.964844 C 213.636719 35.683594 207.394531 33.621094 202.828125 28.359375 C 198.257812 23.097656 197.09375 16.625 200.226562 13.90625 " fill-opacity="1" fill-rule="nonzero"/></svg>