<svg xmlns="http://www.w3.org/2000/svg" xmlns:xlink="http://www.w3.org/1999/xlink" width="500" zoomAndPan="magnify" viewBox="0 0 375 374.999991" height="500" preserveAspectRatio="xMidYMid meet" version="1.0"><defs><clipPath id="0b9e7033a6"><path d="M 289 48 L 364.066406 48 L 364.066406 90 L 289 90 Z M 289 48 " clip-rule="nonzero"/></clipPath><clipPath id="44471a646e"><path d="M 10.816406 195 L 55 195 L 55 296 L 10.816406 296 Z M 10.816406 195 " clip-rule="nonzero"/></clipPath></defs><path stroke-linecap="butt" transform="matrix(0.75, 0, 0, 0.75, -3.931785, -6.651588)" fill="none" stroke-linejoin="miter" d="M 403.435141 80.316711 C 409.653892 69.342751 414.534101 57.634416 417.659101 45.394831 C 418.643476 41.545872 419.205976 37.842747 419.357018 34.285455 C 419.622643 27.873996 417.377851 20.780245 410.778892 18.452119 C 408.278891 17.566703 405.685141 17.441703 403.008057 18.077119 C 390.679931 20.993786 386.919514 35.337538 385.205972 46.316706 C 383.46118 57.483375 382.862221 69.134418 383.414305 81.269836 C 383.685138 87.264628 384.346597 93.472963 386.169514 99.207338 C 386.528889 100.342755 387.034097 101.347964 387.67993 102.228172 C 388.961181 103.962547 390.560139 102.061505 391.242431 100.95213 C 395.544515 93.952129 399.612224 87.077128 403.435141 80.316711 " stroke="#fad7ea" stroke-width="2" stroke-opacity="1" stroke-miterlimit="4"/><g clip-path="url(#0b9e7033a6)"><path stroke-linecap="butt" transform="matrix(0.75, 0, 0, 0.75, -3.931785, -6.651588)" fill="none" stroke-linejoin="miter" d="M 481.388276 107.769839 C 482.591401 105.728172 483.075776 103.535464 482.841401 101.191714 C 482.299734 95.769838 477.99765 91.535462 473.232025 89.00942 C 469.705983 87.139628 465.872649 85.941712 461.726815 85.420878 C 452.758064 84.301086 443.679938 85.97817 435.330978 89.285462 C 427.107019 92.540671 419.409101 96.972963 412.237225 102.582339 C 410.091392 104.259422 408.00285 105.910464 405.971599 107.545881 C 404.763266 108.514631 402.195557 110.587548 403.648682 112.118798 C 404.653891 113.17609 406.898683 113.311507 408.304933 113.415673 C 418.570559 114.212549 428.122644 115.097965 436.966395 116.077132 C 442.518479 116.691716 447.89348 117.144841 453.502856 117.337549 C 456.440356 117.431299 459.466398 117.337549 462.570565 117.040674 C 469.554941 116.384424 477.679942 114.040674 481.388276 107.769839 " stroke="#fad7ea" stroke-width="2" stroke-opacity="1" stroke-miterlimit="4"/></g><path fill="#dea036" d="M 86.054688 183.523438 L 94.371094 176.570312 C 94.667969 176.324219 95.003906 176.140625 95.375 176.023438 C 95.746094 175.90625 96.125 175.867188 96.511719 175.902344 C 96.898438 175.933594 97.265625 176.042969 97.609375 176.222656 C 97.957031 176.402344 98.253906 176.640625 98.5 176.941406 L 98.605469 177.0625 C 98.855469 177.363281 99.035156 177.695312 99.152344 178.066406 C 99.269531 178.4375 99.3125 178.820312 99.277344 179.207031 C 99.242188 179.59375 99.132812 179.960938 98.953125 180.304688 C 98.773438 180.648438 98.535156 180.945312 98.234375 181.195312 L 89.917969 188.148438 C 89.621094 188.398438 89.285156 188.582031 88.914062 188.699219 C 88.542969 188.8125 88.164062 188.855469 87.777344 188.820312 C 87.390625 188.785156 87.023438 188.679688 86.679688 188.496094 C 86.335938 188.316406 86.039062 188.078125 85.789062 187.78125 L 85.683594 187.65625 C 85.4375 187.359375 85.253906 187.023438 85.136719 186.652344 C 85.019531 186.28125 84.980469 185.902344 85.015625 185.515625 C 85.046875 185.128906 85.15625 184.761719 85.335938 184.417969 C 85.515625 184.070312 85.753906 183.773438 86.054688 183.523438 Z M 86.054688 183.523438 " fill-opacity="1" fill-rule="nonzero"/><path fill="#dea036" d="M 340.601562 278.820312 C 340.394531 278.792969 340.191406 278.796875 339.996094 278.835938 C 338.835938 279.074219 337.550781 279.441406 336.144531 279.945312 C 333.089844 281.039062 329.875 282.257812 326.503906 283.601562 C 325.097656 284.160156 322.71875 284.964844 322.210938 286.5 C 320.828125 290.691406 319.457031 294.714844 317.519531 298.730469 C 316.960938 299.890625 316.316406 301.023438 315.59375 302.128906 C 314.21875 304.222656 312.179688 304.921875 309.847656 305.378906 C 307.152344 305.90625 304.371094 305.976562 301.5 305.589844 C 298.042969 305.125 295.210938 303.917969 294.773438 299.957031 C 294.65625 298.878906 294.667969 297.738281 294.804688 296.542969 C 295.132812 293.664062 295.570312 290.769531 296.109375 287.851562 C 296.898438 283.609375 297.636719 279.496094 298.328125 275.515625 C 298.640625 273.726562 298.96875 271.980469 299.3125 270.277344 C 300.667969 263.554688 302.132812 256.484375 303.714844 249.070312 C 304.097656 247.285156 304.453125 245.539062 304.789062 243.835938 C 306.757812 233.792969 308.664062 224.011719 310.507812 214.484375 C 311.292969 210.453125 311.875 206.429688 312.644531 202.507812 C 313.039062 200.503906 313.683594 198.566406 314.152344 196.582031 C 314.277344 196.046875 314.726562 195.632812 315.21875 195.429688 C 317.269531 194.585938 318.984375 194.609375 321.144531 194.90625 C 328.886719 195.980469 332.890625 202.164062 336.078125 208.71875 C 336.703125 210.007812 337.332031 211.273438 337.96875 212.507812 C 339.164062 214.835938 340.3125 217.957031 341.417969 221.875 C 342.511719 225.742188 343.589844 229.683594 344.648438 233.699219 C 346.34375 240.113281 347.085938 246.714844 348.355469 253.632812 C 349.386719 259.273438 350.421875 264.898438 351.464844 270.507812 C 352.367188 275.390625 352.976562 280.402344 353.222656 285.25 C 353.375 288.191406 353.082031 292.136719 349.355469 292.609375 C 347.296875 292.871094 345.277344 291.722656 344.070312 290.09375 C 341.796875 287.03125 341.421875 283.03125 341.003906 279.234375 C 340.976562 278.992188 340.84375 278.855469 340.601562 278.820312 Z M 332.734375 238.644531 L 325.851562 274.527344 C 325.828125 274.65625 325.875 274.699219 325.996094 274.660156 L 340.273438 270.105469 C 340.34375 270.082031 340.371094 270.035156 340.351562 269.960938 L 332.910156 238.640625 C 332.847656 238.371094 332.789062 238.371094 332.734375 238.644531 Z M 332.734375 238.644531 " fill-opacity="1" fill-rule="nonzero"/><path fill="#dea036" d="M 86.480469 295.847656 C 85.667969 299.539062 84.902344 303.28125 83.785156 306.882812 C 82.25 311.816406 79.289062 315.414062 73.78125 312.066406 C 70.835938 310.28125 67.910156 308.132812 65 305.625 C 62.886719 303.800781 60.980469 301.390625 60.65625 298.574219 C 60.570312 297.800781 60.667969 296.714844 60.957031 295.316406 C 67.882812 261.84375 74.734375 228.742188 81.507812 196.011719 C 81.664062 195.277344 82.925781 195.074219 83.53125 195.15625 C 89.269531 195.894531 94.75 197.527344 98.132812 202.402344 C 99.40625 204.234375 100.503906 206.175781 101.421875 208.195312 C 103.019531 211.703125 104.4375 215.640625 105.683594 220.007812 C 110.445312 236.707031 113.011719 253.523438 115.046875 270.835938 C 116.90625 286.640625 118.597656 301.25 120.128906 314.675781 C 120.238281 315.648438 120.253906 316.609375 120.175781 317.5625 C 120.050781 319.050781 119.0625 320.148438 117.574219 320.308594 C 113.792969 320.71875 111.53125 313.660156 110.808594 311.015625 C 109.535156 306.359375 108.652344 301.785156 107.429688 296.867188 C 107.375 296.644531 107.234375 296.527344 107.007812 296.511719 C 100.554688 296.078125 93.976562 295.523438 87.632812 295.617188 C 87.335938 295.621094 87.011719 295.644531 86.664062 295.683594 C 86.5625 295.695312 86.503906 295.75 86.480469 295.847656 Z M 100.433594 240.585938 C 100.367188 240.042969 100.292969 240.042969 100.210938 240.578125 C 100.1875 240.738281 100.160156 240.894531 100.128906 241.046875 C 97.164062 255.859375 94.160156 270.742188 91.121094 285.699219 C 91.109375 285.746094 91.128906 285.773438 91.179688 285.773438 L 106.03125 286.546875 C 106.121094 286.550781 106.160156 286.507812 106.152344 286.417969 Z M 100.433594 240.585938 " fill-opacity="1" fill-rule="nonzero"/><path fill="#dea036" d="M 211.957031 307.492188 C 211.976562 307.539062 212.011719 307.5625 212.0625 307.566406 C 212.113281 307.574219 212.15625 307.554688 212.1875 307.515625 C 213.765625 305.375 214.828125 302.605469 215.71875 300.058594 C 216.652344 297.378906 217.660156 294.457031 218.734375 291.285156 C 219.277344 289.683594 219.902344 288.160156 220.613281 286.71875 C 221.1875 285.554688 222.046875 284.304688 223.261719 283.765625 C 225.390625 282.816406 227.132812 284.542969 227.375 286.550781 C 227.503906 287.605469 227.496094 288.667969 227.347656 289.746094 C 226.65625 294.820312 225.613281 299.933594 224.226562 305.089844 C 222.433594 311.75 219.773438 318.980469 213.582031 322.75 C 208.882812 325.613281 203.242188 326.066406 198.167969 323.972656 C 188.054688 319.792969 184.183594 308.234375 182.640625 298.324219 C 181.796875 292.878906 181.320312 286.808594 181.210938 280.113281 C 181.019531 268.132812 181.171875 256.550781 181.667969 245.359375 C 182.007812 237.734375 182.941406 229.863281 185.34375 222.511719 C 185.988281 220.53125 186.871094 218.566406 187.511719 216.613281 C 187.691406 216.074219 188.003906 215.585938 188.183594 215.042969 C 189.261719 211.75 190.492188 208.785156 192.304688 205.949219 C 196.808594 198.902344 205.363281 193.683594 213.972656 195.601562 C 219.449219 196.820312 224.203125 200.707031 225.679688 206.238281 C 226.015625 207.476562 226.242188 208.796875 226.367188 210.199219 C 226.59375 212.710938 226.667969 215.269531 226.597656 217.878906 C 226.542969 219.925781 226.132812 223.085938 223.398438 223.179688 C 221.707031 223.238281 220.523438 221.945312 220.648438 220.25 C 220.78125 218.449219 220.898438 216.789062 220.511719 214.957031 C 219.484375 210.113281 218.265625 205.785156 213.269531 204.140625 C 213.179688 204.113281 213.089844 204.117188 213 204.160156 C 211.15625 205.054688 209.921875 207.414062 209.476562 209.433594 C 208.839844 212.292969 208.746094 215.480469 208.722656 218.472656 C 208.65625 226.070312 208.722656 233.523438 208.59375 240.980469 C 208.457031 248.582031 208.347656 256.171875 208.257812 263.75 C 208.128906 274.957031 208.582031 285.800781 209.621094 296.289062 C 209.882812 298.914062 210.324219 301.648438 210.945312 304.496094 C 211.1875 305.601562 211.523438 306.601562 211.957031 307.492188 Z M 211.957031 307.492188 " fill-opacity="1" fill-rule="nonzero"/><g clip-path="url(#44471a646e)"><path fill="#dea036" d="M 34.398438 260.15625 C 34.367188 260.539062 34.34375 260.925781 34.332031 261.308594 C 34 272.035156 33.667969 282.808594 33.332031 293.632812 C 33.289062 295.027344 29.097656 295.453125 28.128906 295.476562 C 22.691406 295.617188 16.367188 294.183594 11.550781 291.425781 C 11.082031 291.15625 10.847656 290.753906 10.847656 290.21875 C 10.878906 259.886719 10.894531 229.1875 10.890625 198.125 C 10.890625 197.304688 10.949219 196.070312 12.019531 195.949219 C 17.621094 195.308594 23.046875 195.558594 28.304688 196.707031 C 42.179688 199.726562 53.5 209.777344 54.144531 224.632812 C 54.761719 238.820312 45.589844 251.835938 34.539062 259.910156 C 34.453125 259.96875 34.40625 260.050781 34.398438 260.15625 Z M 44.429688 236.15625 C 48.378906 224.859375 44.007812 210.914062 33.195312 205.152344 C 33.171875 205.136719 33.144531 205.136719 33.117188 205.152344 C 33.09375 205.171875 33.082031 205.195312 33.082031 205.222656 L 34.082031 247.640625 C 34.085938 247.757812 34.140625 247.789062 34.242188 247.742188 C 39.125 245.511719 42.664062 241.214844 44.429688 236.15625 Z M 44.429688 236.15625 " fill-opacity="1" fill-rule="nonzero"/></g><path fill="#dea036" d="M 245.347656 212.890625 C 247.285156 206.765625 250.65625 199.097656 257.320312 197.042969 C 260.117188 196.183594 263.105469 196.742188 265.828125 197.800781 C 269.953125 199.398438 273.433594 201.578125 276.277344 204.332031 C 278.058594 206.058594 279.589844 208.207031 280.875 210.773438 C 283.644531 216.308594 285.460938 222.160156 286.328125 228.324219 C 286.609375 230.308594 286.820312 232.226562 286.96875 234.070312 C 287.953125 246.390625 287.3125 258.914062 285.042969 271.640625 C 283.660156 279.410156 281.828125 287.089844 279.550781 294.636719 C 277.273438 302.191406 272.1875 316.449219 262.960938 317.628906 C 261.574219 317.808594 260.199219 318.144531 258.8125 318.1875 C 252.710938 318.367188 247.609375 314.535156 244.15625 309.570312 C 239.761719 303.257812 237.402344 295.074219 236.378906 287.324219 C 235.679688 282.035156 235.433594 276.582031 235.644531 270.960938 C 235.914062 263.640625 236.621094 256.140625 237.769531 248.46875 C 239.128906 239.386719 240.835938 230.5 242.894531 221.800781 C 243.609375 218.773438 244.425781 215.800781 245.347656 212.890625 Z M 268.714844 222.222656 C 265.511719 235.035156 263.207031 247.84375 262.265625 260.679688 C 262.101562 262.960938 262.042969 265.679688 262.097656 268.828125 C 262.296875 280.472656 263.984375 291.910156 267.15625 303.148438 C 267.226562 303.398438 267.316406 303.40625 267.425781 303.171875 C 268.875 300.078125 270.035156 296.839844 270.910156 293.449219 C 272.390625 287.707031 273.613281 280.902344 274.578125 273.03125 C 275.722656 263.714844 276.5 254.625 276.902344 245.75 C 277.074219 242.035156 277.097656 238.957031 276.972656 236.515625 C 276.847656 234.070312 276.628906 231.121094 276.324219 227.664062 C 276.15625 225.757812 275.960938 223.96875 275.738281 222.285156 C 275.175781 218.03125 273.945312 213.902344 272.050781 209.890625 C 271.933594 209.648438 271.835938 209.65625 271.75 209.910156 C 271.734375 209.960938 271.730469 210.054688 271.742188 210.191406 C 271.746094 210.292969 271.738281 210.390625 271.714844 210.484375 C 270.699219 214.367188 269.699219 218.277344 268.714844 222.222656 Z M 268.714844 222.222656 " fill-opacity="1" fill-rule="nonzero"/><path fill="#dea036" d="M 157.628906 199.351562 C 162.019531 201.292969 164.886719 204.511719 166.222656 209.003906 C 167.074219 211.859375 167.738281 217.660156 164.472656 219.460938 C 163.964844 219.738281 163.425781 219.84375 162.847656 219.777344 C 160.15625 219.460938 160.382812 216.4375 160.296875 214.535156 C 160.199219 212.472656 159.316406 209.886719 157.359375 208.976562 C 156.535156 208.589844 155.761719 208.65625 155.035156 209.167969 C 152.601562 210.894531 152.71875 215.804688 153.007812 218.378906 C 153.3125 221.066406 153.945312 224.074219 154.90625 227.402344 C 158.550781 239.976562 162.476562 252.25 166.691406 264.222656 C 169.644531 272.609375 172.441406 281.417969 173.351562 290.007812 C 174.382812 299.679688 172.367188 309.332031 166.457031 316.929688 C 165.480469 318.183594 164.355469 319.316406 163.082031 320.335938 C 155.234375 326.605469 145.707031 323.6875 139.855469 316.472656 C 135.886719 311.578125 133.722656 305.253906 132.34375 298.9375 C 131.742188 296.167969 130.742188 291.023438 134.007812 289.390625 C 135.011719 288.886719 136.007812 288.867188 136.988281 289.324219 C 138.074219 289.832031 138.445312 290.945312 138.511719 292.070312 C 138.582031 293.300781 138.664062 294.449219 138.757812 295.515625 C 139.257812 301.011719 141.285156 307 145.023438 311.015625 C 145.859375 311.917969 147.621094 313.414062 148.941406 313.121094 C 150.214844 312.839844 151.226562 310.777344 151.492188 309.6875 C 151.699219 308.832031 151.835938 307.996094 151.902344 307.191406 C 152.078125 305.089844 152.234375 302.773438 152.363281 300.238281 C 152.71875 293.445312 151.355469 286.464844 149.042969 279.871094 C 145.65625 270.234375 140.632812 261.050781 135.738281 251.714844 C 133.414062 247.28125 131.640625 243.101562 130.417969 239.171875 C 127.601562 230.109375 127.679688 220.355469 131.546875 211.753906 C 134.382812 205.433594 139.695312 199.707031 146.660156 198.230469 C 150.464844 197.425781 154.117188 197.796875 157.628906 199.351562 Z M 157.628906 199.351562 " fill-opacity="1" fill-rule="nonzero"/><path fill="#dea036" d="M 196.78125 337.960938 L 196.855469 337.917969 C 197.195312 337.714844 197.558594 337.585938 197.949219 337.527344 C 198.339844 337.46875 198.726562 337.484375 199.109375 337.582031 C 199.492188 337.675781 199.84375 337.84375 200.160156 338.078125 C 200.480469 338.3125 200.738281 338.597656 200.941406 338.9375 L 215.828125 363.714844 C 216.03125 364.050781 216.164062 364.417969 216.222656 364.808594 C 216.28125 365.199219 216.261719 365.585938 216.167969 365.96875 C 216.070312 366.351562 215.90625 366.703125 215.671875 367.019531 C 215.4375 367.335938 215.148438 367.597656 214.808594 367.800781 L 214.738281 367.84375 C 214.398438 368.046875 214.035156 368.179688 213.644531 368.238281 C 213.253906 368.296875 212.867188 368.277344 212.480469 368.179688 C 212.097656 368.085938 211.75 367.921875 211.429688 367.683594 C 211.113281 367.449219 210.851562 367.164062 210.648438 366.824219 L 195.761719 342.050781 C 195.558594 341.710938 195.429688 341.347656 195.371094 340.957031 C 195.3125 340.566406 195.332031 340.179688 195.425781 339.796875 C 195.523438 339.410156 195.6875 339.0625 195.921875 338.742188 C 196.15625 338.425781 196.445312 338.167969 196.78125 337.960938 Z M 196.78125 337.960938 " fill-opacity="1" fill-rule="nonzero"/><path fill="#dea036" d="M 156.25 338.855469 L 156.328125 338.898438 C 156.679688 339.078125 156.980469 339.320312 157.234375 339.621094 C 157.488281 339.921875 157.675781 340.261719 157.796875 340.636719 C 157.914062 341.011719 157.957031 341.398438 157.921875 341.789062 C 157.890625 342.183594 157.78125 342.554688 157.601562 342.90625 L 144.816406 367.570312 C 144.632812 367.921875 144.394531 368.222656 144.089844 368.476562 C 143.789062 368.730469 143.449219 368.917969 143.074219 369.035156 C 142.699219 369.15625 142.316406 369.199219 141.921875 369.164062 C 141.53125 369.128906 141.15625 369.023438 140.808594 368.839844 L 140.726562 368.800781 C 140.378906 368.617188 140.074219 368.375 139.820312 368.074219 C 139.566406 367.773438 139.378906 367.433594 139.261719 367.058594 C 139.140625 366.683594 139.097656 366.300781 139.132812 365.90625 C 139.167969 365.511719 139.273438 365.140625 139.457031 364.792969 L 152.242188 340.125 C 152.421875 339.777344 152.664062 339.476562 152.964844 339.222656 C 153.265625 338.96875 153.605469 338.78125 153.980469 338.660156 C 154.359375 338.542969 154.742188 338.5 155.132812 338.53125 C 155.527344 338.566406 155.898438 338.675781 156.25 338.855469 Z M 156.25 338.855469 " fill-opacity="1" fill-rule="nonzero"/><path fill="#dea036" d="M 178.011719 341.765625 L 178.128906 341.769531 C 178.523438 341.785156 178.898438 341.878906 179.253906 342.042969 C 179.609375 342.207031 179.921875 342.433594 180.1875 342.722656 C 180.457031 343.011719 180.65625 343.339844 180.792969 343.710938 C 180.929688 344.078125 180.988281 344.460938 180.972656 344.851562 L 179.882812 372.039062 C 179.863281 372.433594 179.773438 372.808594 179.609375 373.164062 C 179.445312 373.523438 179.21875 373.835938 178.929688 374.101562 C 178.640625 374.367188 178.3125 374.570312 177.941406 374.703125 C 177.574219 374.839844 177.191406 374.902344 176.800781 374.886719 L 176.683594 374.878906 C 176.289062 374.863281 175.914062 374.773438 175.558594 374.609375 C 175.199219 374.445312 174.886719 374.21875 174.621094 373.929688 C 174.355469 373.640625 174.152344 373.308594 174.019531 372.941406 C 173.882812 372.570312 173.820312 372.191406 173.839844 371.796875 L 174.929688 344.609375 C 174.945312 344.21875 175.035156 343.84375 175.199219 343.484375 C 175.367188 343.128906 175.59375 342.816406 175.882812 342.550781 C 176.171875 342.285156 176.5 342.082031 176.867188 341.945312 C 177.238281 341.8125 177.617188 341.75 178.011719 341.765625 Z M 178.011719 341.765625 " fill-opacity="1" fill-rule="nonzero"/><path fill="#decd36" d="M 312.5625 26.347656 C 309.394531 38.339844 304.425781 49.433594 297.902344 60.296875 C 295.199219 64.804688 292.492188 69.316406 289.691406 73.878906 C 288.894531 75.171875 288.09375 76.574219 286.960938 77.542969 C 284.175781 79.929688 282.261719 70.144531 282.023438 68.8125 C 281.507812 65.96875 281.144531 63.054688 280.925781 60.074219 C 280.261719 50.972656 280.453125 41.601562 281.5 31.953125 C 281.875 28.496094 282.382812 25.195312 283.019531 22.050781 C 284.226562 16.121094 286.171875 10.144531 290.152344 5.777344 C 293.355469 2.261719 297.964844 0.00390625 302.660156 0.324219 C 306.496094 0.578125 309.484375 2.203125 311.617188 5.199219 C 315.789062 11.042969 314.28125 19.859375 312.5625 26.347656 Z M 298.644531 53.585938 C 303.308594 45.355469 306.96875 36.574219 309.3125 27.394531 C 310.050781 24.507812 310.472656 21.730469 310.585938 19.0625 C 310.785156 14.253906 309.101562 8.933594 304.152344 7.1875 C 302.277344 6.523438 300.332031 6.429688 298.324219 6.90625 C 289.078125 9.09375 286.257812 19.851562 284.972656 28.085938 C 283.664062 36.460938 283.214844 45.199219 283.628906 54.300781 C 283.832031 58.796875 284.328125 63.453125 285.695312 67.753906 C 285.964844 68.605469 286.34375 69.359375 286.828125 70.019531 C 287.789062 71.320312 288.988281 69.894531 289.5 69.0625 C 292.726562 63.8125 295.777344 58.65625 298.644531 53.585938 Z M 298.644531 53.585938 " fill-opacity="1" fill-rule="nonzero"/><path fill="#decd36" d="M 319.328125 58.707031 C 329.929688 53.785156 342.972656 51.371094 353.816406 56.640625 C 358.121094 58.730469 362.1875 62.4375 363.191406 67.292969 C 363.835938 70.386719 363.222656 73.300781 361.351562 76.03125 C 358.398438 80.347656 353.054688 82.683594 347.878906 83.667969 C 343.335938 84.535156 338.804688 84.6875 334.191406 84.546875 C 330.875 84.449219 327.660156 84.265625 324.535156 84.003906 C 315.464844 83.238281 309.351562 82.773438 306.191406 82.605469 C 302.757812 82.421875 299.066406 82.210938 295.121094 81.96875 C 294.234375 81.917969 293.386719 81.742188 292.578125 81.441406 C 291.574219 81.078125 290.957031 80.054688 291.503906 79.054688 C 292.324219 77.558594 294.007812 76.253906 295.367188 75.089844 C 296.175781 74.398438 296.957031 73.714844 297.714844 73.039062 C 304.363281 67.085938 311.566406 62.308594 319.328125 58.707031 Z M 357.109375 74.175781 C 358.011719 72.644531 358.375 71 358.199219 69.242188 C 357.792969 65.175781 354.566406 62 350.992188 60.105469 C 348.347656 58.703125 345.472656 57.804688 342.363281 57.414062 C 335.636719 56.574219 328.828125 57.832031 322.566406 60.3125 C 316.398438 62.753906 310.625 66.078125 305.246094 70.285156 C 303.636719 71.542969 302.070312 72.78125 300.546875 74.007812 C 299.640625 74.734375 297.714844 76.289062 298.804688 77.4375 C 299.558594 78.230469 301.242188 78.332031 302.296875 78.410156 C 309.996094 79.007812 317.160156 79.671875 323.792969 80.40625 C 327.957031 80.867188 331.988281 81.207031 336.195312 81.351562 C 338.398438 81.421875 340.667969 81.351562 342.996094 81.128906 C 348.234375 80.636719 354.328125 78.878906 357.109375 74.175781 Z M 357.109375 74.175781 " fill-opacity="1" fill-rule="nonzero"/><path fill="#decd36" d="M 89.429688 93.121094 C 88.59375 107.003906 88.195312 121.113281 87.78125 135.128906 C 87.734375 136.832031 87.777344 138.527344 87.921875 140.214844 C 88.023438 141.414062 88.261719 142.660156 89.625 142.90625 C 90.207031 143.011719 90.78125 143.0625 91.351562 143.054688 C 94.9375 143.015625 98.742188 142.695312 102.179688 143.078125 C 104.175781 143.296875 106.269531 144.425781 106.742188 146.539062 C 107.351562 149.261719 105.160156 150.734375 102.746094 150.996094 C 101.367188 151.144531 99.886719 151.199219 98.3125 151.15625 C 95.664062 151.082031 93.019531 151.023438 90.378906 150.980469 C 89.769531 150.96875 89.097656 151.015625 88.363281 151.121094 C 87.039062 151.3125 86.304688 152.066406 86.160156 153.382812 C 86.035156 154.5 85.855469 155.597656 85.792969 156.726562 C 85.503906 161.867188 85.152344 166.621094 84.734375 170.992188 C 84.597656 172.417969 84.367188 173.839844 84.042969 175.246094 C 83.703125 176.714844 83.179688 178.359375 82.121094 179.425781 C 80.996094 180.558594 79.707031 181.183594 78.257812 181.300781 C 73.847656 181.664062 71.894531 178.625 71.421875 174.730469 C 71.1875 172.796875 71.09375 170.683594 71.144531 168.386719 C 71.226562 164.355469 71.324219 160.285156 71.4375 156.171875 C 71.664062 147.980469 72.144531 140.378906 72.875 133.367188 C 73.933594 123.277344 75.179688 112.75 75.253906 103.109375 C 75.289062 98.542969 75.335938 94.085938 75.398438 89.742188 C 75.421875 88.207031 75.507812 86.652344 75.660156 85.078125 C 75.890625 82.675781 76.1875 79.992188 76.550781 77.03125 C 76.773438 75.242188 77.566406 73.601562 79.246094 72.824219 C 80.0625 72.445312 80.886719 72.164062 81.726562 71.980469 C 83.511719 71.59375 85.324219 71.359375 87.164062 71.277344 C 93.171875 71.019531 99.429688 71.148438 105.941406 71.664062 C 108.179688 71.839844 110.09375 72.175781 111.675781 72.671875 C 112.542969 72.941406 113.261719 73.378906 113.824219 73.992188 C 115.222656 75.511719 114.433594 77.539062 112.714844 78.382812 C 111.871094 78.796875 110.875 79.0625 109.726562 79.179688 C 104.617188 79.691406 99.542969 79.265625 94.355469 79.300781 C 93.265625 79.308594 91.664062 79.585938 91.074219 80.640625 C 90.6875 81.332031 90.4375 82.152344 90.324219 83.105469 C 89.933594 86.433594 89.632812 89.773438 89.429688 93.121094 Z M 89.429688 93.121094 " fill-opacity="1" fill-rule="nonzero"/><path fill="#decd36" d="M 127.511719 153.128906 C 127.140625 158.960938 126.8125 164.464844 126.527344 169.648438 C 126.472656 170.660156 126.46875 171.773438 126.511719 172.992188 C 126.519531 173.242188 126.566406 173.472656 126.648438 173.679688 C 126.679688 173.765625 126.742188 173.816406 126.832031 173.832031 C 128.359375 174.109375 129.992188 174.265625 131.722656 174.296875 C 135.953125 174.382812 141.203125 174.363281 144.160156 178.011719 C 145.550781 179.722656 144.628906 181.945312 142.695312 182.640625 C 141.03125 183.246094 138.980469 183.078125 137.179688 183.011719 C 132.054688 182.832031 127.199219 182.617188 122.621094 182.367188 C 121.769531 182.320312 120.722656 182.167969 119.480469 181.910156 C 115.503906 181.074219 113.011719 178.875 112.449219 174.535156 C 111.835938 169.808594 112.453125 165.339844 112.828125 160.699219 C 113.386719 153.75 113.933594 146.914062 114.46875 140.195312 C 115.109375 132.132812 116.101562 124.132812 116.246094 116.058594 C 116.324219 111.636719 116.429688 107.183594 116.5625 102.695312 C 116.617188 100.765625 116.746094 98.476562 116.949219 95.828125 C 117.304688 91.128906 117.738281 85.84375 118.242188 79.964844 C 118.285156 79.453125 118.410156 78.78125 118.625 77.953125 C 119.21875 75.65625 120.574219 74.964844 122.722656 74.777344 C 129.78125 74.160156 136.992188 74.015625 144.351562 74.347656 C 147.410156 74.488281 150.542969 74.734375 153.316406 75.847656 C 154.828125 76.457031 156.566406 77.835938 156.691406 79.558594 C 156.941406 82.960938 151.71875 83.429688 149.5 83.4375 C 146.339844 83.449219 143.230469 83.445312 140.183594 83.421875 C 139.367188 83.414062 138.46875 83.53125 137.488281 83.773438 C 135.359375 84.289062 134.234375 85.691406 133.632812 87.664062 C 133.1875 89.125 132.859375 90.765625 132.648438 92.589844 C 131.976562 98.390625 131.554688 104.042969 131.386719 109.550781 C 131.273438 113.25 131.308594 117.273438 131.132812 120.835938 C 130.714844 129.269531 129.945312 137.683594 128.816406 146.082031 C 128.808594 146.132812 128.824219 146.179688 128.863281 146.214844 C 128.902344 146.253906 128.949219 146.265625 129 146.253906 C 131.046875 145.851562 133.152344 145.757812 135.316406 145.980469 C 137.132812 146.171875 139.832031 147.0625 140.5 148.921875 C 141.367188 151.351562 137.988281 152.5 136.300781 152.835938 C 133.542969 153.382812 130.625 153.320312 127.699219 152.976562 C 127.582031 152.964844 127.519531 153.015625 127.511719 153.128906 Z M 127.511719 153.128906 " fill-opacity="1" fill-rule="nonzero"/><path fill="#decd36" d="M 174.179688 76.121094 C 175.875 76.484375 177.3125 77.617188 177.703125 79.273438 C 177.972656 80.429688 178.070312 81.882812 177.984375 83.640625 C 177.734375 88.964844 177.238281 94.148438 176.636719 99.289062 C 176.449219 100.898438 176.316406 102.671875 176.246094 104.605469 C 175.996094 111.5 175.566406 118.425781 174.960938 125.378906 C 174.46875 131.042969 173.863281 136.507812 173.496094 142.066406 C 173.128906 147.605469 172.761719 153.019531 172.339844 158.492188 C 172.183594 160.539062 172.0625 162.589844 171.976562 164.644531 C 171.90625 166.328125 171.601562 168.109375 171.652344 169.777344 C 171.679688 170.601562 171.824219 171.503906 172.089844 172.480469 C 172.414062 173.683594 173.167969 174.402344 174.347656 174.636719 C 175.472656 174.863281 176.738281 174.9375 178.148438 174.867188 C 180.789062 174.730469 183.464844 174.683594 186.179688 174.726562 C 187.65625 174.746094 189.027344 174.902344 190.292969 175.191406 C 192.683594 175.734375 194.65625 177.550781 192.742188 180.066406 C 191.863281 181.222656 190.613281 181.996094 188.992188 182.386719 C 187.542969 182.734375 185.992188 182.960938 184.34375 183.058594 C 181.566406 183.230469 178.441406 183.351562 174.96875 183.425781 C 171.359375 183.507812 167.910156 183.742188 164.367188 183.726562 C 163.191406 183.71875 161.960938 183.609375 160.679688 183.390625 C 157.652344 182.875 155.824219 181.304688 155.460938 178.144531 C 155.273438 176.519531 155.246094 174.847656 155.382812 173.125 C 155.808594 167.707031 156.574219 162.105469 156.914062 156.675781 C 157.363281 149.480469 157.851562 142.144531 158.378906 134.671875 C 158.769531 129.160156 159.515625 121.007812 160.617188 110.21875 C 160.890625 107.550781 161.125 104.480469 161.328125 101.003906 C 161.59375 96.453125 161.855469 92.023438 162.113281 87.710938 C 162.261719 85.210938 162.597656 82.871094 163.128906 80.691406 C 163.886719 77.554688 166.125 75.445312 169.550781 75.5625 C 171.152344 75.617188 172.695312 75.804688 174.179688 76.121094 Z M 174.179688 76.121094 " fill-opacity="1" fill-rule="nonzero"/><path fill="#decd36" d="M 205.929688 175.011719 L 207.574219 87.316406 C 207.578125 87.230469 207.535156 87.1875 207.449219 87.179688 C 206.320312 87.101562 205.191406 86.882812 204.070312 86.519531 C 202.507812 86.015625 200.789062 84.769531 201.195312 82.960938 C 201.71875 80.652344 205.207031 79.941406 207.105469 79.914062 C 209.941406 79.871094 212.886719 79.925781 215.75 79.8125 C 218.871094 79.683594 222.152344 79.546875 225.59375 79.402344 C 227.695312 79.3125 229.71875 79.347656 231.664062 79.503906 C 234.003906 79.695312 234.964844 81.664062 233.828125 83.632812 C 232.777344 85.441406 230.132812 85.996094 228.132812 86.222656 C 226.488281 86.40625 224.867188 86.546875 223.265625 86.636719 C 223.183594 86.640625 223.140625 86.683594 223.136719 86.765625 L 218.363281 174.71875 C 218.359375 174.808594 218.402344 174.855469 218.496094 174.855469 C 221.109375 174.855469 223.789062 174.84375 226.53125 174.8125 C 226.894531 174.808594 227.230469 174.902344 227.535156 175.089844 C 228.542969 175.710938 229.003906 176.617188 228.925781 177.808594 C 228.785156 179.941406 226.910156 180.929688 225.050781 181.269531 C 223.054688 181.628906 220.9375 181.890625 218.699219 182.046875 C 215.859375 182.25 212.902344 182.40625 209.828125 182.511719 C 206.816406 182.613281 204.050781 182.457031 201.539062 182.039062 C 200.550781 181.875 199.691406 181.460938 198.964844 180.789062 C 198.019531 179.917969 198 178.503906 198.855469 177.546875 C 200.472656 175.746094 203.398438 175.363281 205.757812 175.195312 C 205.871094 175.1875 205.929688 175.125 205.929688 175.011719 Z M 205.929688 175.011719 " fill-opacity="1" fill-rule="nonzero"/><path fill="#decd36" d="M 257.511719 147.257812 C 260.824219 147.214844 264.128906 147.21875 267.40625 147.546875 C 269.476562 147.757812 272.402344 148.488281 273.238281 150.589844 C 274.546875 153.875 271.558594 155.488281 268.773438 155.777344 C 267.296875 155.933594 265.769531 156.007812 264.1875 156.007812 C 260.863281 156.007812 257.414062 155.976562 253.84375 155.914062 C 253.722656 155.910156 253.640625 155.96875 253.59375 156.082031 L 246.472656 174.21875 C 246.433594 174.3125 246.46875 174.363281 246.570312 174.363281 C 249.886719 174.421875 253.109375 174.390625 256.242188 174.277344 C 260.421875 174.125 263.410156 174.042969 266.800781 174.171875 C 268.835938 174.25 271.226562 174.414062 273.105469 175.308594 C 274.867188 176.144531 275.632812 177.855469 274.445312 179.542969 C 272.972656 181.648438 270.636719 182.300781 268.152344 182.601562 C 266.488281 182.808594 264.894531 182.949219 263.367188 183.019531 C 258.835938 183.234375 254.210938 183.300781 249.496094 183.214844 C 246.800781 183.167969 244.136719 182.96875 241.5 182.621094 C 239.351562 182.332031 237.394531 181.8125 235.632812 181.054688 C 233.621094 180.191406 232.195312 178.523438 232.214844 176.242188 C 232.21875 175.136719 232.402344 173.972656 232.757812 172.742188 C 233.285156 170.917969 233.832031 169.324219 234.390625 167.964844 C 236.050781 163.929688 237.785156 159.953125 239.601562 156.039062 C 239.625 155.984375 239.621094 155.933594 239.589844 155.882812 C 239.554688 155.832031 239.507812 155.808594 239.445312 155.808594 C 237.808594 155.886719 236.394531 155.773438 235.203125 155.464844 C 232.199219 154.695312 232.46875 151.816406 232.953125 149.445312 C 233.191406 148.28125 234.625 147.824219 235.671875 147.730469 C 238.183594 147.519531 240.691406 147.425781 243.195312 147.449219 C 243.292969 147.449219 243.363281 147.40625 243.402344 147.316406 C 245.945312 141.257812 248.550781 135.082031 251.214844 128.789062 C 251.914062 127.140625 252.625 125.507812 253.347656 123.890625 C 256.753906 116.257812 260.113281 108.683594 263.421875 101.160156 C 264.90625 97.789062 266.542969 94.640625 268.300781 91.433594 C 268.734375 90.636719 269.082031 89.875 269.339844 89.148438 C 269.375 89.050781 269.34375 88.992188 269.242188 88.964844 C 268.953125 88.898438 268.652344 88.863281 268.34375 88.859375 C 266.804688 88.839844 265.230469 88.859375 263.621094 88.917969 C 259.96875 89.050781 255.527344 89.261719 250.300781 89.558594 C 248.417969 89.664062 246.105469 89.707031 244.226562 89.128906 C 241.949219 88.429688 240.28125 86.117188 241.855469 83.839844 C 242.375 83.085938 243.144531 82.664062 244.160156 82.578125 C 246.484375 82.382812 248.625 82.234375 250.582031 82.136719 C 256.3125 81.839844 261.699219 81.535156 266.738281 81.222656 C 271.761719 80.910156 276.035156 80.746094 279.566406 80.734375 C 280.632812 80.730469 281.738281 80.828125 282.886719 81.027344 C 288.007812 81.933594 286.589844 86.382812 285.160156 89.597656 C 284.332031 91.460938 283.546875 93.074219 282.8125 94.445312 C 278.132812 103.171875 274.074219 111.148438 270.632812 118.371094 C 267.390625 125.175781 263.992188 132.449219 260.433594 140.199219 C 259.394531 142.464844 258.378906 144.757812 257.390625 147.082031 C 257.339844 147.203125 257.378906 147.261719 257.511719 147.257812 Z M 257.511719 147.257812 " fill-opacity="1" fill-rule="nonzero"/><path fill="#f4afd5" d="M 309.3125 27.394531 C 306.96875 36.574219 303.308594 45.355469 298.644531 53.585938 C 295.777344 58.65625 292.726562 63.8125 289.5 69.0625 C 288.988281 69.894531 287.789062 71.320312 286.828125 70.019531 C 286.34375 69.359375 285.964844 68.605469 285.695312 67.753906 C 284.328125 63.453125 283.832031 58.796875 283.628906 54.300781 C 283.214844 45.199219 283.664062 36.460938 284.972656 28.085938 C 286.257812 19.851562 289.078125 9.09375 298.324219 6.90625 C 300.332031 6.429688 302.277344 6.523438 304.152344 7.1875 C 309.101562 8.933594 310.785156 14.253906 310.585938 19.0625 C 310.472656 21.730469 310.050781 24.507812 309.3125 27.394531 Z M 309.3125 27.394531 " fill-opacity="1" fill-rule="nonzero"/><path fill="#f4afd5" d="M 357.109375 74.175781 C 354.328125 78.878906 348.234375 80.636719 342.996094 81.128906 C 340.667969 81.351562 338.398438 81.421875 336.195312 81.351562 C 331.988281 81.207031 327.957031 80.867188 323.792969 80.40625 C 317.160156 79.671875 309.996094 79.007812 302.296875 78.410156 C 301.242188 78.332031 299.558594 78.230469 298.804688 77.4375 C 297.714844 76.289062 299.640625 74.734375 300.546875 74.007812 C 302.070312 72.78125 303.636719 71.542969 305.246094 70.285156 C 310.625 66.078125 316.398438 62.753906 322.566406 60.3125 C 328.828125 57.832031 335.636719 56.574219 342.363281 57.414062 C 345.472656 57.804688 348.347656 58.703125 350.992188 60.105469 C 354.566406 62 357.792969 65.175781 358.199219 69.242188 C 358.375 71 358.011719 72.644531 357.109375 74.175781 Z M 357.109375 74.175781 " fill-opacity="1" fill-rule="nonzero"/></svg>