<svg xmlns="http://www.w3.org/2000/svg" xmlns:xlink="http://www.w3.org/1999/xlink" width="275" zoomAndPan="magnify" viewBox="0 0 206.25 374.999989" height="500" preserveAspectRatio="xMidYMid meet" version="1.0"><defs><clipPath id="143b9319e2"><path d="M 0 1.523438 L 205.503906 1.523438 L 205.503906 373.671875 L 0 373.671875 Z M 0 1.523438 " clip-rule="nonzero"/></clipPath></defs><g clip-path="url(#143b9319e2)"><path fill="#fad8dd" d="M 24.503906 359.292969 C 24.503906 361.171875 23.828125 363.203125 23.226562 365.007812 C 21.949219 368.769531 19.695312 372.378906 16.085938 373.207031 C 14.582031 373.507812 13.152344 373.355469 11.953125 372.527344 C 10.597656 371.625 9.171875 370.273438 8.945312 368.390625 C 8.492188 365.160156 10.371094 361.324219 12.550781 359.140625 C 13.304688 358.390625 14.207031 357.714844 15.03125 357.113281 C 15.933594 356.433594 16.835938 355.832031 17.738281 355.308594 C 18.792969 354.628906 20.144531 353.953125 21.273438 354.554688 C 21.347656 354.554688 21.648438 354.855469 21.722656 354.855469 C 21.722656 354.855469 21.796875 354.929688 21.796875 354.929688 C 21.796875 354.929688 21.875 354.929688 21.875 355.007812 C 23.226562 355.832031 24.503906 357.1875 24.503906 359.292969 Z M 36.003906 352.824219 C 35.929688 352.449219 35.703125 352.074219 35.328125 351.847656 C 35.101562 351.695312 34.726562 351.621094 34.425781 351.621094 C 34.351562 351.621094 34.199219 351.546875 34.125 351.546875 C 33.75 351.546875 33.449219 351.621094 33.148438 351.773438 C 32.773438 351.921875 32.546875 352.222656 32.246094 352.523438 C 31.644531 353.050781 31.117188 353.578125 30.515625 354.179688 C 29.992188 354.707031 29.464844 355.308594 29.015625 355.910156 C 28.636719 356.433594 28.1875 357.035156 28.035156 357.636719 C 27.8125 358.464844 27.960938 359.21875 28.636719 359.820312 C 29.316406 360.421875 30.214844 360.722656 31.269531 360.421875 C 31.945312 360.195312 32.546875 359.667969 32.996094 359.140625 C 33.449219 358.617188 33.898438 358.089844 34.199219 357.488281 C 34.652344 356.734375 35.027344 356.058594 35.402344 355.308594 C 35.628906 354.855469 35.855469 354.402344 36.003906 353.878906 C 36.078125 353.578125 36.078125 353.351562 36.003906 353.050781 C 36.003906 353.050781 36.003906 352.976562 36.003906 352.824219 Z M 14.207031 347.109375 C 14.207031 347.183594 14.132812 347.335938 14.132812 347.410156 C 14.054688 347.636719 13.980469 347.785156 13.980469 347.9375 C 13.832031 348.3125 13.753906 348.6875 13.605469 349.066406 C 13.378906 349.96875 13.230469 350.945312 13.679688 351.773438 C 14.132812 352.675781 14.582031 353.351562 15.785156 353.351562 C 16.613281 353.351562 17.964844 352.449219 18.265625 351.921875 C 18.941406 350.792969 19.015625 349.890625 19.242188 348.6875 C 19.46875 347.410156 19.695312 345.980469 19.09375 344.703125 C 18.941406 344.328125 18.714844 344.027344 18.339844 343.800781 C 17.664062 343.347656 16.835938 343.347656 16.160156 343.800781 C 15.183594 344.476562 14.65625 345.679688 14.28125 346.734375 C 14.28125 346.808594 14.207031 346.882812 14.207031 346.957031 C 14.207031 347.035156 14.207031 347.035156 14.207031 347.109375 C 14.28125 346.882812 14.207031 346.957031 14.207031 347.109375 Z M 28.261719 350.644531 C 27.660156 351.621094 26.535156 352.597656 25.253906 352.148438 C 24.730469 351.996094 24.355469 351.621094 24.054688 351.171875 C 23.828125 350.792969 23.601562 350.417969 23.601562 349.96875 C 23.527344 349.214844 23.753906 348.464844 23.976562 347.785156 C 24.203125 346.957031 24.503906 346.207031 24.878906 345.453125 C 24.953125 345.304688 25.03125 345.152344 25.03125 345.003906 C 25.03125 345.003906 25.03125 344.929688 25.03125 344.929688 C 25.105469 344.550781 25.332031 344.101562 25.480469 343.726562 C 25.78125 343.046875 26.15625 342.296875 26.835938 341.84375 C 27.359375 341.46875 27.960938 341.320312 28.5625 341.542969 C 29.089844 341.695312 29.390625 342.144531 29.617188 342.597656 C 30.367188 344.550781 29.691406 346.582031 29.164062 348.464844 C 28.9375 349.214844 28.636719 349.96875 28.261719 350.644531 Z M 28.488281 343.574219 C 28.5625 343.574219 28.5625 343.574219 28.488281 343.574219 Z M 14.507812 315.671875 C 15.183594 313.566406 15.785156 311.234375 15.933594 308.980469 C 16.011719 308.226562 16.011719 307.476562 15.710938 306.722656 C 15.332031 305.820312 14.507812 304.917969 13.753906 304.316406 C 13.753906 304.316406 13.679688 304.242188 13.679688 304.242188 C 12.476562 303.339844 10.824219 303.339844 9.320312 303.789062 C 7.816406 304.242188 6.839844 304.992188 5.5625 305.898438 C 3.832031 307.175781 2.628906 308.980469 1.652344 310.933594 C 0.828125 312.589844 0 314.09375 0.300781 315.898438 C 0.601562 317.777344 1.351562 318.90625 2.628906 320.261719 C 3.757812 321.390625 5.789062 322.367188 7.441406 322.140625 C 10.75 321.613281 13.453125 318.757812 14.507812 315.671875 Z M 6.011719 301.761719 C 5.261719 301.308594 4.886719 300.480469 4.734375 299.65625 C 4.511719 298.152344 5.1875 296.496094 5.710938 295.066406 C 6.164062 293.9375 6.691406 292.660156 7.441406 291.683594 C 7.589844 291.457031 7.816406 291.308594 8.042969 291.230469 C 8.117188 291.15625 8.117188 291.15625 8.191406 291.082031 C 8.492188 290.855469 8.945312 290.703125 9.320312 290.855469 C 9.621094 290.929688 9.847656 291.082031 9.996094 291.308594 C 10.449219 291.53125 10.671875 292.058594 10.75 292.511719 C 10.898438 293.113281 10.75 293.789062 10.75 294.390625 C 10.671875 295.292969 10.597656 296.195312 10.449219 297.097656 C 10.296875 298 10.070312 298.902344 9.773438 299.730469 C 9.546875 300.40625 9.171875 301.160156 8.492188 301.609375 C 7.816406 302.136719 6.765625 302.210938 6.011719 301.761719 Z M 7.96875 291.308594 C 7.816406 291.382812 7.816406 291.382812 7.96875 291.308594 Z M 8.644531 291.230469 C 8.570312 291.230469 8.417969 291.230469 8.34375 291.230469 C 8.417969 291.230469 8.492188 291.230469 8.644531 291.230469 Z M 20.292969 309.882812 C 22.472656 310.03125 23.828125 307.777344 25.179688 306.421875 C 25.933594 305.519531 26.683594 304.542969 27.058594 303.414062 C 27.433594 302.285156 27.136719 300.558594 25.632812 300.480469 C 24.203125 300.40625 22.699219 301.683594 21.722656 302.511719 C 20.519531 303.488281 19.394531 304.617188 18.492188 305.898438 C 18.113281 306.5 17.8125 307.175781 17.890625 307.925781 C 18.039062 308.980469 19.242188 309.808594 20.292969 309.882812 Z M 14.355469 297.097656 C 14.582031 296.570312 14.808594 296.121094 15.109375 295.667969 C 15.710938 294.691406 16.386719 293.636719 17.136719 292.734375 C 17.890625 291.832031 19.09375 290.929688 20.292969 290.929688 C 21.046875 290.929688 21.796875 291.308594 22.023438 291.984375 C 22.175781 292.359375 22.175781 292.8125 22.097656 293.261719 C 21.875 294.089844 21.496094 294.839844 21.046875 295.59375 C 20.371094 296.871094 19.769531 298.226562 18.867188 299.429688 C 18.566406 299.804688 18.339844 300.03125 17.964844 300.332031 C 17.589844 300.558594 17.0625 300.707031 16.613281 300.707031 C 15.558594 300.859375 14.433594 300.480469 13.980469 299.429688 C 13.753906 298.601562 14.054688 297.773438 14.355469 297.097656 Z M 20.746094 293.335938 C 20.671875 293.335938 20.671875 293.414062 20.746094 293.335938 C 20.671875 293.414062 20.746094 293.414062 20.746094 293.335938 Z M 20.746094 293.335938 Z M 65.769531 279.199219 C 65.769531 279.199219 65.695312 279.199219 65.695312 279.199219 C 65.621094 279.199219 65.621094 279.199219 65.542969 279.125 C 65.46875 279.125 65.09375 278.972656 64.941406 278.972656 C 63.515625 278.746094 62.238281 279.726562 61.183594 280.476562 C 60.28125 281.152344 59.53125 281.90625 58.703125 282.65625 C 57.953125 283.410156 57.125 284.164062 56.523438 284.988281 C 54.796875 287.320312 53.742188 289.953125 55.398438 292.511719 C 56.375 294.015625 57.652344 295.066406 59.457031 295.519531 C 61.183594 295.894531 63.816406 295.894531 65.394531 295.367188 C 67.046875 294.839844 70.65625 290.628906 70.804688 287.246094 C 70.882812 285.589844 71.03125 283.785156 70.355469 282.207031 C 69.679688 280.476562 67.722656 279.726562 65.769531 279.199219 Z M 80.425781 277.621094 C 80.425781 277.46875 80.425781 277.394531 80.425781 277.242188 C 80.351562 276.792969 80.203125 276.339844 79.824219 276.039062 C 79.601562 275.8125 79.300781 275.664062 78.925781 275.664062 C 78.847656 275.589844 78.773438 275.589844 78.625 275.589844 C 78.246094 275.511719 77.945312 275.589844 77.644531 275.738281 C 77.269531 275.890625 76.96875 276.191406 76.667969 276.414062 C 75.992188 276.941406 75.390625 277.46875 74.789062 278.070312 C 74.1875 278.597656 73.585938 279.199219 73.136719 279.800781 C 72.683594 280.328125 72.234375 281.003906 71.933594 281.679688 C 71.632812 282.582031 71.707031 283.484375 72.308594 284.238281 C 72.910156 285.066406 73.8125 285.515625 74.863281 285.289062 C 75.617188 285.140625 76.21875 284.613281 76.742188 284.085938 C 77.269531 283.558594 77.722656 282.957031 78.171875 282.355469 C 78.699219 281.605469 79.222656 280.851562 79.601562 280.027344 C 79.902344 279.5 80.125 279.046875 80.351562 278.523438 C 80.503906 278.222656 80.503906 277.921875 80.425781 277.621094 Z M 58.703125 271.527344 C 58.703125 271.601562 58.628906 271.753906 58.628906 271.828125 C 58.554688 272.054688 58.554688 272.203125 58.480469 272.429688 C 58.402344 272.804688 58.253906 273.257812 58.253906 273.632812 C 58.101562 274.609375 58.027344 275.589844 58.402344 276.566406 C 58.855469 277.542969 59.980469 278.371094 61.035156 278.296875 C 61.785156 278.296875 62.085938 277.621094 62.386719 277.015625 C 62.914062 275.8125 63.140625 274.308594 63.289062 273.03125 C 63.441406 271.679688 63.589844 270.097656 62.988281 268.820312 C 62.839844 268.445312 62.613281 268.144531 62.3125 267.84375 C 61.710938 267.390625 60.882812 267.390625 60.359375 267.917969 C 59.457031 268.667969 59.082031 269.949219 58.78125 271.078125 C 58.78125 271.152344 58.78125 271.226562 58.78125 271.300781 C 58.703125 271.453125 58.703125 271.453125 58.703125 271.527344 C 58.703125 271.226562 58.703125 271.378906 58.703125 271.527344 Z M 71.859375 275.738281 C 71.105469 276.640625 69.902344 277.542969 68.703125 276.941406 C 68.175781 276.714844 67.875 276.265625 67.648438 275.8125 C 67.421875 275.363281 67.273438 274.988281 67.347656 274.460938 C 67.421875 273.707031 67.648438 272.957031 68.023438 272.28125 C 68.402344 271.527344 68.777344 270.777344 69.152344 270.023438 C 69.226562 269.875 69.300781 269.722656 69.378906 269.648438 C 69.378906 269.648438 69.378906 269.570312 69.378906 269.570312 C 69.527344 269.195312 69.753906 268.746094 69.980469 268.445312 C 70.355469 267.765625 70.804688 267.089844 71.558594 266.714844 C 72.082031 266.414062 72.761719 266.339844 73.363281 266.640625 C 73.886719 266.863281 74.113281 267.316406 74.261719 267.84375 C 74.789062 269.875 73.886719 271.902344 73.0625 273.785156 C 72.683594 274.386719 72.308594 275.0625 71.859375 275.738281 Z M 72.910156 268.59375 C 72.984375 268.59375 72.984375 268.519531 72.910156 268.59375 C 72.984375 268.519531 72.984375 268.519531 72.910156 268.59375 C 72.984375 268.519531 72.984375 268.519531 72.910156 268.59375 Z M 59.457031 239.941406 C 58.101562 240.992188 57.125 242.421875 56.75 244.152344 C 56.375 245.957031 56.675781 247.761719 57.351562 249.492188 C 57.878906 250.921875 58.929688 252.199219 60.433594 252.652344 C 63.441406 253.554688 67.121094 252.125 69.078125 249.945312 C 70.429688 248.441406 71.78125 246.710938 72.761719 244.828125 C 73.0625 244.226562 73.363281 243.550781 73.363281 242.875 C 73.363281 241.898438 72.984375 240.84375 72.535156 240.015625 C 72.535156 239.941406 72.535156 239.941406 72.460938 239.941406 C 71.707031 238.664062 70.65625 237.835938 69.226562 237.535156 C 67.722656 237.308594 66.222656 237.609375 64.867188 237.835938 C 62.988281 238.136719 61.035156 238.664062 59.457031 239.941406 Z M 68.25 228.433594 C 69.152344 227.53125 70.128906 226.703125 71.183594 226.027344 C 71.40625 225.878906 71.632812 225.878906 71.933594 225.878906 C 72.007812 225.878906 72.082031 225.800781 72.160156 225.800781 C 72.535156 225.726562 72.984375 225.800781 73.285156 226.027344 C 73.511719 226.253906 73.664062 226.480469 73.738281 226.78125 C 74.039062 227.15625 74.039062 227.757812 73.964844 228.210938 C 73.8125 228.8125 73.4375 229.335938 73.136719 229.863281 C 72.683594 230.691406 72.234375 231.441406 71.707031 232.195312 C 71.183594 232.945312 70.65625 233.625 69.980469 234.300781 C 69.453125 234.828125 68.777344 235.355469 68.023438 235.503906 C 67.199219 235.65625 66.222656 235.277344 65.695312 234.601562 C 65.167969 233.847656 65.167969 232.945312 65.46875 232.121094 C 65.921875 230.691406 67.199219 229.414062 68.25 228.433594 Z M 72.234375 225.953125 C 72.308594 225.953125 72.382812 226.027344 72.460938 226.101562 C 72.382812 226.027344 72.308594 226.027344 72.234375 225.953125 Z M 71.859375 225.878906 C 71.707031 225.878906 71.707031 225.953125 71.859375 225.878906 Z M 75.316406 247.914062 C 77.269531 248.964844 79.375 247.460938 81.179688 246.785156 C 82.230469 246.332031 83.359375 245.730469 84.109375 244.828125 C 84.9375 243.925781 84.785156 242.800781 83.433594 242.121094 C 82.15625 241.445312 80.425781 242.121094 79.148438 242.421875 C 77.644531 242.800781 76.59375 242.722656 75.316406 243.476562 C 74.714844 243.851562 74.113281 244.304688 73.964844 245.054688 C 73.664062 246.183594 74.414062 247.460938 75.316406 247.914062 Z M 75.164062 235.128906 C 75.542969 234.753906 75.992188 234.375 76.445312 234.074219 C 77.421875 233.398438 78.324219 233.023438 79.375 232.496094 C 80.425781 231.96875 81.40625 231.292969 82.53125 231.742188 C 83.207031 232.042969 83.734375 232.644531 83.734375 233.398438 C 83.734375 233.847656 83.585938 234.226562 83.285156 234.601562 C 82.757812 235.277344 82.082031 235.878906 81.480469 236.40625 C 80.351562 237.308594 79.300781 238.363281 78.023438 239.113281 C 77.644531 239.339844 77.269531 239.488281 76.820312 239.566406 C 76.367188 239.640625 75.84375 239.566406 75.464844 239.414062 C 74.488281 239.1875 73.964844 238.210938 74.039062 237.082031 C 73.964844 236.257812 74.5625 235.730469 75.164062 235.128906 Z M 81.929688 234.148438 C 82.003906 234.148438 82.003906 234.148438 81.929688 234.148438 Z M 82.003906 234.148438 Z M 172.957031 184.589844 C 171.527344 185.867188 170.550781 187.75 169.648438 189.402344 C 167.695312 192.863281 166.640625 197 168.445312 200.234375 C 169.199219 201.511719 170.324219 202.488281 171.753906 202.789062 C 173.332031 203.164062 175.285156 203.316406 176.863281 202.1875 C 179.570312 200.308594 181.148438 196.320312 181.300781 193.238281 C 181.375 192.109375 181.222656 191.058594 181.074219 190.003906 C 181 188.953125 180.847656 187.824219 180.621094 186.769531 C 180.398438 185.566406 180.023438 184.0625 178.820312 183.6875 C 178.742188 183.613281 178.367188 183.535156 178.292969 183.535156 C 178.21875 183.535156 178.21875 183.535156 178.140625 183.535156 C 178.140625 183.535156 178.066406 183.535156 178.066406 183.535156 C 176.414062 183.234375 174.535156 183.160156 172.957031 184.589844 Z M 170.175781 171.503906 C 169.949219 171.578125 169.722656 171.804688 169.574219 172.03125 C 169.347656 172.480469 169.121094 172.933594 168.898438 173.382812 C 168.597656 174.136719 168.296875 174.964844 168.070312 175.789062 C 167.917969 176.46875 167.769531 177.144531 167.695312 177.820312 C 167.621094 178.5 167.621094 179.25 167.917969 179.925781 C 168.371094 180.828125 169.199219 181.355469 170.101562 181.429688 C 171 181.507812 171.679688 181.128906 172.128906 180.378906 C 172.503906 179.851562 172.65625 179.101562 172.804688 178.5 C 172.957031 177.746094 173.03125 176.992188 173.105469 176.242188 C 173.179688 175.488281 173.179688 174.664062 173.179688 173.910156 C 173.179688 173.535156 173.179688 173.160156 173.105469 172.78125 C 173.03125 172.40625 172.878906 172.179688 172.65625 171.878906 C 172.582031 171.804688 172.503906 171.730469 172.429688 171.730469 C 172.203125 171.503906 171.902344 171.355469 171.679688 171.203125 C 171.300781 171.054688 170.851562 171.128906 170.476562 171.355469 C 170.324219 171.355469 170.25 171.429688 170.175781 171.503906 Z M 189.34375 183.460938 C 189.34375 183.460938 189.417969 183.460938 189.34375 183.460938 C 189.417969 183.3125 189.492188 183.3125 189.492188 183.234375 C 190.019531 182.257812 190.542969 181.054688 190.394531 179.851562 C 190.320312 179.023438 189.71875 178.421875 188.890625 178.273438 C 188.515625 178.199219 188.0625 178.273438 187.6875 178.347656 C 186.410156 178.800781 185.433594 179.925781 184.683594 180.90625 C 183.929688 181.882812 183.328125 182.558594 182.953125 183.835938 C 182.800781 184.4375 183.027344 186.019531 183.554688 186.621094 C 184.382812 187.523438 185.207031 187.371094 186.183594 187.070312 C 187.164062 186.769531 187.761719 186.019531 188.289062 185.265625 C 188.515625 184.964844 188.742188 184.589844 188.890625 184.214844 C 188.964844 184.0625 189.117188 183.835938 189.191406 183.6875 C 189.265625 183.6875 189.265625 183.613281 189.34375 183.460938 C 189.417969 183.460938 189.492188 183.3125 189.34375 183.460938 Z M 177.242188 175.566406 C 176.941406 176.691406 176.941406 178.121094 178.140625 178.800781 C 178.59375 179.101562 179.121094 179.101562 179.644531 179.023438 C 180.097656 178.949219 180.546875 178.875 180.847656 178.574219 C 181.449219 178.121094 181.824219 177.445312 182.203125 176.84375 C 182.578125 176.089844 182.953125 175.339844 183.328125 174.585938 C 183.402344 174.4375 183.480469 174.285156 183.554688 174.210938 C 183.554688 174.210938 183.554688 174.136719 183.554688 174.136719 C 183.78125 173.761719 183.929688 173.382812 184.15625 173.007812 C 184.457031 172.332031 184.757812 171.503906 184.683594 170.75 C 184.605469 170.148438 184.304688 169.546875 183.703125 169.246094 C 183.253906 168.945312 182.726562 169.023438 182.203125 169.171875 C 180.246094 169.925781 179.195312 171.804688 178.21875 173.460938 C 177.839844 174.0625 177.464844 174.8125 177.242188 175.566406 Z M 182.277344 170.601562 C 182.277344 170.601562 182.277344 170.527344 182.277344 170.527344 C 182.351562 170.601562 182.277344 170.601562 182.277344 170.601562 Z M 113.5 263.554688 C 113.726562 265.210938 115.230469 266.863281 116.730469 267.542969 C 118.460938 268.367188 119.664062 268.746094 121.617188 268.445312 C 123.421875 268.21875 124.625 267.015625 125.902344 265.660156 C 127.40625 264.082031 128.832031 262.425781 129.511719 260.398438 C 130.035156 258.894531 130.414062 257.765625 130.414062 256.1875 C 130.414062 254.605469 129.886719 253.101562 128.609375 252.199219 C 128.609375 252.199219 128.53125 252.125 128.53125 252.125 C 127.707031 251.597656 126.652344 251.070312 125.675781 250.996094 C 124.925781 250.921875 124.171875 251.222656 123.496094 251.449219 C 121.390625 252.273438 119.363281 253.554688 117.558594 254.832031 C 114.929688 256.710938 113.050781 260.246094 113.5 263.554688 Z M 133.34375 258.742188 C 134.019531 259.34375 134.921875 259.496094 135.75 259.269531 C 137.253906 258.96875 138.679688 257.914062 139.808594 256.9375 C 140.785156 256.109375 141.761719 255.28125 142.515625 254.304688 C 142.664062 254.078125 142.738281 253.855469 142.738281 253.628906 C 142.738281 253.554688 142.816406 253.476562 142.816406 253.402344 C 142.964844 253.027344 142.890625 252.574219 142.664062 252.199219 C 142.515625 251.972656 142.289062 251.75 141.988281 251.671875 C 141.613281 251.371094 141.085938 251.222656 140.636719 251.296875 C 140.035156 251.371094 139.433594 251.671875 138.832031 251.898438 C 138.003906 252.199219 137.175781 252.574219 136.351562 253.027344 C 135.523438 253.476562 134.773438 253.929688 134.019531 254.457031 C 133.417969 254.90625 132.816406 255.507812 132.59375 256.261719 C 132.441406 257.164062 132.742188 258.140625 133.34375 258.742188 Z M 142.738281 253.703125 C 142.738281 253.855469 142.664062 253.855469 142.738281 253.703125 Z M 142.664062 253.027344 C 142.738281 253.101562 142.738281 253.175781 142.738281 253.328125 C 142.664062 253.253906 142.664062 253.101562 142.664062 253.027344 Z M 123.871094 249.265625 C 124.625 249.117188 125.152344 248.664062 125.601562 248.0625 C 126.578125 246.859375 127.253906 245.429688 127.855469 244.003906 C 128.382812 242.722656 129.132812 240.992188 128.609375 239.640625 C 128.082031 238.285156 126.351562 238.511719 125.375 239.1875 C 124.398438 239.867188 123.648438 240.84375 123.046875 241.898438 C 122.144531 243.625 120.414062 245.582031 121.242188 247.613281 C 121.691406 248.515625 122.820312 249.417969 123.871094 249.265625 Z M 135.296875 249.34375 C 135.75 248.964844 136.125 248.589844 136.425781 248.214844 C 137.175781 247.3125 137.929688 246.410156 138.605469 245.429688 C 139.207031 244.453125 139.734375 243.023438 139.355469 241.820312 C 139.132812 241.144531 138.53125 240.542969 137.777344 240.46875 C 137.328125 240.390625 136.953125 240.617188 136.574219 240.769531 C 135.824219 241.21875 135.222656 241.820312 134.621094 242.421875 C 133.570312 243.476562 132.441406 244.453125 131.613281 245.65625 C 131.390625 246.03125 131.164062 246.410156 131.089844 246.785156 C 130.9375 247.234375 131.011719 247.6875 131.089844 248.214844 C 131.238281 249.265625 131.992188 250.246094 133.117188 250.320312 C 134.019531 250.394531 134.695312 249.867188 135.296875 249.34375 Z M 136.953125 242.199219 C 136.875 242.199219 136.875 242.121094 136.953125 242.199219 C 136.953125 242.121094 136.953125 242.121094 136.953125 242.199219 C 136.953125 242.121094 136.953125 242.121094 136.953125 242.199219 Z M 136.953125 242.121094 Z M 129.734375 200.910156 C 128.007812 200.910156 126.429688 201.738281 124.925781 202.488281 C 121.84375 203.992188 119.511719 208.957031 119.664062 210.6875 C 119.8125 212.414062 120.867188 214.824219 121.917969 216.25 C 123.046875 217.753906 124.550781 218.507812 126.277344 218.808594 C 129.285156 219.335938 131.238281 217.304688 132.742188 214.746094 C 133.269531 213.84375 133.644531 212.792969 134.019531 211.8125 C 134.394531 210.835938 134.773438 209.785156 135.074219 208.730469 C 135.375 207.453125 135.75 205.949219 134.996094 204.667969 C 134.921875 204.519531 134.695312 204.21875 134.621094 204.21875 C 134.621094 204.144531 134.546875 204.144531 134.546875 204.066406 C 134.546875 204.066406 134.546875 203.992188 134.472656 203.992188 C 133.117188 202.414062 131.691406 200.910156 129.734375 200.910156 Z M 129.210938 190.304688 C 128.832031 190.679688 128.457031 191.132812 128.082031 191.582031 C 127.554688 192.335938 127.03125 193.089844 126.503906 193.839844 C 126.128906 194.441406 125.753906 195.117188 125.527344 195.796875 C 125.300781 196.472656 125.074219 197.222656 125.152344 197.976562 C 125.375 199.027344 126.128906 199.632812 127.105469 199.855469 C 128.082031 200.082031 128.910156 199.78125 129.585938 199.179688 C 130.113281 198.652344 130.488281 197.976562 130.863281 197.375 C 131.238281 196.621094 131.539062 195.871094 131.765625 195.117188 C 132.066406 194.367188 132.292969 193.539062 132.515625 192.710938 C 132.59375 192.335938 132.742188 191.882812 132.742188 191.507812 C 132.742188 191.132812 132.667969 190.832031 132.441406 190.53125 C 132.367188 190.457031 132.292969 190.378906 132.214844 190.304688 C 132.066406 190.003906 131.765625 189.777344 131.539062 189.628906 C 131.164062 189.402344 130.636719 189.402344 130.261719 189.554688 C 130.1875 189.554688 130.035156 189.628906 129.960938 189.703125 C 129.734375 189.929688 129.433594 190.078125 129.210938 190.304688 Z M 144.316406 207.453125 C 144.316406 207.378906 144.394531 207.378906 144.316406 207.453125 C 144.46875 207.378906 144.542969 207.300781 144.542969 207.300781 C 145.445312 206.625 146.496094 205.722656 146.796875 204.59375 C 147.023438 203.84375 146.796875 203.089844 146.121094 202.714844 C 145.746094 202.488281 145.371094 202.414062 144.996094 202.414062 C 143.640625 202.414062 142.214844 203.164062 141.011719 203.84375 C 139.882812 204.519531 138.605469 205.269531 137.703125 206.25 C 137.253906 206.699219 136.800781 207.300781 137.101562 207.980469 C 137.476562 209.03125 138.679688 209.707031 139.734375 209.707031 C 140.710938 209.785156 141.6875 209.257812 142.4375 208.730469 C 142.816406 208.503906 143.117188 208.28125 143.492188 207.980469 C 143.640625 207.828125 143.792969 207.753906 144.015625 207.601562 C 144.09375 207.601562 144.167969 207.527344 144.316406 207.453125 C 144.394531 207.378906 144.46875 207.300781 144.316406 207.453125 Z M 135.222656 197.074219 C 134.695312 198.125 134.394531 199.554688 135.375 200.457031 C 135.824219 200.835938 136.273438 200.984375 136.875 200.984375 C 137.328125 200.984375 137.777344 200.984375 138.230469 200.757812 C 138.90625 200.457031 139.433594 199.855469 139.957031 199.332031 C 140.558594 198.726562 141.085938 198.050781 141.613281 197.375 C 141.6875 197.222656 141.835938 197.148438 141.914062 197 C 141.914062 197 141.914062 197 141.988281 196.921875 C 142.289062 196.621094 142.589844 196.246094 142.816406 195.945312 C 143.265625 195.34375 143.714844 194.59375 143.792969 193.839844 C 143.867188 193.238281 143.640625 192.5625 143.191406 192.1875 C 142.816406 191.808594 142.214844 191.734375 141.6875 191.808594 C 139.582031 192.1875 138.15625 193.765625 136.726562 195.269531 C 136.125 195.71875 135.597656 196.320312 135.222656 197.074219 Z M 141.3125 193.238281 C 141.3125 193.238281 141.3125 193.164062 141.3125 193.164062 C 141.3125 193.164062 141.3125 193.164062 141.3125 193.238281 Z M 191.746094 104.570312 C 191.746094 104.570312 191.671875 104.570312 191.671875 104.570312 C 191.597656 104.570312 191.597656 104.570312 191.523438 104.570312 C 191.445312 104.570312 191.070312 104.570312 190.921875 104.570312 C 189.492188 104.722656 188.515625 105.925781 187.761719 106.902344 C 187.085938 107.730469 186.5625 108.632812 185.960938 109.535156 C 185.433594 110.4375 184.832031 111.339844 184.457031 112.242188 C 183.402344 114.875 183.027344 117.65625 185.207031 119.6875 C 186.484375 120.890625 187.988281 121.566406 189.792969 121.566406 C 191.523438 121.566406 194.003906 120.890625 195.429688 119.988281 C 196.859375 119.085938 199.265625 114.273438 198.585938 110.964844 C 198.285156 109.382812 197.910156 107.65625 196.933594 106.300781 C 195.804688 104.871094 193.703125 104.644531 191.746094 104.570312 Z M 205.277344 99.53125 C 205.277344 99.457031 205.203125 99.304688 205.203125 99.230469 C 205.050781 98.855469 204.75 98.402344 204.375 98.253906 C 204.074219 98.101562 203.773438 98.101562 203.472656 98.101562 C 203.398438 98.101562 203.246094 98.027344 203.171875 98.101562 C 202.796875 98.101562 202.570312 98.253906 202.269531 98.480469 C 201.96875 98.703125 201.746094 99.082031 201.519531 99.382812 C 200.992188 100.058594 200.542969 100.734375 200.089844 101.414062 C 199.640625 102.089844 199.265625 102.765625 198.886719 103.519531 C 198.585938 104.195312 198.285156 104.871094 198.210938 105.546875 C 198.136719 106.449219 198.4375 107.277344 199.1875 107.878906 C 199.941406 108.480469 200.917969 108.707031 201.820312 108.257812 C 202.496094 107.957031 202.945312 107.277344 203.324219 106.675781 C 203.699219 106.074219 204 105.398438 204.226562 104.722656 C 204.527344 103.894531 204.828125 102.992188 205.050781 102.164062 C 205.203125 101.636719 205.351562 101.113281 205.351562 100.511719 C 205.503906 100.132812 205.425781 99.832031 205.277344 99.53125 Z M 183.179688 99.003906 C 183.179688 99.082031 183.179688 99.230469 183.179688 99.304688 C 183.179688 99.53125 183.179688 99.683594 183.179688 99.90625 C 183.179688 100.285156 183.179688 100.734375 183.253906 101.113281 C 183.328125 102.089844 183.480469 103.066406 184.15625 103.820312 C 184.832031 104.644531 186.035156 105.171875 187.085938 104.871094 C 187.761719 104.644531 187.988281 103.96875 188.0625 103.367188 C 188.289062 102.089844 188.140625 100.660156 187.914062 99.304688 C 187.761719 98.027344 187.464844 96.449219 186.636719 95.394531 C 186.410156 95.09375 186.109375 94.792969 185.734375 94.644531 C 185.058594 94.34375 184.304688 94.570312 183.855469 95.246094 C 183.253906 96.222656 183.101562 97.5 183.101562 98.628906 C 183.101562 98.703125 183.101562 98.78125 183.101562 98.855469 C 183.179688 98.929688 183.179688 99.003906 183.179688 99.003906 C 183.101562 98.78125 183.179688 98.929688 183.179688 99.003906 Z M 196.632812 99.832031 C 196.183594 100.886719 195.203125 102.015625 193.925781 101.714844 C 193.402344 101.636719 192.949219 101.261719 192.648438 100.886719 C 192.347656 100.511719 192.125 100.210938 192.046875 99.683594 C 191.898438 98.929688 191.972656 98.179688 192.125 97.5 C 192.273438 96.675781 192.425781 95.847656 192.648438 95.09375 C 192.648438 94.945312 192.722656 94.792969 192.722656 94.644531 C 192.722656 94.644531 192.722656 94.570312 192.722656 94.570312 C 192.800781 94.191406 192.875 93.742188 193.023438 93.289062 C 193.25 92.539062 193.476562 91.785156 194.078125 91.257812 C 194.527344 90.808594 195.128906 90.582031 195.730469 90.734375 C 196.257812 90.808594 196.632812 91.183594 196.859375 91.636719 C 197.835938 93.441406 197.460938 95.546875 197.160156 97.5 C 197.160156 98.328125 196.933594 99.082031 196.632812 99.832031 Z M 195.957031 92.761719 Z M 159.953125 94.945312 C 160.253906 96.597656 161.078125 98.101562 162.359375 99.15625 C 163.710938 100.285156 165.4375 100.8125 167.242188 100.960938 C 168.746094 101.113281 170.324219 100.8125 171.378906 99.683594 C 173.558594 97.425781 173.859375 93.589844 172.878906 90.882812 C 172.203125 89.003906 171.300781 87.046875 170.101562 85.394531 C 169.722656 84.867188 169.273438 84.265625 168.671875 83.964844 C 167.84375 83.511719 166.71875 83.363281 165.816406 83.363281 C 165.738281 83.363281 165.738281 83.363281 165.738281 83.363281 C 164.3125 83.4375 163.109375 83.964844 162.207031 85.09375 C 161.304688 86.296875 160.929688 87.726562 160.554688 89.078125 C 159.953125 91.035156 159.578125 92.988281 159.953125 94.945312 Z M 153.863281 82.085938 C 153.488281 80.882812 153.1875 79.679688 153.113281 78.398438 C 153.113281 78.171875 153.1875 77.871094 153.335938 77.722656 C 153.335938 77.648438 153.335938 77.570312 153.414062 77.496094 C 153.488281 77.121094 153.789062 76.746094 154.164062 76.59375 C 154.464844 76.445312 154.691406 76.445312 154.992188 76.519531 C 155.441406 76.445312 155.96875 76.667969 156.34375 76.96875 C 156.796875 77.347656 157.097656 77.949219 157.472656 78.398438 C 158 79.152344 158.449219 79.902344 158.898438 80.65625 C 159.351562 81.40625 159.726562 82.234375 159.953125 83.0625 C 160.179688 83.738281 160.328125 84.566406 160.101562 85.242188 C 159.878906 86.070312 159.125 86.746094 158.296875 86.824219 C 157.398438 86.972656 156.644531 86.523438 156.042969 85.921875 C 154.839844 85.167969 154.316406 83.511719 153.863281 82.085938 Z M 153.5625 77.496094 C 153.636719 77.421875 153.714844 77.347656 153.789062 77.347656 C 153.636719 77.421875 153.5625 77.496094 153.5625 77.496094 Z M 153.261719 77.796875 C 153.261719 77.949219 153.261719 77.949219 153.261719 77.796875 Z M 174.007812 84.640625 C 175.738281 83.4375 175.4375 80.882812 175.660156 79 C 175.738281 77.871094 175.660156 76.667969 175.285156 75.542969 C 174.835938 74.414062 173.859375 74.039062 172.65625 74.941406 C 171.527344 75.765625 171.300781 77.570312 171 78.851562 C 170.699219 80.355469 170.101562 81.183594 170.175781 82.6875 C 170.25 83.363281 170.398438 84.113281 170.925781 84.566406 C 171.753906 85.316406 173.179688 85.167969 174.007812 84.640625 Z M 162.808594 79.078125 C 162.660156 78.550781 162.507812 78.023438 162.433594 77.496094 C 162.28125 76.367188 162.359375 75.390625 162.359375 74.1875 C 162.359375 73.058594 162.207031 71.855469 163.109375 71.105469 C 163.636719 70.652344 164.460938 70.425781 165.0625 70.726562 C 165.4375 70.878906 165.738281 71.253906 165.890625 71.628906 C 166.265625 72.382812 166.417969 73.210938 166.640625 74.039062 C 166.941406 75.464844 167.394531 76.820312 167.46875 78.25 C 167.46875 78.699219 167.46875 79.078125 167.320312 79.453125 C 167.167969 79.902344 166.867188 80.28125 166.566406 80.582031 C 165.890625 81.332031 164.839844 81.332031 163.9375 80.804688 C 163.257812 80.582031 163.035156 79.828125 162.808594 79.078125 Z M 164.914062 72.683594 C 164.914062 72.757812 164.914062 72.757812 164.914062 72.683594 C 164.914062 72.757812 164.988281 72.683594 164.914062 72.683594 C 164.988281 72.683594 164.988281 72.683594 164.914062 72.683594 C 164.988281 72.683594 164.988281 72.683594 164.914062 72.683594 Z M 164.988281 72.609375 C 164.988281 72.609375 164.988281 72.683594 164.988281 72.609375 C 164.988281 72.683594 164.988281 72.683594 164.988281 72.609375 C 164.988281 72.683594 164.988281 72.609375 164.988281 72.609375 Z M 192.199219 58.167969 C 193.625 58.996094 195.804688 58.847656 197.234375 58.167969 C 198.964844 57.417969 199.941406 56.664062 200.917969 55.011719 C 201.820312 53.429688 201.667969 51.777344 201.445312 50.046875 C 201.21875 47.941406 200.765625 45.835938 199.640625 44.03125 C 198.8125 42.75 198.136719 41.699219 196.933594 40.722656 C 195.730469 39.742188 194.226562 39.21875 192.800781 39.59375 C 192.800781 39.59375 192.722656 39.59375 192.722656 39.59375 C 191.824219 39.894531 190.769531 40.421875 190.09375 41.097656 C 189.566406 41.625 189.34375 42.375 189.117188 43.050781 C 188.441406 45.160156 188.140625 47.488281 188.0625 49.671875 C 187.914062 52.90625 189.417969 56.515625 192.199219 58.167969 Z M 200.765625 40.121094 C 201.667969 39.96875 202.269531 39.367188 202.644531 38.617188 C 203.398438 37.261719 203.398438 35.605469 203.398438 34.101562 C 203.398438 32.898438 203.324219 31.546875 203.097656 30.417969 C 203.023438 30.191406 202.871094 29.96875 202.722656 29.816406 C 202.722656 29.742188 202.644531 29.667969 202.644531 29.667969 C 202.421875 29.367188 202.121094 29.0625 201.667969 29.0625 C 201.367188 29.0625 201.066406 29.0625 200.84375 29.214844 C 200.390625 29.289062 199.941406 29.667969 199.714844 30.042969 C 199.414062 30.570312 199.265625 31.171875 199.113281 31.773438 C 198.8125 32.597656 198.585938 33.5 198.4375 34.328125 C 198.285156 35.15625 198.136719 36.058594 198.136719 36.960938 C 198.136719 37.714844 198.210938 38.539062 198.585938 39.140625 C 198.964844 39.820312 199.867188 40.269531 200.765625 40.121094 Z M 202.722656 29.890625 C 202.796875 29.96875 202.722656 29.96875 202.722656 29.890625 Z M 202.121094 29.515625 C 202.195312 29.515625 202.269531 29.589844 202.347656 29.589844 C 202.269531 29.589844 202.195312 29.589844 202.121094 29.515625 Z M 187.6875 41.472656 C 188.0625 40.871094 187.988281 40.121094 187.839844 39.441406 C 187.464844 37.9375 186.863281 36.511719 186.109375 35.230469 C 185.433594 34.027344 184.605469 32.449219 183.253906 31.921875 C 181.902344 31.472656 181 32.898438 180.921875 34.101562 C 180.847656 35.230469 181.148438 36.433594 181.523438 37.488281 C 182.277344 39.21875 182.726562 41.773438 184.757812 42.375 C 185.808594 42.75 187.164062 42.375 187.6875 41.472656 Z M 194.828125 32.824219 C 194.828125 32.296875 194.753906 31.773438 194.679688 31.246094 C 194.453125 30.117188 194.226562 28.988281 193.851562 27.859375 C 193.476562 26.808594 192.722656 25.53125 191.597656 25.078125 C 190.921875 24.851562 190.09375 24.929688 189.644531 25.378906 C 189.34375 25.679688 189.191406 26.132812 189.117188 26.507812 C 189.042969 27.335938 189.117188 28.160156 189.191406 28.988281 C 189.34375 30.417969 189.417969 31.847656 189.867188 33.277344 C 190.019531 33.652344 190.167969 34.027344 190.394531 34.402344 C 190.695312 34.78125 191.070312 35.003906 191.445312 35.230469 C 192.347656 35.757812 193.550781 35.832031 194.226562 35.003906 C 194.753906 34.480469 194.828125 33.652344 194.828125 32.824219 Z M 190.320312 27.183594 C 190.320312 27.183594 190.320312 27.257812 190.320312 27.183594 C 190.320312 27.257812 190.320312 27.183594 190.320312 27.183594 Z M 190.242188 27.109375 C 190.242188 27.109375 190.242188 27.183594 190.242188 27.109375 C 190.320312 27.183594 190.242188 27.183594 190.242188 27.109375 Z M 157.773438 17.105469 C 156.570312 18.308594 156.117188 19.964844 155.59375 21.46875 C 154.539062 24.628906 156.34375 29.667969 157.621094 30.792969 C 158.898438 31.847656 161.304688 32.824219 162.960938 33.050781 C 164.761719 33.277344 166.339844 32.75 167.769531 31.773438 C 170.175781 30.042969 170.175781 27.257812 169.421875 24.476562 C 169.121094 23.5 168.671875 22.523438 168.296875 21.617188 C 167.84375 20.640625 167.394531 19.664062 166.867188 18.761719 C 166.191406 17.632812 165.363281 16.355469 164.011719 16.054688 C 163.859375 15.980469 163.484375 15.980469 163.410156 15.980469 C 163.335938 15.980469 163.335938 15.980469 163.257812 15.980469 C 163.257812 15.980469 163.183594 15.980469 163.183594 15.980469 C 161.15625 15.753906 159.125 15.828125 157.773438 17.105469 Z M 150.03125 10.1875 C 150.03125 10.714844 150.105469 11.316406 150.179688 11.84375 C 150.332031 12.746094 150.480469 13.648438 150.707031 14.472656 C 150.855469 15.152344 151.082031 15.902344 151.382812 16.503906 C 151.683594 17.183594 152.058594 17.859375 152.660156 18.234375 C 153.488281 18.835938 154.464844 18.6875 155.292969 18.234375 C 156.117188 17.707031 156.496094 16.957031 156.496094 16.054688 C 156.496094 15.378906 156.34375 14.625 156.117188 13.949219 C 155.894531 13.195312 155.519531 12.445312 155.21875 11.765625 C 154.839844 11.015625 154.464844 10.339844 154.089844 9.585938 C 153.863281 9.285156 153.714844 8.835938 153.414062 8.609375 C 153.1875 8.382812 152.886719 8.15625 152.585938 8.15625 C 152.511719 8.15625 152.359375 8.15625 152.285156 8.15625 C 151.984375 8.082031 151.609375 8.082031 151.382812 8.15625 C 150.933594 8.308594 150.632812 8.683594 150.40625 9.058594 C 150.332031 9.136719 150.332031 9.285156 150.257812 9.359375 C 150.179688 9.585938 150.03125 9.886719 150.03125 10.1875 Z M 172.355469 11.464844 C 172.355469 11.464844 172.355469 11.390625 172.355469 11.464844 C 172.355469 11.316406 172.429688 11.242188 172.429688 11.164062 C 172.582031 10.039062 172.65625 8.757812 172.128906 7.707031 C 171.753906 7.027344 171.078125 6.726562 170.324219 6.953125 C 169.949219 7.027344 169.574219 7.328125 169.347656 7.554688 C 168.371094 8.535156 167.921875 10.039062 167.621094 11.316406 C 167.320312 12.59375 166.941406 13.949219 167.019531 15.300781 C 167.019531 15.902344 167.167969 16.65625 167.769531 16.957031 C 168.746094 17.40625 170.023438 17.03125 170.777344 16.28125 C 171.527344 15.601562 171.753906 14.625 171.980469 13.722656 C 172.054688 13.347656 172.128906 12.894531 172.203125 12.519531 C 172.203125 12.292969 172.28125 12.144531 172.28125 11.917969 C 172.28125 11.691406 172.28125 11.617188 172.355469 11.464844 C 172.355469 11.390625 172.355469 11.242188 172.355469 11.464844 Z M 158.824219 10.640625 C 159.125 11.765625 159.953125 12.96875 161.304688 12.820312 C 161.832031 12.746094 162.28125 12.519531 162.660156 12.144531 C 162.957031 11.84375 163.257812 11.542969 163.410156 11.089844 C 163.636719 10.414062 163.636719 9.585938 163.558594 8.910156 C 163.484375 8.082031 163.410156 7.253906 163.335938 6.425781 C 163.335938 6.277344 163.335938 6.125 163.257812 5.976562 C 163.257812 5.976562 163.257812 5.902344 163.257812 5.902344 C 163.257812 5.523438 163.183594 5.074219 163.109375 4.621094 C 163.035156 3.871094 162.808594 3.042969 162.359375 2.441406 C 161.980469 1.992188 161.378906 1.691406 160.777344 1.691406 C 160.253906 1.691406 159.800781 2.066406 159.5 2.441406 C 158.296875 4.097656 158.449219 6.277344 158.449219 8.234375 C 158.523438 9.136719 158.597656 9.886719 158.824219 10.640625 Z M 160.402344 3.796875 C 160.402344 3.71875 160.328125 3.71875 160.402344 3.796875 C 160.328125 3.71875 160.328125 3.71875 160.402344 3.796875 C 160.328125 3.71875 160.402344 3.71875 160.402344 3.796875 Z M 162.660156 152.101562 C 161.90625 150.824219 161.230469 149.46875 160.101562 148.492188 C 158.976562 147.511719 157.621094 147.289062 156.195312 147.589844 C 156.195312 147.589844 156.117188 147.589844 156.117188 147.589844 C 155.21875 147.8125 154.089844 148.191406 153.414062 148.867188 C 152.886719 149.316406 152.585938 149.996094 152.285156 150.597656 C 151.457031 152.476562 151.007812 154.65625 150.78125 156.6875 C 150.40625 159.621094 151.609375 163.382812 154.238281 165.113281 C 155.59375 165.9375 157.171875 165.9375 158.675781 165.414062 C 160.402344 164.8125 162.058594 163.910156 163.109375 162.480469 C 164.160156 161.125 164.613281 159.394531 164.539062 157.742188 C 164.460938 155.636719 163.636719 153.832031 162.660156 152.101562 Z M 167.695312 143.527344 C 167.769531 142.25 167.84375 140.96875 167.621094 139.691406 C 167.542969 139.390625 167.46875 139.242188 167.242188 139.089844 C 167.242188 139.015625 167.167969 138.941406 167.167969 138.941406 C 166.941406 138.5625 166.640625 138.339844 166.265625 138.261719 C 165.964844 138.1875 165.664062 138.261719 165.4375 138.414062 C 164.988281 138.414062 164.539062 138.789062 164.238281 139.164062 C 163.859375 139.691406 163.710938 140.292969 163.484375 140.894531 C 163.183594 141.722656 162.882812 142.625 162.582031 143.453125 C 162.359375 144.355469 162.132812 145.183594 162.058594 146.085938 C 161.980469 146.835938 161.980469 147.664062 162.359375 148.339844 C 162.808594 149.09375 163.710938 149.621094 164.539062 149.542969 C 165.4375 149.46875 166.117188 148.867188 166.566406 148.191406 C 167.46875 146.761719 167.621094 145.03125 167.695312 143.527344 Z M 167.019531 138.863281 C 166.941406 138.789062 166.867188 138.789062 166.792969 138.789062 C 166.792969 138.789062 166.941406 138.863281 167.019531 138.863281 Z M 167.320312 139.164062 C 167.394531 139.242188 167.320312 139.242188 167.320312 139.164062 Z M 151.15625 149.921875 C 151.535156 149.316406 151.609375 148.566406 151.457031 147.890625 C 151.234375 146.386719 150.40625 145.632812 149.804688 144.28125 C 149.203125 143.078125 148.675781 141.347656 147.324219 140.746094 C 145.972656 140.144531 145.070312 140.746094 144.84375 141.949219 C 144.695312 143.078125 144.917969 144.355469 145.21875 145.484375 C 145.894531 147.289062 146.121094 149.921875 148.152344 150.746094 C 149.128906 151.046875 150.632812 150.746094 151.15625 149.921875 Z M 158.074219 142.550781 C 158.148438 142.023438 158.148438 141.421875 158.074219 140.894531 C 157.996094 139.691406 157.699219 138.789062 157.398438 137.585938 C 157.097656 136.457031 157.019531 135.253906 155.96875 134.652344 C 155.292969 134.351562 154.464844 134.277344 153.9375 134.804688 C 153.636719 135.105469 153.414062 135.480469 153.335938 135.933594 C 153.113281 136.757812 153.113281 137.660156 153.1875 138.488281 C 153.1875 139.992188 153.113281 141.421875 153.335938 142.925781 C 153.414062 143.378906 153.5625 143.753906 153.789062 144.128906 C 154.015625 144.503906 154.390625 144.804688 154.765625 145.105469 C 155.59375 145.707031 156.644531 145.484375 157.472656 144.730469 C 157.996094 144.128906 157.996094 143.378906 158.074219 142.550781 Z M 154.539062 136.683594 C 154.539062 136.683594 154.539062 136.757812 154.539062 136.683594 C 154.539062 136.757812 154.464844 136.683594 154.539062 136.683594 C 154.464844 136.683594 154.464844 136.683594 154.539062 136.683594 C 154.464844 136.683594 154.464844 136.683594 154.539062 136.683594 Z M 154.464844 136.609375 C 154.464844 136.609375 154.464844 136.683594 154.464844 136.609375 C 154.464844 136.683594 154.464844 136.683594 154.464844 136.609375 C 154.464844 136.683594 154.464844 136.609375 154.464844 136.609375 Z M 154.464844 136.609375 " fill-opacity="1" fill-rule="nonzero"/></g></svg>