<svg xmlns="http://www.w3.org/2000/svg" xmlns:xlink="http://www.w3.org/1999/xlink" width="275" zoomAndPan="magnify" viewBox="0 0 206.25 374.999989" height="500" preserveAspectRatio="xMidYMid meet" version="1.0"><defs><clipPath id="62d0f23c38"><path d="M 10 5 L 179 5 L 179 374.320312 L 10 374.320312 Z M 10 5 " clip-rule="nonzero"/></clipPath><clipPath id="ab71a2d4f7"><path d="M -101.410156 128.652344 L 43.902344 -16.660156 L 307.050781 246.488281 L 161.738281 391.800781 Z M -101.410156 128.652344 " clip-rule="nonzero"/></clipPath><clipPath id="f8e847daea"><path d="M -101.410156 128.652344 L 43.902344 -16.660156 L 307.050781 246.488281 L 161.738281 391.800781 Z M -101.410156 128.652344 " clip-rule="nonzero"/></clipPath></defs><g clip-path="url(#62d0f23c38)"><g clip-path="url(#ab71a2d4f7)"><g clip-path="url(#f8e847daea)"><path fill="#d8eafa" d="M 168.765625 364.167969 C 170.09375 365.5 171.050781 367.410156 171.898438 369.113281 C 173.652344 372.671875 174.609375 376.820312 172.644531 379.957031 C 171.792969 381.230469 170.675781 382.132812 169.242188 382.398438 C 167.648438 382.71875 165.679688 382.773438 164.191406 381.601562 C 161.589844 379.636719 160.207031 375.597656 160.207031 372.515625 C 160.207031 371.453125 160.367188 370.335938 160.527344 369.324219 C 160.683594 368.210938 160.898438 367.144531 161.164062 366.136719 C 161.429688 364.914062 161.90625 363.480469 163.128906 363.105469 C 163.183594 363.054688 163.609375 363.054688 163.660156 363 C 163.660156 363 163.769531 363 163.769531 363 C 163.769531 363 163.820312 362.949219 163.875 363 C 165.414062 362.628906 167.277344 362.679688 168.765625 364.167969 Z M 172.324219 351.46875 C 172.007812 351.253906 171.582031 351.148438 171.15625 351.253906 C 170.890625 351.308594 170.570312 351.519531 170.359375 351.734375 C 170.304688 351.785156 170.144531 351.839844 170.09375 351.890625 C 169.828125 352.15625 169.667969 352.421875 169.5625 352.742188 C 169.402344 353.113281 169.453125 353.488281 169.453125 353.910156 C 169.402344 354.710938 169.402344 355.453125 169.402344 356.304688 C 169.402344 357.046875 169.453125 357.84375 169.5625 358.589844 C 169.667969 359.226562 169.773438 359.972656 170.09375 360.503906 C 170.519531 361.246094 171.15625 361.671875 172.058594 361.617188 C 172.960938 361.566406 173.8125 361.140625 174.34375 360.183594 C 174.664062 359.546875 174.714844 358.75 174.664062 358.058594 C 174.609375 357.367188 174.558594 356.675781 174.34375 356.039062 C 174.132812 355.1875 173.917969 354.441406 173.652344 353.644531 C 173.492188 353.167969 173.335938 352.6875 173.070312 352.210938 C 172.910156 351.945312 172.75 351.785156 172.484375 351.625 C 172.484375 351.625 172.429688 351.574219 172.324219 351.46875 Z M 152.871094 362.839844 C 152.925781 362.894531 152.976562 363.054688 153.03125 363.105469 C 153.136719 363.320312 153.191406 363.480469 153.296875 363.585938 C 153.457031 363.957031 153.667969 364.277344 153.828125 364.648438 C 154.308594 365.445312 154.890625 366.242188 155.796875 366.507812 C 156.75 366.828125 157.550781 366.988281 158.398438 366.136719 C 158.984375 365.550781 159.304688 363.957031 159.144531 363.371094 C 158.824219 362.097656 158.238281 361.40625 157.550781 360.394531 C 156.804688 359.332031 155.953125 358.164062 154.625 357.683594 C 154.253906 357.527344 153.882812 357.472656 153.457031 357.578125 C 152.660156 357.738281 152.074219 358.324219 151.914062 359.121094 C 151.703125 360.289062 152.179688 361.511719 152.660156 362.523438 C 152.710938 362.574219 152.710938 362.679688 152.765625 362.734375 C 152.820312 362.789062 152.820312 362.789062 152.871094 362.839844 C 152.765625 362.628906 152.765625 362.734375 152.871094 362.839844 Z M 165.308594 355.398438 C 165.574219 356.515625 165.46875 358.003906 164.246094 358.589844 C 163.769531 358.855469 163.234375 358.855469 162.703125 358.75 C 162.28125 358.640625 161.855469 358.535156 161.535156 358.21875 C 160.949219 357.738281 160.578125 357.046875 160.261719 356.410156 C 159.835938 355.664062 159.515625 354.921875 159.25 354.125 C 159.195312 353.964844 159.144531 353.804688 159.039062 353.699219 C 159.039062 353.699219 158.984375 353.644531 158.984375 353.644531 C 158.773438 353.328125 158.613281 352.847656 158.453125 352.476562 C 158.1875 351.785156 157.921875 350.988281 158.082031 350.191406 C 158.1875 349.554688 158.503906 349.023438 159.089844 348.757812 C 159.570312 348.492188 160.101562 348.597656 160.578125 348.757812 C 162.492188 349.605469 163.449219 351.519531 164.40625 353.222656 C 164.777344 353.910156 165.097656 354.65625 165.308594 355.398438 Z M 160.472656 350.246094 C 160.527344 350.191406 160.527344 350.191406 160.472656 350.246094 Z M 130.867188 340.410156 C 129.859375 338.445312 128.636719 336.371094 127.148438 334.671875 C 126.667969 334.085938 126.136719 333.554688 125.394531 333.238281 C 124.488281 332.863281 123.265625 332.8125 122.3125 332.917969 C 122.3125 332.917969 122.203125 332.917969 122.203125 332.917969 C 120.714844 333.128906 119.546875 334.300781 118.800781 335.679688 C 118.058594 337.0625 117.898438 338.285156 117.632812 339.828125 C 117.316406 341.953125 117.738281 344.078125 118.429688 346.152344 C 119.015625 347.90625 119.492188 349.554688 120.980469 350.617188 C 122.523438 351.734375 123.851562 352 125.710938 352.050781 C 127.308594 352.050781 129.433594 351.308594 130.441406 349.980469 C 132.410156 347.269531 132.304688 343.335938 130.867188 340.410156 Z M 115.027344 336.585938 C 114.179688 336.796875 113.328125 336.476562 112.636719 336 C 111.414062 335.097656 110.722656 333.449219 110.085938 332.066406 C 109.609375 330.949219 109.078125 329.675781 108.917969 328.453125 C 108.863281 328.1875 108.917969 327.921875 109.023438 327.707031 C 109.023438 327.601562 109.023438 327.601562 109.023438 327.496094 C 109.078125 327.125 109.289062 326.699219 109.660156 326.539062 C 109.925781 326.378906 110.191406 326.328125 110.457031 326.378906 C 110.9375 326.21875 111.46875 326.433594 111.839844 326.699219 C 112.371094 327.019531 112.742188 327.601562 113.167969 328.027344 C 113.753906 328.71875 114.339844 329.410156 114.871094 330.152344 C 115.402344 330.898438 115.878906 331.695312 116.25 332.492188 C 116.570312 333.128906 116.835938 333.925781 116.675781 334.722656 C 116.570312 335.574219 115.878906 336.371094 115.027344 336.585938 Z M 109.023438 327.816406 C 108.96875 327.972656 108.96875 327.972656 109.023438 327.816406 Z M 109.449219 327.285156 C 109.394531 327.335938 109.289062 327.441406 109.234375 327.496094 C 109.289062 327.441406 109.34375 327.390625 109.449219 327.285156 Z M 130.867188 332.226562 C 132.515625 330.792969 131.878906 328.242188 131.878906 326.328125 C 131.769531 325.15625 131.613281 323.933594 131.082031 322.871094 C 130.550781 321.808594 129.113281 320.800781 127.996094 321.808594 C 126.933594 322.765625 126.773438 324.730469 126.667969 326.007812 C 126.507812 327.550781 126.507812 329.144531 126.773438 330.683594 C 126.933594 331.375 127.199219 332.066406 127.785156 332.546875 C 128.636719 333.183594 130.070312 332.917969 130.867188 332.226562 Z M 117.632812 327.390625 C 117.421875 326.859375 117.261719 326.378906 117.15625 325.847656 C 116.890625 324.730469 116.625 323.511719 116.515625 322.339844 C 116.410156 321.171875 116.625 319.683594 117.472656 318.832031 C 118.003906 318.300781 118.800781 318.035156 119.441406 318.355469 C 119.8125 318.515625 120.132812 318.832031 120.398438 319.203125 C 120.824219 319.949219 121.089844 320.746094 121.300781 321.597656 C 121.726562 322.976562 122.257812 324.359375 122.46875 325.847656 C 122.523438 326.328125 122.523438 326.644531 122.46875 327.125 C 122.363281 327.550781 122.097656 328.027344 121.777344 328.347656 C 121.140625 329.195312 120.078125 329.726562 119.015625 329.304688 C 118.269531 328.878906 117.898438 328.082031 117.632812 327.390625 Z M 119.492188 320.214844 C 119.441406 320.269531 119.492188 320.320312 119.492188 320.214844 C 119.492188 320.320312 119.546875 320.269531 119.492188 320.214844 Z M 119.492188 320.214844 Z M 141.339844 278.386719 C 141.339844 278.386719 141.285156 278.4375 141.285156 278.4375 C 141.230469 278.492188 141.230469 278.492188 141.125 278.492188 C 141.074219 278.542969 140.699219 278.703125 140.59375 278.8125 C 139.425781 279.660156 139.210938 281.253906 139 282.53125 C 138.839844 283.648438 138.839844 284.710938 138.789062 285.828125 C 138.789062 286.890625 138.734375 288.003906 138.894531 289.015625 C 139.320312 291.886719 140.433594 294.488281 143.410156 295.128906 C 145.164062 295.5 146.8125 295.339844 148.40625 294.382812 C 149.894531 293.425781 151.753906 291.566406 152.5 290.078125 C 153.296875 288.539062 152.871094 283.007812 150.585938 280.511719 C 149.46875 279.289062 148.300781 277.90625 146.707031 277.269531 C 145.003906 276.523438 143.09375 277.375 141.339844 278.386719 Z M 150.585938 266.90625 C 150.480469 266.796875 150.425781 266.746094 150.320312 266.640625 C 149.949219 266.375 149.523438 266.160156 149.046875 266.214844 C 148.726562 266.214844 148.40625 266.320312 148.140625 266.585938 C 148.035156 266.585938 147.980469 266.640625 147.875 266.746094 C 147.558594 266.957031 147.398438 267.222656 147.292969 267.542969 C 147.132812 267.914062 147.132812 268.339844 147.078125 268.710938 C 146.972656 269.5625 146.917969 270.359375 146.917969 271.210938 C 146.867188 272.007812 146.867188 272.859375 146.972656 273.601562 C 147.023438 274.292969 147.183594 275.089844 147.449219 275.78125 C 147.875 276.632812 148.566406 277.214844 149.523438 277.324219 C 150.535156 277.480469 151.488281 277.164062 152.074219 276.257812 C 152.5 275.621094 152.554688 274.824219 152.554688 274.082031 C 152.554688 273.335938 152.445312 272.59375 152.339844 271.847656 C 152.179688 270.945312 152.023438 270.039062 151.703125 269.191406 C 151.542969 268.605469 151.382812 268.128906 151.171875 267.597656 C 151.066406 267.277344 150.851562 267.066406 150.585938 266.90625 Z M 130.921875 277.960938 C 130.972656 278.011719 131.027344 278.171875 131.082031 278.226562 C 131.1875 278.4375 131.292969 278.542969 131.398438 278.757812 C 131.613281 279.078125 131.824219 279.5 132.089844 279.765625 C 132.675781 280.566406 133.3125 281.308594 134.269531 281.734375 C 135.277344 282.105469 136.660156 281.894531 137.351562 281.097656 C 137.882812 280.566406 137.617188 279.875 137.40625 279.234375 C 136.925781 278.011719 136.023438 276.789062 135.226562 275.78125 C 134.375 274.71875 133.367188 273.496094 132.035156 273.015625 C 131.664062 272.859375 131.292969 272.804688 130.867188 272.804688 C 130.125 272.910156 129.539062 273.496094 129.539062 274.238281 C 129.433594 275.410156 130.070312 276.578125 130.65625 277.589844 C 130.707031 277.640625 130.761719 277.695312 130.816406 277.746094 C 130.867188 277.90625 130.867188 277.90625 130.921875 277.960938 C 130.707031 277.746094 130.816406 277.855469 130.921875 277.960938 Z M 143.199219 271.636719 C 143.304688 272.804688 143.09375 274.292969 141.816406 274.71875 C 141.285156 274.929688 140.753906 274.824219 140.273438 274.664062 C 139.796875 274.503906 139.425781 274.347656 139.105469 273.921875 C 138.628906 273.335938 138.253906 272.644531 138.042969 271.902344 C 137.777344 271.105469 137.511719 270.308594 137.246094 269.507812 C 137.191406 269.351562 137.140625 269.191406 137.140625 269.085938 C 137.140625 269.085938 137.085938 269.03125 137.085938 269.03125 C 136.925781 268.660156 136.765625 268.179688 136.714844 267.808594 C 136.5 267.066406 136.34375 266.265625 136.609375 265.46875 C 136.765625 264.886719 137.191406 264.355469 137.832031 264.140625 C 138.363281 263.929688 138.839844 264.089844 139.320312 264.355469 C 141.125 265.417969 141.921875 267.488281 142.667969 269.402344 C 142.828125 270.09375 143.039062 270.839844 143.199219 271.636719 Z M 138.894531 265.84375 C 138.945312 265.789062 138.894531 265.734375 138.894531 265.84375 C 138.894531 265.734375 138.894531 265.734375 138.894531 265.84375 C 138.894531 265.734375 138.894531 265.734375 138.894531 265.84375 Z M 109.128906 255.105469 C 108.917969 256.804688 109.234375 258.507812 110.191406 259.996094 C 111.203125 261.535156 112.691406 262.601562 114.390625 263.34375 C 115.773438 263.980469 117.421875 264.140625 118.800781 263.398438 C 121.566406 261.910156 123.160156 258.292969 123 255.371094 C 122.894531 253.351562 122.628906 251.171875 121.992188 249.152344 C 121.777344 248.515625 121.511719 247.824219 121.035156 247.347656 C 120.34375 246.65625 119.335938 246.175781 118.429688 245.910156 C 118.378906 245.859375 118.378906 245.859375 118.324219 245.910156 C 116.890625 245.539062 115.5625 245.699219 114.339844 246.496094 C 113.117188 247.398438 112.265625 248.675781 111.46875 249.789062 C 110.351562 251.332031 109.34375 253.085938 109.128906 255.105469 Z M 107.214844 240.753906 C 107.214844 239.480469 107.324219 238.203125 107.589844 236.980469 C 107.640625 236.714844 107.800781 236.554688 108.011719 236.34375 C 108.066406 236.289062 108.066406 236.183594 108.121094 236.132812 C 108.332031 235.8125 108.703125 235.546875 109.078125 235.492188 C 109.394531 235.492188 109.660156 235.546875 109.925781 235.707031 C 110.40625 235.757812 110.832031 236.183594 111.097656 236.554688 C 111.414062 237.085938 111.519531 237.726562 111.679688 238.308594 C 111.945312 239.214844 112.160156 240.0625 112.320312 240.96875 C 112.476562 241.871094 112.585938 242.722656 112.585938 243.679688 C 112.585938 244.421875 112.476562 245.273438 112.050781 245.910156 C 111.574219 246.601562 110.617188 247.027344 109.765625 246.921875 C 108.863281 246.761719 108.226562 246.125 107.855469 245.324219 C 107.164062 243.996094 107.164062 242.191406 107.214844 240.753906 Z M 108.277344 236.183594 C 108.332031 236.132812 108.4375 236.132812 108.542969 236.132812 C 108.4375 236.132812 108.386719 236.183594 108.277344 236.183594 Z M 107.960938 236.398438 C 107.855469 236.503906 107.90625 236.554688 107.960938 236.398438 Z M 125.976562 249.523438 C 128.105469 248.886719 128.527344 246.335938 129.328125 244.582031 C 129.75 243.519531 130.125 242.296875 130.015625 241.128906 C 129.964844 239.90625 129.0625 239.214844 127.625 239.691406 C 126.242188 240.117188 125.5 241.816406 124.808594 242.933594 C 124.011719 244.261719 123.214844 244.953125 122.84375 246.390625 C 122.683594 247.078125 122.578125 247.824219 123 248.460938 C 123.585938 249.472656 125.019531 249.84375 125.976562 249.523438 Z M 116.835938 240.597656 C 116.835938 240.0625 116.890625 239.480469 116.996094 238.949219 C 117.207031 237.777344 117.582031 236.875 117.953125 235.757812 C 118.324219 234.644531 118.535156 233.472656 119.652344 232.996094 C 120.34375 232.730469 121.140625 232.78125 121.671875 233.3125 C 121.992188 233.632812 122.152344 234.003906 122.203125 234.484375 C 122.3125 235.332031 122.257812 236.238281 122.203125 237.035156 C 122.042969 238.46875 122.042969 239.957031 121.671875 241.394531 C 121.566406 241.816406 121.40625 242.191406 121.140625 242.5625 C 120.875 242.933594 120.449219 243.253906 120.078125 243.414062 C 119.226562 243.945312 118.164062 243.625 117.421875 242.773438 C 116.78125 242.242188 116.835938 241.445312 116.835938 240.597656 Z M 120.929688 235.121094 C 120.980469 235.066406 120.980469 235.066406 120.929688 235.121094 Z M 120.980469 235.066406 Z M 150.265625 135.730469 C 150.160156 137.644531 150.800781 139.664062 151.332031 141.472656 C 152.394531 145.296875 154.574219 148.964844 158.132812 149.976562 C 159.570312 150.347656 161.058594 150.242188 162.28125 149.441406 C 163.660156 148.59375 165.148438 147.316406 165.46875 145.402344 C 166.054688 142.160156 164.351562 138.230469 162.28125 135.941406 C 161.535156 135.09375 160.683594 134.453125 159.835938 133.816406 C 159.039062 133.125 158.132812 132.433594 157.230469 131.851562 C 156.21875 131.160156 154.890625 130.363281 153.777344 130.945312 C 153.667969 130.945312 153.351562 131.160156 153.296875 131.210938 C 153.242188 131.265625 153.242188 131.265625 153.191406 131.320312 C 153.191406 131.320312 153.136719 131.371094 153.136719 131.371094 C 151.753906 132.328125 150.375 133.605469 150.265625 135.730469 Z M 139.054688 128.449219 C 138.945312 128.660156 138.945312 128.980469 139 129.246094 C 139.160156 129.726562 139.320312 130.203125 139.476562 130.679688 C 139.796875 131.425781 140.167969 132.222656 140.59375 132.964844 C 140.964844 133.550781 141.339844 134.136719 141.761719 134.667969 C 142.1875 135.199219 142.71875 135.730469 143.410156 135.996094 C 144.367188 136.316406 145.324219 136.101562 146.015625 135.519531 C 146.707031 134.933594 146.917969 134.1875 146.707031 133.339844 C 146.601562 132.699219 146.175781 132.0625 145.855469 131.53125 C 145.429688 130.894531 144.953125 130.308594 144.472656 129.726562 C 143.996094 129.140625 143.410156 128.554688 142.878906 128.023438 C 142.613281 127.757812 142.347656 127.492188 142.027344 127.28125 C 141.710938 127.066406 141.445312 127.015625 141.074219 126.960938 C 140.964844 126.960938 140.859375 126.960938 140.808594 127.015625 C 140.488281 127.015625 140.167969 127.121094 139.902344 127.171875 C 139.53125 127.332031 139.265625 127.703125 139.160156 128.128906 C 139.054688 128.238281 139.054688 128.34375 139.054688 128.449219 Z M 161.058594 123.347656 C 161.058594 123.347656 161.109375 123.292969 161.058594 123.347656 C 161.003906 123.1875 161.058594 123.132812 161.003906 123.082031 C 160.683594 122.019531 160.207031 120.796875 159.25 120.050781 C 158.613281 119.519531 157.761719 119.519531 157.070312 120 C 156.75 120.210938 156.484375 120.582031 156.273438 120.902344 C 155.6875 122.125 155.796875 123.613281 155.953125 124.835938 C 156.113281 126.058594 156.167969 126.960938 156.804688 128.128906 C 157.125 128.660156 158.398438 129.617188 159.195312 129.671875 C 160.417969 129.726562 160.898438 129.035156 161.375 128.128906 C 161.855469 127.226562 161.746094 126.269531 161.589844 125.367188 C 161.535156 124.996094 161.429688 124.570312 161.269531 124.195312 C 161.214844 124.039062 161.164062 123.773438 161.109375 123.613281 C 161.164062 123.558594 161.109375 123.507812 161.058594 123.347656 C 161.109375 123.292969 161.058594 123.132812 161.058594 123.347656 Z M 146.917969 126.324219 C 147.503906 127.332031 148.511719 128.34375 149.84375 127.96875 C 150.375 127.863281 150.746094 127.492188 151.066406 127.066406 C 151.332031 126.695312 151.597656 126.324219 151.597656 125.898438 C 151.703125 125.152344 151.488281 124.410156 151.332031 123.71875 C 151.066406 122.921875 150.800781 122.125 150.535156 121.328125 C 150.480469 121.167969 150.425781 121.007812 150.425781 120.902344 C 150.425781 120.902344 150.375 120.847656 150.375 120.847656 C 150.265625 120.421875 150.109375 120.050781 150 119.625 C 149.734375 118.933594 149.363281 118.136719 148.78125 117.660156 C 148.300781 117.289062 147.664062 117.074219 147.027344 117.289062 C 146.492188 117.394531 146.175781 117.820312 145.910156 118.296875 C 145.058594 120.210938 145.644531 122.285156 146.121094 124.144531 C 146.28125 124.835938 146.546875 125.632812 146.917969 126.324219 Z M 146.972656 119.253906 C 146.972656 119.253906 146.917969 119.199219 146.917969 119.199219 C 147.027344 119.199219 146.972656 119.253906 146.972656 119.253906 Z M 164.035156 233.578125 C 165.363281 234.589844 167.59375 234.695312 169.136719 234.113281 C 170.941406 233.472656 172.058594 232.890625 173.226562 231.292969 C 174.34375 229.859375 174.34375 228.160156 174.292969 226.296875 C 174.238281 224.121094 174.078125 221.941406 173.121094 220.027344 C 172.429688 218.589844 171.898438 217.527344 170.785156 216.414062 C 169.667969 215.296875 168.230469 214.605469 166.691406 214.871094 C 166.691406 214.871094 166.585938 214.871094 166.585938 214.871094 C 165.628906 215.082031 164.511719 215.457031 163.769531 216.09375 C 163.183594 216.570312 162.863281 217.316406 162.546875 217.953125 C 161.640625 220.027344 161.109375 222.367188 160.738281 224.542969 C 160.207031 227.734375 161.375 231.558594 164.035156 233.578125 Z M 174.664062 216.148438 C 175.566406 216.09375 176.3125 215.5625 176.734375 214.816406 C 177.585938 213.542969 177.851562 211.789062 177.957031 210.300781 C 178.066406 209.023438 178.171875 207.75 178.011719 206.527344 C 177.957031 206.261719 177.851562 206.046875 177.691406 205.890625 C 177.640625 205.835938 177.640625 205.730469 177.585938 205.675781 C 177.425781 205.304688 177.054688 205.039062 176.628906 204.933594 C 176.363281 204.878906 176.046875 204.878906 175.78125 205.039062 C 175.300781 205.089844 174.824219 205.355469 174.558594 205.730469 C 174.183594 206.207031 173.972656 206.84375 173.707031 207.429688 C 173.335938 208.226562 173.015625 209.078125 172.75 209.980469 C 172.484375 210.886719 172.273438 211.734375 172.113281 212.640625 C 172.007812 213.382812 172.007812 214.234375 172.378906 214.925781 C 172.910156 215.667969 173.8125 216.148438 174.664062 216.148438 Z M 177.746094 205.941406 C 177.851562 206.046875 177.800781 206.101562 177.746094 205.941406 Z M 177.214844 205.515625 C 177.320312 205.515625 177.375 205.570312 177.480469 205.675781 C 177.375 205.675781 177.269531 205.570312 177.214844 205.515625 Z M 161.269531 216.148438 C 161.695312 215.507812 161.746094 214.816406 161.640625 214.074219 C 161.480469 212.53125 160.949219 211.042969 160.367188 209.609375 C 159.835938 208.332031 159.144531 206.578125 157.816406 205.996094 C 156.484375 205.410156 155.421875 206.792969 155.210938 207.960938 C 154.996094 209.132812 155.15625 210.351562 155.476562 211.523438 C 156.0625 213.382812 156.21875 215.988281 158.238281 216.835938 C 159.195312 217.15625 160.632812 216.996094 161.269531 216.148438 Z M 169.402344 208.121094 C 169.453125 207.535156 169.453125 207.003906 169.402344 206.527344 C 169.296875 205.355469 169.1875 204.1875 168.976562 203.019531 C 168.710938 201.902344 168.074219 200.519531 166.957031 199.9375 C 166.320312 199.617188 165.46875 199.617188 164.882812 200.09375 C 164.511719 200.359375 164.40625 200.785156 164.246094 201.160156 C 164.035156 202.007812 164.035156 202.859375 164.035156 203.710938 C 164.035156 205.199219 163.925781 206.6875 164.191406 208.121094 C 164.300781 208.546875 164.40625 208.972656 164.617188 209.289062 C 164.832031 209.714844 165.203125 209.980469 165.628906 210.300781 C 166.476562 210.9375 167.699219 211.097656 168.550781 210.351562 C 169.242188 209.769531 169.347656 208.917969 169.402344 208.121094 Z M 165.523438 201.902344 C 165.46875 201.957031 165.414062 201.902344 165.523438 201.902344 C 165.46875 201.847656 165.46875 201.847656 165.523438 201.902344 C 165.46875 201.847656 165.46875 201.847656 165.523438 201.902344 Z M 165.46875 201.847656 Z M 131.238281 177.824219 C 130.015625 179.046875 129.484375 180.75 128.953125 182.34375 C 127.839844 185.585938 129.699219 190.742188 131.027344 191.855469 C 132.355469 192.972656 134.800781 193.929688 136.554688 194.195312 C 138.414062 194.460938 140.007812 193.929688 141.445312 192.921875 C 143.941406 191.167969 143.890625 188.347656 143.144531 185.480469 C 142.878906 184.46875 142.402344 183.460938 141.976562 182.503906 C 141.550781 181.546875 141.074219 180.535156 140.542969 179.578125 C 139.851562 178.464844 139.054688 177.132812 137.617188 176.761719 C 137.457031 176.710938 137.085938 176.65625 137.03125 176.710938 C 136.980469 176.65625 136.925781 176.710938 136.875 176.65625 C 136.875 176.65625 136.820312 176.601562 136.765625 176.65625 C 134.695312 176.496094 132.621094 176.445312 131.238281 177.824219 Z M 123.375 170.703125 C 123.375 171.234375 123.425781 171.820312 123.480469 172.402344 C 123.640625 173.308594 123.796875 174.210938 123.957031 175.113281 C 124.117188 175.804688 124.332031 176.550781 124.648438 177.1875 C 124.96875 177.824219 125.339844 178.515625 125.925781 178.996094 C 126.828125 179.578125 127.785156 179.472656 128.636719 178.941406 C 129.484375 178.410156 129.859375 177.613281 129.910156 176.710938 C 129.910156 175.964844 129.699219 175.222656 129.539062 174.53125 C 129.273438 173.734375 128.953125 172.988281 128.582031 172.296875 C 128.261719 171.554688 127.839844 170.808594 127.414062 170.066406 C 127.199219 169.746094 126.988281 169.320312 126.722656 169.054688 C 126.457031 168.789062 126.191406 168.628906 125.820312 168.578125 C 125.710938 168.578125 125.605469 168.578125 125.5 168.578125 C 125.179688 168.472656 124.808594 168.523438 124.542969 168.578125 C 124.117188 168.683594 123.746094 169.054688 123.585938 169.429688 C 123.53125 169.480469 123.480469 169.640625 123.480469 169.746094 C 123.480469 170.066406 123.375 170.382812 123.375 170.703125 Z M 146.175781 172.136719 C 146.121094 172.085938 146.175781 172.03125 146.175781 172.136719 C 146.226562 171.980469 146.226562 171.871094 146.226562 171.871094 C 146.386719 170.757812 146.492188 169.375 145.910156 168.363281 C 145.539062 167.671875 144.847656 167.300781 144.101562 167.515625 C 143.675781 167.621094 143.359375 167.832031 143.09375 168.097656 C 142.136719 169.054688 141.65625 170.597656 141.285156 171.925781 C 140.964844 173.203125 140.59375 174.636719 140.648438 175.964844 C 140.648438 176.601562 140.753906 177.347656 141.445312 177.613281 C 142.453125 178.089844 143.785156 177.71875 144.527344 176.976562 C 145.269531 176.335938 145.589844 175.273438 145.75 174.371094 C 145.855469 173.945312 145.910156 173.574219 145.960938 173.09375 C 145.960938 172.882812 146.015625 172.722656 146.070312 172.457031 C 146.121094 172.402344 146.121094 172.296875 146.175781 172.136719 C 146.175781 172.03125 146.175781 171.925781 146.175781 172.136719 Z M 132.410156 171.234375 C 132.78125 172.351562 133.578125 173.574219 134.90625 173.519531 C 135.492188 173.46875 135.917969 173.253906 136.34375 172.828125 C 136.660156 172.511719 136.980469 172.191406 137.140625 171.714844 C 137.40625 171.023438 137.351562 170.226562 137.351562 169.480469 C 137.351562 168.628906 137.246094 167.78125 137.140625 166.929688 C 137.085938 166.769531 137.140625 166.609375 137.085938 166.453125 C 137.085938 166.453125 137.085938 166.453125 137.085938 166.34375 C 137.085938 165.917969 137.03125 165.441406 136.980469 165.070312 C 136.875 164.324219 136.660156 163.476562 136.183594 162.890625 C 135.8125 162.410156 135.171875 162.09375 134.589844 162.144531 C 134.058594 162.144531 133.578125 162.519531 133.257812 162.945312 C 132.035156 164.699219 132.144531 166.824219 132.195312 168.894531 C 132.089844 169.640625 132.144531 170.4375 132.410156 171.234375 Z M 134.003906 164.21875 C 134.003906 164.21875 133.949219 164.164062 133.949219 164.164062 C 133.949219 164.164062 133.949219 164.164062 134.003906 164.21875 Z M 107.003906 65.890625 C 107.003906 65.890625 106.949219 65.945312 106.949219 65.945312 C 106.898438 65.996094 106.898438 65.996094 106.84375 66.050781 C 106.789062 66.105469 106.523438 66.371094 106.417969 66.476562 C 105.515625 67.59375 105.675781 69.132812 105.835938 70.355469 C 105.941406 71.417969 106.207031 72.429688 106.417969 73.492188 C 106.683594 74.5 106.898438 75.566406 107.269531 76.46875 C 108.386719 79.074219 110.085938 81.304688 113.0625 81.199219 C 114.816406 81.144531 116.359375 80.5625 117.632812 79.285156 C 118.855469 78.0625 120.132812 75.832031 120.503906 74.183594 C 120.875 72.535156 119.175781 67.433594 116.359375 65.574219 C 115.027344 64.667969 113.539062 63.710938 111.894531 63.445312 C 110.085938 63.234375 108.4375 64.5625 107.003906 65.890625 Z M 113.007812 52.761719 C 112.957031 52.710938 112.796875 52.65625 112.742188 52.605469 C 112.371094 52.445312 111.839844 52.339844 111.46875 52.496094 C 111.148438 52.605469 110.9375 52.816406 110.722656 53.027344 C 110.671875 53.082031 110.511719 53.136719 110.511719 53.242188 C 110.246094 53.507812 110.191406 53.773438 110.140625 54.144531 C 110.085938 54.515625 110.191406 54.941406 110.246094 55.316406 C 110.351562 56.164062 110.511719 56.960938 110.671875 57.757812 C 110.832031 58.558594 111.042969 59.300781 111.308594 60.097656 C 111.574219 60.789062 111.839844 61.480469 112.265625 62.011719 C 112.851562 62.703125 113.648438 63.074219 114.605469 62.96875 C 115.558594 62.863281 116.410156 62.332031 116.730469 61.375 C 116.996094 60.683594 116.835938 59.886719 116.675781 59.195312 C 116.515625 58.503906 116.25 57.8125 115.933594 57.175781 C 115.558594 56.378906 115.136719 55.527344 114.710938 54.78125 C 114.445312 54.304688 114.179688 53.828125 113.753906 53.402344 C 113.59375 53.027344 113.328125 52.871094 113.007812 52.761719 Z M 97.011719 68.015625 C 97.0625 68.070312 97.171875 68.175781 97.222656 68.230469 C 97.382812 68.390625 97.488281 68.496094 97.648438 68.65625 C 97.914062 68.921875 98.234375 69.238281 98.550781 69.453125 C 99.296875 70.089844 100.09375 70.675781 101.105469 70.726562 C 102.167969 70.835938 103.390625 70.355469 103.921875 69.398438 C 104.238281 68.761719 103.921875 68.125 103.546875 67.644531 C 102.804688 66.582031 101.6875 65.679688 100.570312 64.882812 C 99.5625 64.085938 98.234375 63.179688 96.90625 63.019531 C 96.53125 62.96875 96.109375 62.96875 95.734375 63.128906 C 95.042969 63.394531 94.671875 64.085938 94.832031 64.882812 C 95.097656 65.996094 95.894531 67.007812 96.691406 67.804688 C 96.746094 67.859375 96.796875 67.910156 96.851562 67.964844 C 96.957031 67.964844 97.011719 68.015625 97.011719 68.015625 C 96.796875 67.910156 96.957031 67.964844 97.011719 68.015625 Z M 107.109375 59.089844 C 107.535156 60.152344 107.640625 61.640625 106.523438 62.332031 C 106.101562 62.648438 105.515625 62.703125 105.035156 62.648438 C 104.558594 62.597656 104.1875 62.542969 103.761719 62.222656 C 103.125 61.796875 102.644531 61.214844 102.273438 60.628906 C 101.792969 59.9375 101.316406 59.246094 100.945312 58.558594 C 100.839844 58.449219 100.785156 58.289062 100.679688 58.183594 C 100.679688 58.183594 100.625 58.132812 100.625 58.132812 C 100.414062 57.8125 100.148438 57.441406 99.933594 57.015625 C 99.5625 56.324219 99.191406 55.632812 99.242188 54.835938 C 99.242188 54.199219 99.507812 53.613281 100.039062 53.292969 C 100.464844 52.976562 100.996094 52.976562 101.476562 53.136719 C 103.441406 53.71875 104.664062 55.472656 105.835938 57.070312 C 106.417969 57.652344 106.789062 58.34375 107.109375 59.089844 Z M 101.636719 54.570312 Z M 77.71875 81.570312 C 79.097656 82.527344 80.746094 83.003906 82.394531 82.847656 C 84.148438 82.6875 85.742188 81.835938 87.125 80.667969 C 88.292969 79.710938 89.199219 78.382812 89.144531 76.839844 C 89.089844 73.703125 86.59375 70.78125 83.988281 69.558594 C 82.183594 68.707031 80.164062 67.964844 78.144531 67.644531 C 77.503906 67.539062 76.761719 67.433594 76.125 67.644531 C 75.21875 67.910156 74.316406 68.601562 73.679688 69.238281 C 73.625 69.292969 73.625 69.292969 73.625 69.292969 C 72.667969 70.355469 72.191406 71.578125 72.347656 73.011719 C 72.5625 74.5 73.304688 75.777344 73.996094 77 C 74.953125 78.808594 76.070312 80.453125 77.71875 81.570312 Z M 64.324219 76.789062 C 63.207031 76.203125 62.144531 75.566406 61.1875 74.714844 C 61.027344 74.554688 60.867188 74.289062 60.867188 74.078125 C 60.816406 74.023438 60.761719 73.96875 60.761719 73.863281 C 60.550781 73.546875 60.496094 73.066406 60.65625 72.695312 C 60.761719 72.375 60.921875 72.214844 61.1875 72.058594 C 61.453125 71.683594 61.984375 71.472656 62.464844 71.417969 C 63.046875 71.367188 63.6875 71.578125 64.269531 71.632812 C 65.175781 71.792969 66.023438 72.003906 66.875 72.214844 C 67.726562 72.429688 68.574219 72.746094 69.320312 73.171875 C 69.957031 73.492188 70.648438 73.96875 70.96875 74.609375 C 71.394531 75.351562 71.339844 76.363281 70.808594 77 C 70.277344 77.742188 69.425781 77.957031 68.574219 77.957031 C 67.195312 78.273438 65.652344 77.476562 64.324219 76.789062 Z M 60.867188 73.757812 C 60.867188 73.652344 60.867188 73.546875 60.921875 73.492188 C 60.867188 73.652344 60.867188 73.757812 60.867188 73.757812 Z M 60.867188 74.183594 C 60.976562 74.289062 60.976562 74.289062 60.867188 74.183594 Z M 80.375 64.351562 C 80.746094 62.277344 78.726562 60.683594 77.558594 59.195312 C 76.8125 58.34375 75.910156 57.546875 74.847656 57.015625 C 73.730469 56.535156 72.773438 56.960938 72.5625 58.449219 C 72.347656 59.832031 73.464844 61.265625 74.15625 62.382812 C 75.007812 63.660156 75.167969 64.667969 76.28125 65.679688 C 76.8125 66.105469 77.453125 66.527344 78.144531 66.476562 C 79.257812 66.421875 80.164062 65.308594 80.375 64.351562 Z M 68.523438 68.335938 C 68.042969 68.070312 67.566406 67.804688 67.140625 67.484375 C 66.238281 66.796875 65.597656 66.050781 64.75 65.199219 C 63.953125 64.402344 62.996094 63.660156 63.101562 62.488281 C 63.15625 61.800781 63.578125 61.054688 64.21875 60.84375 C 64.589844 60.683594 65.066406 60.734375 65.441406 60.894531 C 66.238281 61.160156 66.929688 61.640625 67.671875 62.066406 C 68.894531 62.863281 70.171875 63.5 71.234375 64.457031 C 71.550781 64.773438 71.816406 65.039062 71.976562 65.414062 C 72.191406 65.839844 72.242188 66.316406 72.242188 66.742188 C 72.296875 67.75 71.550781 68.496094 70.542969 68.761719 C 69.90625 69.082031 69.214844 68.707031 68.523438 68.335938 Z M 65.492188 62.332031 C 65.546875 62.382812 65.546875 62.382812 65.492188 62.332031 C 65.546875 62.382812 65.546875 62.277344 65.492188 62.332031 C 65.546875 62.277344 65.546875 62.277344 65.492188 62.332031 C 65.546875 62.277344 65.546875 62.277344 65.492188 62.332031 Z M 65.492188 62.222656 C 65.492188 62.222656 65.546875 62.277344 65.492188 62.222656 C 65.546875 62.277344 65.546875 62.277344 65.492188 62.222656 C 65.546875 62.277344 65.492188 62.222656 65.492188 62.222656 Z M 74.527344 32.777344 C 76.125 32.355469 77.558594 30.707031 78.089844 29.21875 C 78.78125 27.464844 78.941406 26.242188 78.460938 24.382812 C 77.984375 22.628906 76.707031 21.5625 75.324219 20.5 C 73.679688 19.171875 71.871094 18.003906 69.796875 17.523438 C 68.308594 17.207031 67.085938 16.941406 65.546875 17.097656 C 64.003906 17.257812 62.570312 17.949219 61.824219 19.226562 C 61.824219 19.226562 61.773438 19.277344 61.773438 19.277344 C 61.347656 20.128906 60.976562 21.246094 60.976562 22.203125 C 60.976562 22.945312 61.347656 23.636719 61.667969 24.273438 C 62.675781 26.242188 64.109375 28.101562 65.597656 29.695312 C 67.777344 32.089844 71.394531 33.574219 74.527344 32.777344 Z M 67.832031 13.964844 C 68.363281 13.21875 68.363281 12.371094 68.097656 11.570312 C 67.671875 10.082031 66.503906 8.914062 65.441406 7.851562 C 64.589844 7 63.578125 6.097656 62.621094 5.460938 C 62.410156 5.351562 62.144531 5.300781 61.933594 5.300781 C 61.878906 5.246094 61.773438 5.246094 61.773438 5.246094 C 61.402344 5.195312 60.976562 5.195312 60.65625 5.511719 C 60.445312 5.726562 60.230469 5.9375 60.179688 6.203125 C 59.914062 6.574219 59.859375 7.160156 59.964844 7.585938 C 60.125 8.171875 60.445312 8.703125 60.761719 9.234375 C 61.136719 10.03125 61.613281 10.828125 62.089844 11.519531 C 62.570312 12.210938 63.101562 12.953125 63.738281 13.589844 C 64.269531 14.125 64.910156 14.65625 65.597656 14.8125 C 66.34375 15.027344 67.300781 14.707031 67.832031 13.964844 Z M 61.984375 5.351562 C 62.089844 5.351562 62.039062 5.40625 61.984375 5.351562 Z M 61.292969 5.511719 C 61.347656 5.460938 61.453125 5.460938 61.507812 5.40625 C 61.453125 5.460938 61.402344 5.511719 61.292969 5.511719 Z M 59.539062 24.167969 C 59.382812 23.476562 58.796875 23 58.210938 22.628906 C 56.882812 21.828125 55.449219 21.246094 54.011719 20.875 C 52.683594 20.5 50.984375 19.96875 49.65625 20.554688 C 48.378906 21.191406 48.75 22.839844 49.546875 23.742188 C 50.292969 24.59375 51.355469 25.230469 52.363281 25.710938 C 54.117188 26.402344 56.246094 27.890625 58.105469 26.878906 C 59.113281 26.402344 59.804688 25.179688 59.539062 24.167969 Z M 58.476562 13.007812 C 58.105469 12.636719 57.679688 12.316406 57.253906 11.996094 C 56.296875 11.359375 55.339844 10.722656 54.277344 10.191406 C 53.269531 9.710938 51.832031 9.339844 50.71875 9.816406 C 50.078125 10.136719 49.546875 10.773438 49.546875 11.414062 C 49.546875 11.835938 49.761719 12.261719 49.972656 12.582031 C 50.503906 13.21875 51.144531 13.75 51.78125 14.28125 C 52.898438 15.1875 53.960938 16.144531 55.289062 16.832031 C 55.660156 16.992188 56.03125 17.152344 56.457031 17.257812 C 56.9375 17.3125 57.359375 17.207031 57.785156 17.101562 C 58.796875 16.832031 59.699219 16.035156 59.59375 14.972656 C 59.59375 14.230469 59.0625 13.589844 58.476562 13.007812 Z M 51.300781 12.210938 C 51.300781 12.210938 51.355469 12.261719 51.300781 12.210938 C 51.355469 12.261719 51.300781 12.210938 51.300781 12.210938 Z M 51.195312 12.210938 C 51.195312 12.210938 51.25 12.261719 51.195312 12.210938 C 51.300781 12.210938 51.25 12.261719 51.195312 12.210938 Z M 21.164062 28.101562 C 21.164062 29.800781 22.015625 31.289062 22.707031 32.726562 C 24.195312 35.703125 29.03125 37.988281 30.734375 37.882812 C 32.378906 37.722656 34.773438 36.710938 36.101562 35.703125 C 37.535156 34.585938 38.28125 33.097656 38.597656 31.398438 C 39.078125 28.472656 37.109375 26.507812 34.613281 25.070312 C 33.710938 24.59375 32.699219 24.222656 31.796875 23.851562 C 30.785156 23.476562 29.777344 23.105469 28.765625 22.839844 C 27.492188 22.519531 26.003906 22.203125 24.832031 22.945312 C 24.675781 23 24.40625 23.265625 24.355469 23.316406 C 24.300781 23.371094 24.300781 23.371094 24.25 23.425781 C 24.25 23.425781 24.195312 23.476562 24.195312 23.476562 C 22.601562 24.753906 21.21875 26.242188 21.164062 28.101562 Z M 10.800781 28.6875 C 11.171875 29.058594 11.652344 29.429688 12.078125 29.75 C 12.820312 30.28125 13.566406 30.8125 14.308594 31.238281 C 14.894531 31.609375 15.585938 31.980469 16.222656 32.195312 C 16.914062 32.460938 17.65625 32.671875 18.347656 32.511719 C 19.359375 32.355469 19.945312 31.554688 20.210938 30.652344 C 20.421875 29.695312 20.15625 28.898438 19.519531 28.261719 C 19.039062 27.78125 18.402344 27.359375 17.765625 27.039062 C 17.074219 26.667969 16.277344 26.402344 15.585938 26.136719 C 14.789062 25.871094 14.042969 25.65625 13.246094 25.390625 C 12.875 25.335938 12.449219 25.125 12.078125 25.179688 C 11.757812 25.179688 11.386719 25.230469 11.171875 25.445312 C 11.121094 25.496094 11.015625 25.605469 10.960938 25.65625 C 10.695312 25.816406 10.429688 26.082031 10.324219 26.292969 C 10.109375 26.71875 10.164062 27.199219 10.269531 27.625 C 10.269531 27.730469 10.375 27.835938 10.375 27.941406 C 10.484375 28.15625 10.589844 28.472656 10.800781 28.6875 Z M 27.492188 13.804688 C 27.492188 13.804688 27.4375 13.75 27.492188 13.804688 C 27.382812 13.699219 27.382812 13.589844 27.332031 13.539062 C 26.640625 12.636719 25.789062 11.679688 24.675781 11.304688 C 23.929688 11.09375 23.238281 11.359375 22.867188 12.050781 C 22.652344 12.371094 22.601562 12.847656 22.601562 13.167969 C 22.601562 14.546875 23.34375 15.929688 24.035156 17.046875 C 24.726562 18.164062 25.417969 19.386719 26.429688 20.289062 C 26.851562 20.714844 27.492188 21.140625 28.128906 20.925781 C 29.136719 20.554688 29.777344 19.386719 29.777344 18.320312 C 29.828125 17.3125 29.296875 16.460938 28.820312 15.664062 C 28.605469 15.34375 28.339844 14.972656 28.128906 14.65625 C 27.96875 14.496094 27.917969 14.335938 27.757812 14.175781 C 27.597656 14.015625 27.542969 13.964844 27.492188 13.804688 C 27.4375 13.75 27.332031 13.644531 27.492188 13.804688 Z M 17.339844 22.785156 C 18.347656 23.371094 19.785156 23.636719 20.632812 22.574219 C 20.953125 22.148438 21.113281 21.671875 21.113281 21.140625 C 21.113281 20.714844 21.113281 20.289062 20.898438 19.863281 C 20.582031 19.226562 19.996094 18.640625 19.464844 18.214844 C 18.828125 17.683594 18.191406 17.152344 17.550781 16.621094 C 17.445312 16.515625 17.339844 16.410156 17.179688 16.355469 C 17.179688 16.355469 17.125 16.300781 17.125 16.300781 C 16.859375 16.035156 16.488281 15.769531 16.117188 15.503906 C 15.53125 15.027344 14.789062 14.601562 14.042969 14.496094 C 13.460938 14.441406 12.820312 14.65625 12.394531 15.078125 C 12.023438 15.453125 11.972656 16.035156 12.023438 16.515625 C 12.34375 18.535156 13.992188 19.96875 15.371094 21.351562 C 16.0625 21.9375 16.648438 22.414062 17.339844 22.785156 Z M 13.617188 16.832031 C 13.566406 16.78125 13.511719 16.832031 13.617188 16.832031 C 13.511719 16.832031 13.511719 16.832031 13.617188 16.832031 C 13.511719 16.832031 13.566406 16.78125 13.617188 16.832031 Z M 120.023438 120.050781 C 118.589844 119.679688 117.15625 119.199219 115.667969 119.308594 C 114.179688 119.414062 113.0625 120.210938 112.265625 121.433594 C 112.265625 121.433594 112.210938 121.488281 112.210938 121.488281 C 111.734375 122.285156 111.203125 123.347656 111.203125 124.304688 C 111.148438 124.996094 111.414062 125.683594 111.628906 126.324219 C 112.371094 128.238281 113.59375 130.097656 114.871094 131.691406 C 116.675781 134.03125 120.183594 135.835938 123.265625 135.199219 C 124.808594 134.828125 125.925781 133.710938 126.617188 132.277344 C 127.414062 130.628906 127.945312 128.820312 127.679688 127.066406 C 127.464844 125.367188 126.5625 123.824219 125.339844 122.707031 C 123.796875 121.273438 121.9375 120.582031 120.023438 120.050781 Z M 117.527344 110.429688 C 116.675781 109.472656 115.828125 108.519531 114.761719 107.773438 C 114.496094 107.613281 114.339844 107.5625 114.074219 107.613281 C 114.019531 107.5625 113.914062 107.5625 113.914062 107.5625 C 113.488281 107.453125 113.117188 107.507812 112.796875 107.71875 C 112.53125 107.878906 112.371094 108.144531 112.320312 108.410156 C 112 108.730469 111.945312 109.316406 112 109.792969 C 112.105469 110.429688 112.425781 110.960938 112.691406 111.546875 C 113.0625 112.34375 113.488281 113.195312 113.859375 113.992188 C 114.339844 114.789062 114.761719 115.535156 115.347656 116.222656 C 115.828125 116.808594 116.410156 117.394531 117.15625 117.605469 C 118.003906 117.820312 119.015625 117.554688 119.546875 116.914062 C 120.132812 116.222656 120.183594 115.320312 120.023438 114.523438 C 119.652344 112.875 118.535156 111.546875 117.527344 110.429688 Z M 113.753906 107.613281 C 113.648438 107.613281 113.59375 107.667969 113.539062 107.71875 C 113.539062 107.71875 113.699219 107.667969 113.753906 107.613281 Z M 114.179688 107.613281 C 114.285156 107.613281 114.230469 107.667969 114.179688 107.613281 Z M 110.351562 126.640625 C 110.191406 125.949219 109.714844 125.367188 109.128906 124.996094 C 107.90625 124.089844 106.789062 124.144531 105.410156 123.613281 C 104.132812 123.1875 102.539062 122.335938 101.15625 122.867188 C 99.773438 123.398438 99.5625 124.460938 100.253906 125.472656 C 100.945312 126.375 102.007812 127.121094 103.015625 127.703125 C 104.769531 128.503906 106.789062 130.203125 108.808594 129.351562 C 109.714844 128.875 110.5625 127.597656 110.351562 126.640625 Z M 110.03125 116.542969 C 109.714844 116.117188 109.289062 115.691406 108.863281 115.375 C 107.960938 114.578125 107.109375 114.152344 106.046875 113.515625 C 105.035156 112.929688 104.132812 112.132812 102.964844 112.449219 C 102.273438 112.714844 101.636719 113.25 101.636719 113.992188 C 101.636719 114.417969 101.742188 114.84375 102.007812 115.214844 C 102.433594 115.957031 103.070312 116.597656 103.707031 117.128906 C 104.769531 118.191406 105.726562 119.253906 106.949219 120.15625 C 107.324219 120.421875 107.695312 120.582031 108.121094 120.6875 C 108.542969 120.796875 109.023438 120.742188 109.5 120.6875 C 110.511719 120.53125 111.097656 119.625 111.148438 118.511719 C 111.097656 117.710938 110.5625 117.179688 110.03125 116.542969 Z M 103.390625 114.894531 C 103.390625 114.894531 103.441406 114.949219 103.390625 114.894531 C 103.441406 114.949219 103.335938 114.949219 103.390625 114.894531 C 103.335938 114.949219 103.335938 114.949219 103.390625 114.894531 C 103.335938 114.949219 103.335938 114.949219 103.390625 114.894531 Z M 103.28125 114.894531 C 103.28125 114.894531 103.335938 114.949219 103.28125 114.894531 C 103.335938 114.949219 103.335938 114.949219 103.28125 114.894531 C 103.335938 114.949219 103.28125 114.894531 103.28125 114.894531 Z M 103.28125 114.894531 " fill-opacity="1" fill-rule="nonzero"/></g></g></g></svg>