<svg xmlns="http://www.w3.org/2000/svg" xmlns:xlink="http://www.w3.org/1999/xlink" width="275" zoomAndPan="magnify" viewBox="0 0 206.25 374.999989" height="500" preserveAspectRatio="xMidYMid meet" version="1.0"><defs><clipPath id="9c3a62d136"><path d="M 27 5 L 196 5 L 196 374.320312 L 27 374.320312 Z M 27 5 " clip-rule="nonzero"/></clipPath><clipPath id="3834d8f54b"><path d="M 161.597656 -16.660156 L 306.910156 128.652344 L 43.761719 391.800781 L -101.546875 246.488281 Z M 161.597656 -16.660156 " clip-rule="nonzero"/></clipPath><clipPath id="1c801c578e"><path d="M 306.910156 128.652344 L 161.597656 -16.660156 L -101.546875 246.488281 L 43.761719 391.800781 Z M 306.910156 128.652344 " clip-rule="nonzero"/></clipPath></defs><g clip-path="url(#9c3a62d136)"><g clip-path="url(#3834d8f54b)"><g clip-path="url(#1c801c578e)"><path fill="#fafad8" d="M 36.738281 364.167969 C 35.410156 365.5 34.453125 367.410156 33.601562 369.113281 C 31.847656 372.671875 30.890625 376.820312 32.859375 379.957031 C 33.710938 381.230469 34.824219 382.132812 36.261719 382.398438 C 37.855469 382.71875 39.820312 382.773438 41.308594 381.601562 C 43.914062 379.636719 45.296875 375.597656 45.296875 372.515625 C 45.296875 371.453125 45.136719 370.335938 44.976562 369.324219 C 44.816406 368.210938 44.605469 367.144531 44.339844 366.136719 C 44.074219 364.914062 43.59375 363.480469 42.371094 363.105469 C 42.320312 363.054688 41.894531 363.054688 41.839844 363 C 41.839844 363 41.734375 363 41.734375 363 C 41.734375 363 41.683594 362.949219 41.628906 363 C 40.085938 362.628906 38.226562 362.679688 36.738281 364.167969 Z M 33.179688 351.46875 C 33.496094 351.253906 33.921875 351.148438 34.347656 351.253906 C 34.613281 351.308594 34.933594 351.519531 35.144531 351.734375 C 35.199219 351.785156 35.355469 351.839844 35.410156 351.890625 C 35.675781 352.15625 35.835938 352.421875 35.941406 352.742188 C 36.101562 353.113281 36.046875 353.488281 36.046875 353.910156 C 36.101562 354.710938 36.101562 355.453125 36.101562 356.304688 C 36.101562 357.046875 36.046875 357.84375 35.941406 358.589844 C 35.835938 359.226562 35.730469 359.972656 35.410156 360.503906 C 34.984375 361.246094 34.347656 361.671875 33.445312 361.617188 C 32.539062 361.566406 31.691406 361.140625 31.15625 360.183594 C 30.839844 359.546875 30.785156 358.75 30.839844 358.058594 C 30.890625 357.367188 30.945312 356.675781 31.15625 356.039062 C 31.371094 355.1875 31.582031 354.441406 31.847656 353.644531 C 32.007812 353.167969 32.167969 352.6875 32.433594 352.210938 C 32.59375 351.945312 32.753906 351.785156 33.019531 351.625 C 33.019531 351.625 33.070312 351.574219 33.179688 351.46875 Z M 52.628906 362.839844 C 52.578125 362.894531 52.523438 363.054688 52.472656 363.105469 C 52.363281 363.320312 52.3125 363.480469 52.207031 363.585938 C 52.046875 363.957031 51.832031 364.277344 51.675781 364.648438 C 51.195312 365.445312 50.609375 366.242188 49.707031 366.507812 C 48.75 366.828125 47.953125 366.988281 47.101562 366.136719 C 46.519531 365.550781 46.199219 363.957031 46.359375 363.371094 C 46.679688 362.097656 47.261719 361.40625 47.953125 360.394531 C 48.699219 359.332031 49.546875 358.164062 50.875 357.683594 C 51.25 357.527344 51.621094 357.472656 52.046875 357.578125 C 52.84375 357.738281 53.429688 358.324219 53.585938 359.121094 C 53.800781 360.289062 53.320312 361.511719 52.84375 362.523438 C 52.789062 362.574219 52.789062 362.679688 52.738281 362.734375 C 52.683594 362.789062 52.683594 362.789062 52.628906 362.839844 C 52.738281 362.628906 52.738281 362.734375 52.628906 362.839844 Z M 40.195312 355.398438 C 39.929688 356.515625 40.035156 358.003906 41.257812 358.589844 C 41.734375 358.855469 42.265625 358.855469 42.796875 358.75 C 43.222656 358.640625 43.648438 358.535156 43.96875 358.21875 C 44.550781 357.738281 44.925781 357.046875 45.242188 356.410156 C 45.667969 355.664062 45.988281 354.921875 46.253906 354.125 C 46.304688 353.964844 46.359375 353.804688 46.464844 353.699219 C 46.464844 353.699219 46.519531 353.644531 46.519531 353.644531 C 46.730469 353.328125 46.890625 352.847656 47.050781 352.476562 C 47.316406 351.785156 47.582031 350.988281 47.421875 350.191406 C 47.316406 349.554688 46.996094 349.023438 46.414062 348.757812 C 45.933594 348.492188 45.402344 348.597656 44.925781 348.757812 C 43.011719 349.605469 42.054688 351.519531 41.097656 353.222656 C 40.726562 353.910156 40.40625 354.65625 40.195312 355.398438 Z M 45.03125 350.246094 C 44.976562 350.191406 44.976562 350.191406 45.03125 350.246094 Z M 74.636719 340.410156 C 75.644531 338.445312 76.867188 336.371094 78.355469 334.671875 C 78.832031 334.085938 79.367188 333.554688 80.109375 333.238281 C 81.011719 332.863281 82.234375 332.8125 83.191406 332.917969 C 83.191406 332.917969 83.296875 332.917969 83.296875 332.917969 C 84.785156 333.128906 85.957031 334.300781 86.699219 335.679688 C 87.445312 337.0625 87.605469 338.285156 87.871094 339.828125 C 88.1875 341.953125 87.761719 344.078125 87.070312 346.152344 C 86.488281 347.90625 86.007812 349.554688 84.519531 350.617188 C 82.980469 351.734375 81.652344 352 79.789062 352.050781 C 78.195312 352.050781 76.070312 351.308594 75.058594 349.980469 C 73.09375 347.269531 73.199219 343.335938 74.636719 340.410156 Z M 90.472656 336.585938 C 91.324219 336.796875 92.175781 336.476562 92.867188 336 C 94.085938 335.097656 94.777344 333.449219 95.417969 332.066406 C 95.894531 330.949219 96.425781 329.675781 96.585938 328.453125 C 96.640625 328.1875 96.585938 327.921875 96.480469 327.707031 C 96.480469 327.601562 96.480469 327.601562 96.480469 327.496094 C 96.425781 327.125 96.214844 326.699219 95.84375 326.539062 C 95.574219 326.378906 95.308594 326.328125 95.042969 326.378906 C 94.566406 326.21875 94.035156 326.433594 93.664062 326.699219 C 93.132812 327.019531 92.757812 327.601562 92.332031 328.027344 C 91.75 328.71875 91.164062 329.410156 90.632812 330.152344 C 90.101562 330.898438 89.625 331.695312 89.25 332.492188 C 88.933594 333.128906 88.667969 333.925781 88.824219 334.722656 C 88.933594 335.574219 89.625 336.371094 90.472656 336.585938 Z M 96.480469 327.816406 C 96.53125 327.972656 96.53125 327.972656 96.480469 327.816406 Z M 96.054688 327.285156 C 96.109375 327.335938 96.214844 327.441406 96.265625 327.496094 C 96.214844 327.441406 96.160156 327.390625 96.054688 327.285156 Z M 74.636719 332.226562 C 72.988281 330.792969 73.625 328.242188 73.625 326.328125 C 73.730469 325.15625 73.890625 323.933594 74.421875 322.871094 C 74.953125 321.808594 76.390625 320.800781 77.503906 321.808594 C 78.566406 322.765625 78.726562 324.730469 78.832031 326.007812 C 78.992188 327.550781 78.992188 329.144531 78.726562 330.683594 C 78.566406 331.375 78.300781 332.066406 77.71875 332.546875 C 76.867188 333.183594 75.433594 332.917969 74.636719 332.226562 Z M 87.871094 327.390625 C 88.082031 326.859375 88.242188 326.378906 88.347656 325.847656 C 88.613281 324.730469 88.878906 323.511719 88.984375 322.339844 C 89.089844 321.171875 88.878906 319.683594 88.027344 318.832031 C 87.496094 318.300781 86.699219 318.035156 86.0625 318.355469 C 85.691406 318.515625 85.371094 318.832031 85.105469 319.203125 C 84.679688 319.949219 84.414062 320.746094 84.203125 321.597656 C 83.777344 322.976562 83.246094 324.359375 83.03125 325.847656 C 82.980469 326.328125 82.980469 326.644531 83.03125 327.125 C 83.140625 327.550781 83.40625 328.027344 83.722656 328.347656 C 84.363281 329.195312 85.425781 329.726562 86.488281 329.304688 C 87.230469 328.878906 87.605469 328.082031 87.871094 327.390625 Z M 86.007812 320.214844 C 86.0625 320.269531 86.007812 320.320312 86.007812 320.214844 C 86.007812 320.320312 85.957031 320.269531 86.007812 320.214844 Z M 86.007812 320.214844 Z M 64.164062 278.386719 C 64.164062 278.386719 64.21875 278.4375 64.21875 278.4375 C 64.269531 278.492188 64.269531 278.492188 64.378906 278.492188 C 64.429688 278.542969 64.800781 278.703125 64.910156 278.8125 C 66.078125 279.660156 66.289062 281.253906 66.503906 282.53125 C 66.664062 283.648438 66.664062 284.710938 66.714844 285.828125 C 66.714844 286.890625 66.769531 288.003906 66.609375 289.015625 C 66.183594 291.886719 65.066406 294.488281 62.089844 295.128906 C 60.335938 295.5 58.691406 295.339844 57.09375 294.382812 C 55.605469 293.425781 53.746094 291.566406 53.003906 290.078125 C 52.207031 288.539062 52.628906 283.007812 54.917969 280.511719 C 56.03125 279.289062 57.203125 277.90625 58.796875 277.269531 C 60.496094 276.523438 62.410156 277.375 64.164062 278.386719 Z M 54.917969 266.90625 C 55.023438 266.796875 55.074219 266.746094 55.183594 266.640625 C 55.554688 266.375 55.980469 266.160156 56.457031 266.214844 C 56.777344 266.214844 57.09375 266.320312 57.359375 266.585938 C 57.46875 266.585938 57.519531 266.640625 57.625 266.746094 C 57.945312 266.957031 58.105469 267.222656 58.210938 267.542969 C 58.371094 267.914062 58.371094 268.339844 58.425781 268.710938 C 58.53125 269.5625 58.582031 270.359375 58.582031 271.210938 C 58.636719 272.007812 58.636719 272.859375 58.53125 273.601562 C 58.476562 274.292969 58.316406 275.089844 58.050781 275.78125 C 57.625 276.632812 56.9375 277.214844 55.980469 277.324219 C 54.96875 277.480469 54.011719 277.164062 53.429688 276.257812 C 53.003906 275.621094 52.949219 274.824219 52.949219 274.082031 C 52.949219 273.335938 53.054688 272.59375 53.164062 271.847656 C 53.320312 270.945312 53.480469 270.039062 53.800781 269.191406 C 53.960938 268.605469 54.117188 268.128906 54.332031 267.597656 C 54.4375 267.277344 54.652344 267.066406 54.917969 266.90625 Z M 74.582031 277.960938 C 74.527344 278.011719 74.476562 278.171875 74.421875 278.226562 C 74.316406 278.4375 74.210938 278.542969 74.101562 278.757812 C 73.890625 279.078125 73.679688 279.5 73.414062 279.765625 C 72.828125 280.566406 72.191406 281.308594 71.234375 281.734375 C 70.222656 282.105469 68.839844 281.894531 68.152344 281.097656 C 67.617188 280.566406 67.886719 279.875 68.097656 279.234375 C 68.574219 278.011719 69.480469 276.789062 70.277344 275.78125 C 71.128906 274.71875 72.136719 273.496094 73.464844 273.015625 C 73.835938 272.859375 74.210938 272.804688 74.636719 272.804688 C 75.378906 272.910156 75.964844 273.496094 75.964844 274.238281 C 76.070312 275.410156 75.433594 276.578125 74.847656 277.589844 C 74.792969 277.640625 74.742188 277.695312 74.6875 277.746094 C 74.636719 277.90625 74.636719 277.90625 74.582031 277.960938 C 74.792969 277.746094 74.6875 277.855469 74.582031 277.960938 Z M 62.304688 271.636719 C 62.199219 272.804688 62.410156 274.292969 63.6875 274.71875 C 64.21875 274.929688 64.75 274.824219 65.226562 274.664062 C 65.707031 274.503906 66.078125 274.347656 66.398438 273.921875 C 66.875 273.335938 67.246094 272.644531 67.460938 271.902344 C 67.726562 271.105469 67.992188 270.308594 68.257812 269.507812 C 68.308594 269.351562 68.363281 269.191406 68.363281 269.085938 C 68.363281 269.085938 68.417969 269.03125 68.417969 269.03125 C 68.574219 268.660156 68.734375 268.179688 68.789062 267.808594 C 69 267.066406 69.160156 266.265625 68.894531 265.46875 C 68.734375 264.886719 68.308594 264.355469 67.671875 264.140625 C 67.140625 263.929688 66.664062 264.089844 66.183594 264.355469 C 64.375 265.417969 63.578125 267.488281 62.835938 269.402344 C 62.675781 270.09375 62.464844 270.839844 62.304688 271.636719 Z M 66.609375 265.84375 C 66.554688 265.789062 66.609375 265.734375 66.609375 265.84375 C 66.609375 265.734375 66.609375 265.734375 66.609375 265.84375 C 66.609375 265.734375 66.609375 265.734375 66.609375 265.84375 Z M 96.375 255.105469 C 96.585938 256.804688 96.265625 258.507812 95.308594 259.996094 C 94.300781 261.535156 92.8125 262.601562 91.113281 263.34375 C 89.730469 263.980469 88.082031 264.140625 86.699219 263.398438 C 83.9375 261.910156 82.339844 258.292969 82.5 255.371094 C 82.609375 253.351562 82.875 251.171875 83.511719 249.152344 C 83.722656 248.515625 83.988281 247.824219 84.46875 247.347656 C 85.160156 246.65625 86.167969 246.175781 87.070312 245.910156 C 87.125 245.859375 87.125 245.859375 87.179688 245.910156 C 88.613281 245.539062 89.941406 245.699219 91.164062 246.496094 C 92.386719 247.398438 93.238281 248.675781 94.035156 249.789062 C 95.152344 251.332031 96.160156 253.085938 96.375 255.105469 Z M 98.285156 240.753906 C 98.285156 239.480469 98.179688 238.203125 97.914062 236.980469 C 97.863281 236.714844 97.703125 236.554688 97.488281 236.34375 C 97.4375 236.289062 97.4375 236.183594 97.382812 236.132812 C 97.171875 235.8125 96.796875 235.546875 96.425781 235.492188 C 96.109375 235.492188 95.84375 235.546875 95.574219 235.707031 C 95.097656 235.757812 94.671875 236.183594 94.40625 236.554688 C 94.089844 237.085938 93.980469 237.726562 93.820312 238.308594 C 93.554688 239.214844 93.34375 240.0625 93.183594 240.96875 C 93.023438 241.871094 92.917969 242.722656 92.917969 243.679688 C 92.917969 244.421875 93.023438 245.273438 93.449219 245.910156 C 93.929688 246.601562 94.886719 247.027344 95.734375 246.921875 C 96.640625 246.761719 97.277344 246.125 97.648438 245.324219 C 98.339844 243.996094 98.339844 242.191406 98.285156 240.753906 Z M 97.222656 236.183594 C 97.171875 236.132812 97.0625 236.132812 96.957031 236.132812 C 97.0625 236.132812 97.117188 236.183594 97.222656 236.183594 Z M 97.542969 236.398438 C 97.648438 236.503906 97.597656 236.554688 97.542969 236.398438 Z M 79.523438 249.523438 C 77.398438 248.886719 76.972656 246.335938 76.175781 244.582031 C 75.75 243.519531 75.378906 242.296875 75.484375 241.128906 C 75.539062 239.90625 76.441406 239.214844 77.878906 239.691406 C 79.257812 240.117188 80.003906 241.816406 80.695312 242.933594 C 81.492188 244.261719 82.289062 244.953125 82.660156 246.390625 C 82.820312 247.078125 82.925781 247.824219 82.5 248.460938 C 81.917969 249.472656 80.480469 249.84375 79.523438 249.523438 Z M 88.667969 240.597656 C 88.667969 240.0625 88.613281 239.480469 88.507812 238.949219 C 88.292969 237.777344 87.921875 236.875 87.550781 235.757812 C 87.179688 234.644531 86.964844 233.472656 85.851562 232.996094 C 85.160156 232.730469 84.363281 232.78125 83.828125 233.3125 C 83.511719 233.632812 83.351562 234.003906 83.296875 234.484375 C 83.191406 235.332031 83.246094 236.238281 83.296875 237.035156 C 83.457031 238.46875 83.457031 239.957031 83.828125 241.394531 C 83.9375 241.816406 84.09375 242.191406 84.363281 242.5625 C 84.628906 242.933594 85.050781 243.253906 85.425781 243.414062 C 86.273438 243.945312 87.335938 243.625 88.082031 242.773438 C 88.71875 242.242188 88.667969 241.445312 88.667969 240.597656 Z M 84.574219 235.121094 C 84.519531 235.066406 84.519531 235.066406 84.574219 235.121094 Z M 84.519531 235.066406 Z M 55.234375 135.730469 C 55.339844 137.644531 54.703125 139.664062 54.171875 141.472656 C 53.109375 145.296875 50.929688 148.964844 47.367188 149.976562 C 45.933594 150.347656 44.445312 150.242188 43.222656 149.441406 C 41.839844 148.59375 40.351562 147.316406 40.035156 145.402344 C 39.449219 142.160156 41.148438 138.230469 43.222656 135.941406 C 43.96875 135.09375 44.816406 134.453125 45.667969 133.816406 C 46.464844 133.125 47.367188 132.433594 48.273438 131.851562 C 49.28125 131.160156 50.609375 130.363281 51.726562 130.945312 C 51.832031 130.945312 52.152344 131.160156 52.207031 131.210938 C 52.257812 131.265625 52.257812 131.265625 52.3125 131.320312 C 52.3125 131.320312 52.363281 131.371094 52.363281 131.371094 C 53.746094 132.328125 55.128906 133.605469 55.234375 135.730469 Z M 66.449219 128.449219 C 66.554688 128.660156 66.554688 128.980469 66.503906 129.246094 C 66.34375 129.726562 66.183594 130.203125 66.023438 130.679688 C 65.707031 131.425781 65.332031 132.222656 64.910156 132.964844 C 64.535156 133.550781 64.164062 134.136719 63.738281 134.667969 C 63.3125 135.199219 62.78125 135.730469 62.089844 135.996094 C 61.136719 136.316406 60.179688 136.101562 59.488281 135.519531 C 58.796875 134.933594 58.582031 134.1875 58.796875 133.339844 C 58.902344 132.699219 59.328125 132.0625 59.648438 131.53125 C 60.070312 130.894531 60.550781 130.308594 61.027344 129.726562 C 61.507812 129.140625 62.089844 128.554688 62.621094 128.023438 C 62.890625 127.757812 63.15625 127.492188 63.472656 127.28125 C 63.792969 127.066406 64.058594 127.015625 64.429688 126.960938 C 64.535156 126.960938 64.644531 126.960938 64.695312 127.015625 C 65.015625 127.015625 65.332031 127.121094 65.597656 127.171875 C 65.972656 127.332031 66.238281 127.703125 66.34375 128.128906 C 66.449219 128.238281 66.449219 128.34375 66.449219 128.449219 Z M 44.445312 123.347656 C 44.445312 123.347656 44.390625 123.292969 44.445312 123.347656 C 44.5 123.1875 44.445312 123.132812 44.5 123.082031 C 44.816406 122.019531 45.296875 120.796875 46.253906 120.050781 C 46.890625 119.519531 47.742188 119.519531 48.433594 120 C 48.75 120.210938 49.015625 120.582031 49.230469 120.902344 C 49.8125 122.125 49.707031 123.613281 49.546875 124.835938 C 49.386719 126.058594 49.335938 126.960938 48.699219 128.128906 C 48.378906 128.660156 47.101562 129.617188 46.304688 129.671875 C 45.082031 129.726562 44.605469 129.035156 44.125 128.128906 C 43.648438 127.226562 43.753906 126.269531 43.914062 125.367188 C 43.96875 124.996094 44.074219 124.570312 44.234375 124.195312 C 44.285156 124.039062 44.339844 123.773438 44.390625 123.613281 C 44.339844 123.558594 44.390625 123.507812 44.445312 123.347656 C 44.390625 123.292969 44.445312 123.132812 44.445312 123.347656 Z M 58.582031 126.324219 C 58 127.332031 56.988281 128.34375 55.660156 127.96875 C 55.128906 127.863281 54.757812 127.492188 54.4375 127.066406 C 54.171875 126.695312 53.90625 126.324219 53.90625 125.898438 C 53.800781 125.152344 54.011719 124.410156 54.171875 123.71875 C 54.4375 122.921875 54.703125 122.125 54.96875 121.328125 C 55.023438 121.167969 55.074219 121.007812 55.074219 120.902344 C 55.074219 120.902344 55.128906 120.847656 55.128906 120.847656 C 55.234375 120.421875 55.394531 120.050781 55.5 119.625 C 55.765625 118.933594 56.140625 118.136719 56.722656 117.660156 C 57.203125 117.289062 57.839844 117.074219 58.476562 117.289062 C 59.007812 117.394531 59.328125 117.820312 59.59375 118.296875 C 60.445312 120.210938 59.859375 122.285156 59.378906 124.144531 C 59.222656 124.835938 58.957031 125.632812 58.582031 126.324219 Z M 58.53125 119.253906 C 58.53125 119.253906 58.582031 119.199219 58.582031 119.199219 C 58.476562 119.199219 58.53125 119.253906 58.53125 119.253906 Z M 41.46875 233.578125 C 40.140625 234.589844 37.910156 234.695312 36.367188 234.113281 C 34.558594 233.472656 33.445312 232.890625 32.273438 231.292969 C 31.15625 229.859375 31.15625 228.160156 31.210938 226.296875 C 31.265625 224.121094 31.425781 221.941406 32.378906 220.027344 C 33.070312 218.589844 33.601562 217.527344 34.71875 216.414062 C 35.835938 215.296875 37.269531 214.605469 38.8125 214.871094 C 38.8125 214.871094 38.917969 214.871094 38.917969 214.871094 C 39.875 215.082031 40.992188 215.457031 41.734375 216.09375 C 42.320312 216.570312 42.636719 217.316406 42.957031 217.953125 C 43.859375 220.027344 44.390625 222.367188 44.765625 224.542969 C 45.296875 227.734375 44.125 231.558594 41.46875 233.578125 Z M 30.839844 216.148438 C 29.9375 216.09375 29.191406 215.5625 28.765625 214.816406 C 27.914062 213.542969 27.648438 211.789062 27.542969 210.300781 C 27.4375 209.023438 27.332031 207.75 27.492188 206.527344 C 27.542969 206.261719 27.648438 206.046875 27.808594 205.890625 C 27.863281 205.835938 27.863281 205.730469 27.914062 205.675781 C 28.074219 205.304688 28.449219 205.039062 28.871094 204.933594 C 29.136719 204.878906 29.457031 204.878906 29.722656 205.039062 C 30.203125 205.089844 30.679688 205.355469 30.945312 205.730469 C 31.316406 206.207031 31.53125 206.84375 31.796875 207.429688 C 32.167969 208.226562 32.488281 209.078125 32.753906 209.980469 C 33.019531 210.886719 33.230469 211.734375 33.390625 212.640625 C 33.496094 213.382812 33.496094 214.234375 33.125 214.925781 C 32.59375 215.667969 31.691406 216.148438 30.839844 216.148438 Z M 27.757812 205.941406 C 27.648438 206.046875 27.703125 206.101562 27.757812 205.941406 Z M 28.289062 205.515625 C 28.183594 205.515625 28.128906 205.570312 28.023438 205.675781 C 28.128906 205.675781 28.234375 205.570312 28.289062 205.515625 Z M 44.234375 216.148438 C 43.808594 215.507812 43.753906 214.816406 43.859375 214.074219 C 44.019531 212.53125 44.550781 211.042969 45.136719 209.609375 C 45.667969 208.332031 46.359375 206.578125 47.6875 205.996094 C 49.015625 205.410156 50.078125 206.792969 50.292969 207.960938 C 50.503906 209.132812 50.34375 210.351562 50.027344 211.523438 C 49.441406 213.382812 49.28125 215.988281 47.261719 216.835938 C 46.304688 217.15625 44.871094 216.996094 44.234375 216.148438 Z M 36.101562 208.121094 C 36.046875 207.535156 36.046875 207.003906 36.101562 206.527344 C 36.207031 205.355469 36.3125 204.1875 36.527344 203.019531 C 36.792969 201.902344 37.429688 200.519531 38.546875 199.9375 C 39.183594 199.617188 40.035156 199.617188 40.617188 200.09375 C 40.992188 200.359375 41.097656 200.785156 41.257812 201.160156 C 41.46875 202.007812 41.46875 202.859375 41.46875 203.710938 C 41.46875 205.199219 41.574219 206.6875 41.308594 208.121094 C 41.203125 208.546875 41.097656 208.972656 40.882812 209.289062 C 40.671875 209.714844 40.300781 209.980469 39.875 210.300781 C 39.023438 210.9375 37.800781 211.097656 36.953125 210.351562 C 36.261719 209.769531 36.152344 208.917969 36.101562 208.121094 Z M 39.980469 201.902344 C 40.035156 201.957031 40.085938 201.902344 39.980469 201.902344 C 40.035156 201.847656 40.035156 201.847656 39.980469 201.902344 C 40.035156 201.847656 40.035156 201.847656 39.980469 201.902344 Z M 40.035156 201.847656 Z M 74.261719 177.824219 C 75.484375 179.046875 76.015625 180.75 76.546875 182.34375 C 77.664062 185.585938 75.804688 190.742188 74.476562 191.855469 C 73.148438 192.972656 70.703125 193.929688 68.949219 194.195312 C 67.085938 194.460938 65.492188 193.929688 64.058594 192.921875 C 61.558594 191.167969 61.613281 188.347656 62.355469 185.480469 C 62.621094 184.46875 63.101562 183.460938 63.527344 182.503906 C 63.953125 181.546875 64.429688 180.535156 64.960938 179.578125 C 65.652344 178.464844 66.449219 177.132812 67.886719 176.761719 C 68.042969 176.710938 68.417969 176.65625 68.46875 176.710938 C 68.523438 176.65625 68.574219 176.710938 68.628906 176.65625 C 68.628906 176.65625 68.683594 176.601562 68.734375 176.65625 C 70.808594 176.496094 72.882812 176.445312 74.261719 177.824219 Z M 82.128906 170.703125 C 82.128906 171.234375 82.074219 171.820312 82.023438 172.402344 C 81.863281 173.308594 81.703125 174.210938 81.542969 175.113281 C 81.386719 175.804688 81.171875 176.550781 80.851562 177.1875 C 80.535156 177.824219 80.164062 178.515625 79.578125 178.996094 C 78.675781 179.578125 77.71875 179.472656 76.867188 178.941406 C 76.015625 178.410156 75.644531 177.613281 75.589844 176.710938 C 75.589844 175.964844 75.804688 175.222656 75.964844 174.53125 C 76.230469 173.734375 76.546875 172.988281 76.921875 172.296875 C 77.238281 171.554688 77.664062 170.808594 78.089844 170.066406 C 78.300781 169.746094 78.515625 169.320312 78.78125 169.054688 C 79.046875 168.789062 79.3125 168.628906 79.683594 168.578125 C 79.789062 168.578125 79.898438 168.578125 80.003906 168.578125 C 80.320312 168.472656 80.695312 168.523438 80.960938 168.578125 C 81.386719 168.683594 81.757812 169.054688 81.917969 169.429688 C 81.96875 169.480469 82.023438 169.640625 82.023438 169.746094 C 82.023438 170.066406 82.128906 170.382812 82.128906 170.703125 Z M 59.328125 172.136719 C 59.378906 172.085938 59.328125 172.03125 59.328125 172.136719 C 59.273438 171.980469 59.273438 171.871094 59.273438 171.871094 C 59.113281 170.757812 59.007812 169.375 59.59375 168.363281 C 59.964844 167.671875 60.65625 167.300781 61.402344 167.515625 C 61.824219 167.621094 62.144531 167.832031 62.410156 168.097656 C 63.367188 169.054688 63.84375 170.597656 64.21875 171.925781 C 64.535156 173.203125 64.910156 174.636719 64.855469 175.964844 C 64.855469 176.601562 64.75 177.347656 64.058594 177.613281 C 63.046875 178.089844 61.71875 177.71875 60.976562 176.976562 C 60.230469 176.335938 59.914062 175.273438 59.753906 174.371094 C 59.648438 173.945312 59.59375 173.574219 59.539062 173.09375 C 59.539062 172.882812 59.488281 172.722656 59.433594 172.457031 C 59.378906 172.402344 59.378906 172.296875 59.328125 172.136719 C 59.328125 172.03125 59.328125 171.925781 59.328125 172.136719 Z M 73.09375 171.234375 C 72.722656 172.351562 71.925781 173.574219 70.59375 173.519531 C 70.011719 173.46875 69.585938 173.253906 69.160156 172.828125 C 68.839844 172.511719 68.523438 172.191406 68.363281 171.714844 C 68.097656 171.023438 68.152344 170.226562 68.152344 169.480469 C 68.152344 168.628906 68.257812 167.78125 68.363281 166.929688 C 68.417969 166.769531 68.363281 166.609375 68.417969 166.453125 C 68.417969 166.453125 68.417969 166.453125 68.417969 166.34375 C 68.417969 165.917969 68.46875 165.441406 68.523438 165.070312 C 68.628906 164.324219 68.839844 163.476562 69.320312 162.890625 C 69.691406 162.410156 70.328125 162.09375 70.914062 162.144531 C 71.445312 162.144531 71.925781 162.519531 72.242188 162.945312 C 73.464844 164.699219 73.359375 166.824219 73.304688 168.894531 C 73.414062 169.640625 73.359375 170.4375 73.09375 171.234375 Z M 71.5 164.21875 C 71.5 164.21875 71.550781 164.164062 71.550781 164.164062 C 71.550781 164.164062 71.550781 164.164062 71.5 164.21875 Z M 98.5 65.890625 C 98.5 65.890625 98.550781 65.945312 98.550781 65.945312 C 98.605469 65.996094 98.605469 65.996094 98.660156 66.050781 C 98.710938 66.105469 98.976562 66.371094 99.085938 66.476562 C 99.988281 67.59375 99.828125 69.132812 99.667969 70.355469 C 99.5625 71.417969 99.296875 72.429688 99.082031 73.492188 C 98.816406 74.5 98.605469 75.566406 98.234375 76.46875 C 97.117188 79.074219 95.417969 81.304688 92.441406 81.199219 C 90.6875 81.144531 89.144531 80.5625 87.871094 79.285156 C 86.648438 78.0625 85.371094 75.832031 85 74.183594 C 84.628906 72.535156 86.328125 67.433594 89.144531 65.574219 C 90.472656 64.667969 91.960938 63.710938 93.609375 63.445312 C 95.417969 63.234375 97.0625 64.5625 98.5 65.890625 Z M 92.492188 52.761719 C 92.546875 52.710938 92.707031 52.65625 92.757812 52.605469 C 93.132812 52.445312 93.664062 52.339844 94.035156 52.496094 C 94.355469 52.605469 94.566406 52.816406 94.777344 53.027344 C 94.832031 53.082031 94.992188 53.136719 94.992188 53.242188 C 95.257812 53.507812 95.308594 53.773438 95.363281 54.144531 C 95.417969 54.515625 95.308594 54.941406 95.257812 55.316406 C 95.152344 56.164062 94.992188 56.960938 94.832031 57.757812 C 94.671875 58.558594 94.460938 59.300781 94.195312 60.097656 C 93.929688 60.789062 93.664062 61.480469 93.238281 62.011719 C 92.652344 62.703125 91.855469 63.074219 90.898438 62.96875 C 89.941406 62.863281 89.089844 62.332031 88.773438 61.375 C 88.507812 60.683594 88.667969 59.886719 88.824219 59.195312 C 88.984375 58.503906 89.25 57.8125 89.570312 57.175781 C 89.941406 56.378906 90.367188 55.527344 90.792969 54.78125 C 91.058594 54.304688 91.324219 53.828125 91.75 53.402344 C 91.910156 53.027344 92.175781 52.871094 92.492188 52.761719 Z M 108.492188 68.015625 C 108.4375 68.070312 108.332031 68.175781 108.277344 68.230469 C 108.121094 68.390625 108.011719 68.496094 107.855469 68.65625 C 107.589844 68.921875 107.269531 69.238281 106.949219 69.453125 C 106.207031 70.089844 105.410156 70.675781 104.398438 70.726562 C 103.335938 70.835938 102.113281 70.355469 101.582031 69.398438 C 101.261719 68.761719 101.582031 68.125 101.953125 67.644531 C 102.699219 66.582031 103.8125 65.679688 104.929688 64.882812 C 105.941406 64.085938 107.269531 63.179688 108.597656 63.019531 C 108.96875 62.96875 109.394531 62.96875 109.765625 63.128906 C 110.457031 63.394531 110.832031 64.085938 110.671875 64.882812 C 110.40625 65.996094 109.609375 67.007812 108.808594 67.804688 C 108.757812 67.859375 108.703125 67.910156 108.652344 67.964844 C 108.542969 67.964844 108.492188 68.015625 108.492188 68.015625 C 108.703125 67.910156 108.542969 67.964844 108.492188 68.015625 Z M 98.394531 59.089844 C 97.96875 60.152344 97.863281 61.640625 98.976562 62.332031 C 99.402344 62.648438 99.988281 62.703125 100.464844 62.648438 C 100.945312 62.597656 101.316406 62.542969 101.742188 62.222656 C 102.378906 61.796875 102.859375 61.214844 103.230469 60.628906 C 103.707031 59.9375 104.1875 59.246094 104.558594 58.558594 C 104.664062 58.449219 104.71875 58.289062 104.824219 58.183594 C 104.824219 58.183594 104.878906 58.132812 104.878906 58.132812 C 105.089844 57.8125 105.355469 57.441406 105.566406 57.015625 C 105.941406 56.324219 106.3125 55.632812 106.257812 54.835938 C 106.257812 54.199219 105.992188 53.613281 105.460938 53.292969 C 105.035156 52.976562 104.503906 52.976562 104.027344 53.136719 C 102.058594 53.71875 100.839844 55.472656 99.667969 57.070312 C 99.082031 57.652344 98.710938 58.34375 98.394531 59.089844 Z M 103.867188 54.570312 Z M 127.785156 81.570312 C 126.402344 82.527344 124.753906 83.003906 123.109375 82.847656 C 121.355469 82.6875 119.757812 81.835938 118.378906 80.667969 C 117.207031 79.710938 116.304688 78.382812 116.359375 76.839844 C 116.410156 73.703125 118.910156 70.78125 121.511719 69.558594 C 123.320312 68.707031 125.339844 67.964844 127.359375 67.644531 C 127.996094 67.539062 128.742188 67.433594 129.378906 67.644531 C 130.28125 67.910156 131.1875 68.601562 131.824219 69.238281 C 131.878906 69.292969 131.878906 69.292969 131.878906 69.292969 C 132.835938 70.355469 133.3125 71.578125 133.152344 73.011719 C 132.941406 74.5 132.195312 75.777344 131.503906 77 C 130.550781 78.808594 129.433594 80.453125 127.785156 81.570312 Z M 141.179688 76.789062 C 142.296875 76.203125 143.359375 75.566406 144.316406 74.714844 C 144.472656 74.554688 144.632812 74.289062 144.632812 74.078125 C 144.6875 74.023438 144.738281 73.96875 144.738281 73.863281 C 144.953125 73.546875 145.003906 73.066406 144.847656 72.695312 C 144.738281 72.375 144.582031 72.214844 144.316406 72.058594 C 144.050781 71.683594 143.515625 71.472656 143.039062 71.417969 C 142.453125 71.367188 141.816406 71.578125 141.230469 71.632812 C 140.328125 71.792969 139.476562 72.003906 138.628906 72.214844 C 137.777344 72.429688 136.925781 72.746094 136.183594 73.171875 C 135.546875 73.492188 134.855469 73.96875 134.535156 74.609375 C 134.109375 75.351562 134.164062 76.363281 134.695312 77 C 135.226562 77.742188 136.078125 77.957031 136.925781 77.957031 C 138.308594 78.273438 139.851562 77.476562 141.179688 76.789062 Z M 144.632812 73.757812 C 144.632812 73.652344 144.632812 73.546875 144.582031 73.492188 C 144.632812 73.652344 144.632812 73.757812 144.632812 73.757812 Z M 144.632812 74.183594 C 144.527344 74.289062 144.527344 74.289062 144.632812 74.183594 Z M 125.128906 64.351562 C 124.753906 62.277344 126.773438 60.683594 127.945312 59.195312 C 128.6875 58.34375 129.59375 57.546875 130.65625 57.015625 C 131.769531 56.535156 132.726562 56.960938 132.941406 58.449219 C 133.152344 59.832031 132.035156 61.265625 131.347656 62.382812 C 130.496094 63.660156 130.335938 64.667969 129.21875 65.679688 C 128.6875 66.105469 128.050781 66.527344 127.359375 66.476562 C 126.242188 66.421875 125.339844 65.308594 125.128906 64.351562 Z M 136.980469 68.335938 C 137.457031 68.070312 137.9375 67.804688 138.363281 67.484375 C 139.265625 66.796875 139.902344 66.050781 140.753906 65.199219 C 141.550781 64.402344 142.507812 63.660156 142.402344 62.488281 C 142.347656 61.800781 141.921875 61.054688 141.285156 60.84375 C 140.914062 60.683594 140.433594 60.734375 140.0625 60.894531 C 139.265625 61.160156 138.574219 61.640625 137.832031 62.066406 C 136.609375 62.863281 135.332031 63.5 134.269531 64.457031 C 133.949219 64.773438 133.683594 65.039062 133.523438 65.414062 C 133.3125 65.839844 133.257812 66.316406 133.257812 66.742188 C 133.207031 67.75 133.949219 68.496094 134.960938 68.761719 C 135.597656 69.082031 136.289062 68.707031 136.980469 68.335938 Z M 140.007812 62.332031 C 139.957031 62.382812 139.957031 62.382812 140.007812 62.332031 C 139.957031 62.382812 139.957031 62.277344 140.007812 62.332031 C 139.957031 62.277344 139.957031 62.277344 140.007812 62.332031 C 139.957031 62.277344 139.957031 62.277344 140.007812 62.332031 Z M 140.007812 62.222656 C 140.007812 62.222656 139.957031 62.277344 140.007812 62.222656 C 139.957031 62.277344 139.957031 62.277344 140.007812 62.222656 C 139.957031 62.277344 140.007812 62.222656 140.007812 62.222656 Z M 130.972656 32.777344 C 129.378906 32.355469 127.945312 30.707031 127.414062 29.21875 C 126.722656 27.464844 126.5625 26.242188 127.039062 24.382812 C 127.519531 22.628906 128.792969 21.5625 130.175781 20.5 C 131.824219 19.171875 133.632812 18.003906 135.703125 17.523438 C 137.191406 17.207031 138.414062 16.941406 139.957031 17.097656 C 141.496094 17.257812 142.933594 17.949219 143.675781 19.226562 C 143.675781 19.226562 143.730469 19.277344 143.730469 19.277344 C 144.15625 20.128906 144.527344 21.246094 144.527344 22.203125 C 144.527344 22.945312 144.15625 23.636719 143.835938 24.273438 C 142.828125 26.242188 141.390625 28.101562 139.902344 29.695312 C 137.722656 32.089844 134.109375 33.574219 130.972656 32.777344 Z M 137.671875 13.964844 C 137.140625 13.21875 137.140625 12.371094 137.40625 11.570312 C 137.832031 10.082031 139 8.914062 140.0625 7.851562 C 140.914062 7 141.921875 6.097656 142.878906 5.460938 C 143.09375 5.351562 143.359375 5.300781 143.570312 5.300781 C 143.625 5.246094 143.730469 5.246094 143.730469 5.246094 C 144.101562 5.195312 144.527344 5.195312 144.847656 5.511719 C 145.058594 5.726562 145.269531 5.9375 145.324219 6.203125 C 145.589844 6.574219 145.644531 7.160156 145.539062 7.585938 C 145.378906 8.171875 145.058594 8.703125 144.738281 9.234375 C 144.367188 10.03125 143.890625 10.828125 143.410156 11.519531 C 142.933594 12.210938 142.402344 12.953125 141.761719 13.589844 C 141.230469 14.125 140.59375 14.65625 139.902344 14.8125 C 139.160156 15.027344 138.203125 14.707031 137.671875 13.964844 Z M 143.515625 5.351562 C 143.410156 5.351562 143.464844 5.40625 143.515625 5.351562 Z M 144.207031 5.511719 C 144.15625 5.460938 144.050781 5.460938 143.996094 5.40625 C 144.050781 5.460938 144.101562 5.511719 144.207031 5.511719 Z M 145.960938 24.167969 C 146.121094 23.476562 146.707031 23 147.292969 22.628906 C 148.621094 21.828125 150.054688 21.246094 151.488281 20.875 C 152.820312 20.5 154.519531 19.96875 155.847656 20.554688 C 157.125 21.191406 156.75 22.839844 155.953125 23.742188 C 155.210938 24.59375 154.148438 25.230469 153.136719 25.710938 C 151.382812 26.402344 149.257812 27.890625 147.398438 26.878906 C 146.386719 26.402344 145.695312 25.179688 145.960938 24.167969 Z M 147.023438 13.007812 C 147.398438 12.636719 147.824219 12.316406 148.246094 11.996094 C 149.203125 11.359375 150.160156 10.722656 151.222656 10.191406 C 152.234375 9.710938 153.667969 9.339844 154.785156 9.816406 C 155.421875 10.136719 155.953125 10.773438 155.953125 11.414062 C 155.953125 11.835938 155.742188 12.261719 155.53125 12.582031 C 154.996094 13.21875 154.359375 13.75 153.722656 14.28125 C 152.605469 15.1875 151.542969 16.144531 150.214844 16.832031 C 149.84375 16.992188 149.46875 17.152344 149.046875 17.257812 C 148.566406 17.3125 148.140625 17.207031 147.714844 17.101562 C 146.707031 16.832031 145.804688 16.035156 145.910156 14.972656 C 145.910156 14.230469 146.441406 13.589844 147.023438 13.007812 Z M 154.199219 12.210938 C 154.199219 12.210938 154.148438 12.261719 154.199219 12.210938 C 154.148438 12.261719 154.199219 12.210938 154.199219 12.210938 Z M 154.308594 12.210938 C 154.308594 12.210938 154.253906 12.261719 154.308594 12.210938 C 154.199219 12.210938 154.253906 12.261719 154.308594 12.210938 Z M 184.335938 28.101562 C 184.335938 29.800781 183.484375 31.289062 182.796875 32.726562 C 181.308594 35.703125 176.46875 37.988281 174.769531 37.882812 C 173.121094 37.722656 170.730469 36.710938 169.402344 35.703125 C 167.964844 34.585938 167.222656 33.097656 166.902344 31.398438 C 166.425781 28.472656 168.390625 26.507812 170.890625 25.070312 C 171.792969 24.59375 172.804688 24.222656 173.707031 23.851562 C 174.714844 23.476562 175.726562 23.105469 176.734375 22.839844 C 178.011719 22.519531 179.5 22.203125 180.667969 22.945312 C 180.828125 23 181.09375 23.265625 181.148438 23.316406 C 181.199219 23.371094 181.199219 23.371094 181.253906 23.425781 C 181.253906 23.425781 181.308594 23.476562 181.308594 23.476562 C 182.902344 24.753906 184.285156 26.242188 184.335938 28.101562 Z M 194.699219 28.6875 C 194.328125 29.058594 193.851562 29.429688 193.425781 29.75 C 192.679688 30.28125 191.9375 30.8125 191.191406 31.238281 C 190.609375 31.609375 189.917969 31.980469 189.28125 32.195312 C 188.589844 32.460938 187.84375 32.671875 187.152344 32.511719 C 186.144531 32.355469 185.558594 31.554688 185.292969 30.652344 C 185.082031 29.695312 185.347656 28.898438 185.984375 28.261719 C 186.460938 27.78125 187.101562 27.359375 187.738281 27.039062 C 188.429688 26.667969 189.226562 26.402344 189.917969 26.136719 C 190.714844 25.871094 191.457031 25.65625 192.257812 25.390625 C 192.628906 25.335938 193.054688 25.125 193.425781 25.179688 C 193.746094 25.179688 194.117188 25.230469 194.328125 25.445312 C 194.382812 25.496094 194.488281 25.605469 194.542969 25.65625 C 194.808594 25.816406 195.074219 26.082031 195.179688 26.292969 C 195.390625 26.71875 195.339844 27.199219 195.234375 27.625 C 195.234375 27.730469 195.125 27.835938 195.125 27.941406 C 195.019531 28.15625 194.914062 28.472656 194.699219 28.6875 Z M 178.011719 13.804688 C 178.011719 13.804688 178.066406 13.75 178.011719 13.804688 C 178.117188 13.699219 178.117188 13.589844 178.171875 13.539062 C 178.863281 12.636719 179.710938 11.679688 180.828125 11.304688 C 181.574219 11.09375 182.265625 11.359375 182.636719 12.050781 C 182.847656 12.371094 182.902344 12.847656 182.902344 13.167969 C 182.902344 14.546875 182.15625 15.929688 181.464844 17.046875 C 180.777344 18.164062 180.085938 19.386719 179.074219 20.289062 C 178.648438 20.714844 178.011719 21.140625 177.375 20.925781 C 176.363281 20.554688 175.726562 19.386719 175.726562 18.320312 C 175.671875 17.3125 176.203125 16.460938 176.683594 15.664062 C 176.894531 15.34375 177.160156 14.972656 177.375 14.65625 C 177.535156 14.496094 177.585938 14.335938 177.746094 14.175781 C 177.90625 14.015625 177.957031 13.964844 178.011719 13.804688 C 178.066406 13.75 178.171875 13.644531 178.011719 13.804688 Z M 188.164062 22.785156 C 187.152344 23.371094 185.71875 23.636719 184.867188 22.574219 C 184.550781 22.148438 184.390625 21.671875 184.390625 21.140625 C 184.390625 20.714844 184.390625 20.289062 184.601562 19.863281 C 184.921875 19.226562 185.507812 18.640625 186.039062 18.214844 C 186.675781 17.683594 187.3125 17.152344 187.949219 16.621094 C 188.058594 16.515625 188.164062 16.410156 188.324219 16.355469 C 188.324219 16.355469 188.375 16.300781 188.375 16.300781 C 188.640625 16.035156 189.015625 15.769531 189.386719 15.503906 C 189.96875 15.027344 190.714844 14.601562 191.457031 14.496094 C 192.042969 14.441406 192.679688 14.65625 193.105469 15.078125 C 193.480469 15.453125 193.53125 16.035156 193.480469 16.515625 C 193.160156 18.535156 191.511719 19.96875 190.128906 21.351562 C 189.4375 21.9375 188.855469 22.414062 188.164062 22.785156 Z M 191.882812 16.832031 C 191.9375 16.78125 191.992188 16.832031 191.882812 16.832031 C 191.992188 16.832031 191.992188 16.832031 191.882812 16.832031 C 191.992188 16.832031 191.9375 16.78125 191.882812 16.832031 Z M 85.476562 120.050781 C 86.914062 119.679688 88.347656 119.199219 89.835938 119.308594 C 91.324219 119.414062 92.441406 120.210938 93.238281 121.433594 C 93.238281 121.433594 93.289062 121.488281 93.289062 121.488281 C 93.769531 122.285156 94.300781 123.347656 94.300781 124.304688 C 94.355469 124.996094 94.085938 125.683594 93.875 126.324219 C 93.132812 128.238281 91.910156 130.097656 90.632812 131.691406 C 88.824219 134.03125 85.316406 135.835938 82.234375 135.199219 C 80.695312 134.828125 79.578125 133.710938 78.886719 132.277344 C 78.089844 130.628906 77.558594 128.820312 77.824219 127.066406 C 78.035156 125.367188 78.941406 123.824219 80.164062 122.707031 C 81.703125 121.273438 83.5625 120.582031 85.476562 120.050781 Z M 87.976562 110.429688 C 88.824219 109.472656 89.675781 108.519531 90.738281 107.773438 C 91.003906 107.613281 91.164062 107.5625 91.429688 107.613281 C 91.484375 107.5625 91.589844 107.5625 91.589844 107.5625 C 92.015625 107.453125 92.386719 107.507812 92.707031 107.71875 C 92.972656 107.878906 93.132812 108.144531 93.183594 108.410156 C 93.503906 108.730469 93.554688 109.316406 93.503906 109.792969 C 93.398438 110.429688 93.078125 110.960938 92.8125 111.546875 C 92.441406 112.34375 92.015625 113.195312 91.644531 113.992188 C 91.164062 114.789062 90.738281 115.535156 90.15625 116.222656 C 89.675781 116.808594 89.089844 117.394531 88.347656 117.605469 C 87.496094 117.820312 86.488281 117.554688 85.957031 116.914062 C 85.371094 116.222656 85.316406 115.320312 85.476562 114.523438 C 85.847656 112.875 86.964844 111.546875 87.976562 110.429688 Z M 91.75 107.613281 C 91.855469 107.613281 91.910156 107.667969 91.960938 107.71875 C 91.960938 107.71875 91.800781 107.667969 91.75 107.613281 Z M 91.324219 107.613281 C 91.21875 107.613281 91.269531 107.667969 91.324219 107.613281 Z M 95.152344 126.640625 C 95.308594 125.949219 95.789062 125.367188 96.375 124.996094 C 97.597656 124.089844 98.710938 124.144531 100.09375 123.613281 C 101.371094 123.1875 102.964844 122.335938 104.347656 122.867188 C 105.726562 123.398438 105.941406 124.460938 105.25 125.472656 C 104.558594 126.375 103.496094 127.121094 102.484375 127.703125 C 100.730469 128.503906 98.710938 130.203125 96.691406 129.351562 C 95.789062 128.875 94.9375 127.597656 95.152344 126.640625 Z M 95.46875 116.542969 C 95.789062 116.117188 96.214844 115.691406 96.640625 115.375 C 97.542969 114.578125 98.394531 114.152344 99.457031 113.515625 C 100.464844 112.929688 101.371094 112.132812 102.539062 112.449219 C 103.230469 112.714844 103.867188 113.25 103.867188 113.992188 C 103.867188 114.417969 103.761719 114.84375 103.496094 115.214844 C 103.070312 115.957031 102.433594 116.597656 101.792969 117.128906 C 100.730469 118.191406 99.773438 119.253906 98.550781 120.15625 C 98.179688 120.421875 97.808594 120.582031 97.382812 120.6875 C 96.957031 120.796875 96.480469 120.742188 96 120.6875 C 94.992188 120.53125 94.40625 119.625 94.355469 118.511719 C 94.40625 117.710938 94.9375 117.179688 95.46875 116.542969 Z M 102.113281 114.894531 C 102.113281 114.894531 102.058594 114.949219 102.113281 114.894531 C 102.058594 114.949219 102.167969 114.949219 102.113281 114.894531 C 102.167969 114.949219 102.167969 114.949219 102.113281 114.894531 C 102.167969 114.949219 102.167969 114.949219 102.113281 114.894531 Z M 102.21875 114.894531 C 102.21875 114.894531 102.167969 114.949219 102.21875 114.894531 C 102.167969 114.949219 102.167969 114.949219 102.21875 114.894531 C 102.167969 114.949219 102.21875 114.894531 102.21875 114.894531 Z M 102.21875 114.894531 " fill-opacity="1" fill-rule="nonzero"/></g></g></g></svg>